<?xml version="1.0" encoding="utf-8"?>
<!-- Generator: Adobe Illustrator 18.1.1, SVG Export Plug-In . SVG Version: 6.00 Build 0)  -->
<svg version="1.1" baseProfile="tiny" id="Calque_1"
	 xmlns="http://www.w3.org/2000/svg" xmlns:xlink="http://www.w3.org/1999/xlink" x="0px" y="0px" viewBox="0 0 32 32"
	 xml:space="preserve">
<path fill="#010202" d="M9.5,27.4L20.9,16L9.5,4.6C9,4.1,9,3.3,9.5,2.8L11,1.4c0.5-0.5,1.3-0.5,1.8,0l13.8,13.8
	c0.1,0.1,0.1,0.2,0.2,0.2c0,0,0,0.1,0.1,0.1c0,0,0,0.1,0,0.1c0.2,0.5,0.1,1-0.3,1.4L12.7,30.6c-0.5,0.5-1.3,0.5-1.8,0l-1.5-1.5
	C9,28.7,9,27.9,9.5,27.4z"/>
</svg>
