<?xml version="1.0" encoding="utf-8"?>
<!-- Generator: Adobe Illustrator 18.1.1, SVG Export Plug-In . SVG Version: 6.00 Build 0)  -->
<svg version="1.1" baseProfile="tiny" id="Calque_1"
	 xmlns="http://www.w3.org/2000/svg" xmlns:xlink="http://www.w3.org/1999/xlink" x="0px" y="0px" viewBox="0 0 32 32"
	 xml:space="preserve">
<path fill="#010202" d="M22.5,27.4L11.1,16L22.5,4.6c0.5-0.5,0.5-1.3,0-1.8L21,1.4c-0.5-0.5-1.3-0.5-1.8,0L5.5,15.1
	c-0.1,0.1-0.1,0.2-0.2,0.2c0,0,0,0.1-0.1,0.1c0,0,0,0.1,0,0.1C5,16,5.1,16.6,5.5,17l13.9,13.7c0.5,0.5,1.3,0.5,1.8,0l1.5-1.5
	C23,28.7,23,27.9,22.5,27.4z"/>
</svg>
