<?xml version="1.0" encoding="utf-8"?>
<!-- Generator: Adobe Illustrator 18.1.1, SVG Export Plug-In . SVG Version: 6.00 Build 0)  -->
<svg version="1.1" baseProfile="tiny" id="Calque_1"
	 xmlns="http://www.w3.org/2000/svg" xmlns:xlink="http://www.w3.org/1999/xlink" x="0px" y="0px" viewBox="0 0 32 32"
	 xml:space="preserve">
<path fill="#010202" d="M18.6,16L30.9,3.7c0.2-0.2,0.2-0.4,0-0.6l-2-2c-0.2-0.2-0.4-0.2-0.6,0L16,13.4L3.7,1.1C3.6,1,3.3,1,3.2,1.1
	l-2,2C1,3.3,1,3.6,1.1,3.7L13.4,16L1.1,28.3c-0.2,0.2-0.2,0.4,0,0.6l2,2c0.2,0.2,0.4,0.2,0.6,0L16,18.6l12.3,12.3
	c0.2,0.2,0.4,0.2,0.6,0l2-2c0.2-0.2,0.2-0.4,0-0.6L18.6,16z"/>
</svg>
