<?xml version="1.0" encoding="utf-8"?>
<!-- Generator: Adobe Illustrator 18.1.1, SVG Export Plug-In . SVG Version: 6.00 Build 0)  -->
<svg version="1.1" baseProfile="tiny" id="Calque_1"
	 xmlns="http://www.w3.org/2000/svg" xmlns:xlink="http://www.w3.org/1999/xlink" x="0px" y="0px" viewBox="0 0 32 32"
	 xml:space="preserve">
<path d="M30.1,5h-5.5V1.7H7.4V5H1.9C1.4,5,1,5.4,1,5.9v0.8c0,3.8,2.8,6.9,6.4,7.4c0.1,3.9,3.4,7.1,7.3,7.1v0.4
	c0,4.1-3.3,7.4-7.4,7.4v1.1h17.4v-1.1c-4.1,0-7.4-3.3-7.4-7.4v-0.4c4,0,7.2-3.2,7.3-7.1c3.6-0.5,6.4-3.6,6.4-7.4V5.9
	C31,5.4,30.6,5,30.1,5z M7.4,12.3c-2.6-0.5-4.5-2.8-4.5-5.5h4.5V12.3z M19.4,15.7L16,13.4l-3.4,2.3l1.1-4l-3.2-2.6L14.6,9L16,5.1
	L17.4,9l4.1,0.2l-3.2,2.6L19.4,15.7z M24.6,12.3V6.9h4.5C29.1,9.6,27.2,11.8,24.6,12.3z"/>
</svg>
