<?xml version="1.0" encoding="utf-8"?>
<!-- Generator: Adobe Illustrator 18.1.1, SVG Export Plug-In . SVG Version: 6.00 Build 0)  -->
<svg version="1.1" baseProfile="tiny" id="Calque_1"
	 xmlns="http://www.w3.org/2000/svg" xmlns:xlink="http://www.w3.org/1999/xlink" x="0px" y="0px" viewBox="0 0 32 32"
	 xml:space="preserve">
<path fill="#010202" d="M23.6,15.7c0-0.1,0-0.2-0.1-0.2c-2.4-4.7-4.7-9.4-7.2-14c0-0.1-0.1-0.2-0.2-0.3c0,0,0,0,0,0
	c-0.3-0.3-0.8-0.3-0.9,0.2C15.1,1.6,15,1.9,15,2.1C14.6,3,14.2,4,13.8,4.9c-0.6,1.2-1.4,2.4-2.1,3.6c-1.3,2.4-2.3,4.8-3.2,7.4
	c0,0.1,0,0.2,0,0.2c-0.1,0.1-0.1,0.3,0,0.5c1.2,2.5,2.3,5,3.4,7.5c1,2.3,1.9,4.7,3.6,6.6c0.1,0.1,0.1,0.1,0.2,0.1
	c0.2,0.2,0.6,0.2,0.8-0.1c2.5-4.8,4.8-9.7,7.1-14.6C23.6,16,23.6,15.9,23.6,15.7z M19.7,15.7c-0.7-2.2-1.5-4.4-1.9-6.6
	c-0.2-1.1-0.2-2.2-0.5-3.4c1.7,3.3,3.4,6.6,5.1,9.9C21.5,15.6,20.6,15.7,19.7,15.7z M15.6,3.9c0.1,0.4,0.2,0.8,0.3,1.3
	c0.4,1.3,0.4,2.5,0.7,3.9c0.4,2.3,1.2,4.5,1.9,6.7c-1.8,0-3.6,0-5.4,0C13.6,11.7,14.6,7.8,15.6,3.9z M18.6,16.8
	c-0.6,3.9-1.5,7.7-2.7,11.4c-1.2-3.7-2.1-7.5-2.7-11.4C15,16.8,16.8,16.8,18.6,16.8z M19.7,16.7c0.8,0,1.6,0,2.4,0
	c-1.4,2.9-2.8,5.8-4.2,8.7C18.7,22.6,19.3,19.7,19.7,16.7z M13,8.4c0.2-0.4,0.4-0.7,0.6-1.1C13,10,12.4,12.8,12,15.7
	c-0.8,0-1.5,0-2.3,0C10.6,13.2,11.7,10.7,13,8.4z M9.7,16.8c0.8,0,1.6,0,2.4,0c0.6,3.7,1.4,7.3,2.5,10.9c-0.8-1.4-1.4-3-2-4.5
	C11.7,21,10.8,18.9,9.7,16.8z"/>
</svg>
