<?xml version="1.0" encoding="utf-8"?>
<!-- Generator: Adobe Illustrator 18.1.1, SVG Export Plug-In . SVG Version: 6.00 Build 0)  -->
<svg version="1.1" baseProfile="tiny" id="Calque_1"
	 xmlns="http://www.w3.org/2000/svg" xmlns:xlink="http://www.w3.org/1999/xlink" x="0px" y="0px" viewBox="0 0 32 32"
	 xml:space="preserve">
<path fill="#010202" d="M24.9,8.3c-1-4.6-5.5-7.9-10.2-7.2C14.5,1,14.3,1,14,1C9.2,1.7,6.5,7.2,6.8,11.6C7,14,8,16.2,9.7,17.8
	c1.3,1.2,3,1.7,4.8,1.8c0,1.3-0.1,2.6-0.1,3.9c-1.1,0-2.2,0-3.2,0c-1.9,0-1.9,2.9,0,2.9c1.1,0,2.1,0,3.2,0c0,1.1,0,2.1,0,3.2
	c0,1.9,2.9,1.9,2.9,0c0-1.1,0-2.1,0-3.2c0.9,0,1.9,0,2.8,0c1.9,0,1.9-2.9,0-2.9c-0.9,0-1.8,0-2.8,0c0-1.3,0.1-2.7,0.1-4
	c0.2,0,0.3,0,0.5,0c2.6-0.2,5.2-0.6,6.3-3.2C25.2,13.7,25.5,11,24.9,8.3z M21.9,13.8c-0.2,0.8-0.5,2-1.4,2.3c-1,0.3-2.1,0.5-3.2,0.6
	c-1.8,0.2-4.2,0.3-5.6-0.9c-1.3-1.1-1.9-2.9-2-4.5C9.5,8.3,11.2,4.8,14.1,4c0.2,0.1,0.5,0.1,0.8,0c3.3-0.8,6.2,1.6,7.1,4.6
	C22.5,10.3,22.4,12.1,21.9,13.8z"/>
</svg>
