<?xml version="1.0" encoding="utf-8"?>
<!-- Generator: Adobe Illustrator 18.1.1, SVG Export Plug-In . SVG Version: 6.00 Build 0)  -->
<svg version="1.1" baseProfile="tiny" id="Calque_1"
	 xmlns="http://www.w3.org/2000/svg" xmlns:xlink="http://www.w3.org/1999/xlink" x="0px" y="0px" viewBox="0 0 32 32"
	 xml:space="preserve">
<g>
	<path d="M14.1,24.5c-0.3-4.9,2.4-7.7,6.3-9.1c-0.6-4-3.7-8.9-11.9-14.5c-15.1,19.5-1.8,25.4,2.8,26.7C10,22.3,9.2,13.2,9.6,8.1
		C10.3,12.5,12,19.5,14.1,24.5z M30.5,16.2c-17.5-0.6-15.1,9.6-14,12.8c2.4-2.7,5.3-4.9,8.4-6.7c-2.6,2.4-4.6,5.2-6.2,8.3
		C22.6,31.6,31,32.2,30.5,16.2z"/>
</g>
</svg>
