<?xml version="1.0" encoding="utf-8"?>
<!-- Generator: Adobe Illustrator 18.1.1, SVG Export Plug-In . SVG Version: 6.00 Build 0)  -->
<svg version="1.1" baseProfile="tiny" id="Calque_1"
	 xmlns="http://www.w3.org/2000/svg" xmlns:xlink="http://www.w3.org/1999/xlink" x="0px" y="0px" viewBox="0 0 32 32"
	 xml:space="preserve">
<path fill="#010202" d="M27.9,19.6c0-3.8-1.8-7.5-4.8-10l-0.4-0.3c-0.5-0.4-1.2-0.2-1.4,0.3c-0.1,0.3-0.2,2.9-0.2,3.3
	c0,0.1,0,0.2,0,0.3c0,0.4-0.3,0.7-0.7,0.6c-0.3,0-0.5-0.3-0.5-0.6c0-4.5-1.4-7.6-3.9-10c-1.5-1.4-3.4-2.7-3.9-1.7
	c-0.1,0.3,0.1,0.8,0.3,1.5c0.5,1.6-1.1,4.2-3.4,6.8c-2.1,2.4-4.8,5.4-4.8,9.9C4.1,25.5,9.8,31,16,31C22.2,31,27.9,25.5,27.9,19.6z"
	/>
</svg>
