<?xml version="1.0" encoding="utf-8"?>
<!-- Generator: Adobe Illustrator 18.1.1, SVG Export Plug-In . SVG Version: 6.00 Build 0)  -->
<svg version="1.1" baseProfile="tiny" id="Calque_1"
	 xmlns="http://www.w3.org/2000/svg" xmlns:xlink="http://www.w3.org/1999/xlink" x="0px" y="0px" viewBox="0 0 32 32"
	 xml:space="preserve">
<path fill="#010202" d="M23.3,2.9C17.8-0.3,10.6,0.6,5.8,4.6C5.7,4.7,5.6,4.9,5.5,5C2.4,7.8,1,12.6,1,16.5c0,4.7,2.4,9.3,6.4,11.7
	c1.1,0.7,2.3,1.1,3.5,1.5c1.3,0.4,2.7,0.9,4.1,1.1c0.3,0.1,0.7,0.1,1,0.1c0.4,0.2,0.9,0.1,1.2,0c1.8-0.2,3.7-0.9,5.3-1.6
	c4.3-1.9,7.3-5.9,8.2-10.5C32,12.5,28.7,6.1,23.3,2.9z M24.4,25c-1.8,1.6-4.2,2.5-6.5,3.1c0,0,0,0,0,0c0-2.3-0.1-4.6-0.1-6.9
	c0-1.7-2.7-1.7-2.6,0c0,2.3,0.1,4.7,0.1,7c-1.8-0.2-3.5-0.9-5.1-1.5c-3.7-1.5-6.1-5.2-6.4-9.2c0-0.1,0-0.1,0-0.2c2.1,0,4.3,0,6.4,0
	c1.7,0,1.7-2.7,0-2.7c-2.1,0-4.2,0-6.3,0c0.2-1.3,0.5-2.5,1-3.7c0.8-1.9,2-3.8,3.9-4.8c0.4-0.2,0.6-0.4,0.6-0.7
	c1.8-1,3.8-1.6,5.8-1.7c0.1,2.1,0.2,4.2,0.2,6.3c0,1.7,2.6,1.7,2.6,0c0-2.1-0.1-4.1-0.2-6.2C18.4,3.9,19,4,19.7,4.2
	c4.2,1.2,7.3,4.8,8.4,9c0.1,0.4,0.2,0.7,0.2,1.1c-2.3,0-4.6,0-6.8,0c-1.7,0-1.7,2.6,0,2.7c2.3,0.1,4.6,0.1,6.9,0
	C28.1,20,26.6,22.9,24.4,25z"/>
</svg>
