<?xml version="1.0" encoding="utf-8"?>
<!-- Generator: Adobe Illustrator 18.1.1, SVG Export Plug-In . SVG Version: 6.00 Build 0)  -->
<svg version="1.1" id="Calque_1" xmlns="http://www.w3.org/2000/svg" xmlns:xlink="http://www.w3.org/1999/xlink" x="0px" y="0px"
	 viewBox="0 0 400 400" enable-background="new 0 0 400 400" xml:space="preserve">
<g>
	<path d="M370.6,288.2c-3.7-50-8.7-99.9-13.9-149.7c-3.3-31.4-3.2-67.1-11.7-97.7c-9.3-33.4-52.3-28.3-79.2-29.1
		c-36.6-1.1-73.6-1.9-110.1,1.2c-19.6,1.6-36.4,15.6-36.4,36.4c0,18.4,16.7,38.1,36.4,36.4c30.8-2.6,61.9-2.2,92.7-1.6
		c9.9,0.2,19.7,0.5,29.6,0.8c0.8,6.6,1.6,13.3,2.3,19.9c3.9,35.2,7.5,70.5,10.8,105.7c3,32.1,6,64.2,8,96.4c0.1,1.9,0.2,3.8,0.2,5.7
		c-2.4,0.6-4.7,1.2-7,1.6c-13,2.2-12.4,2.3-25.2,3.4c-9.1,0.8-18.2,0.7-27.3,0.5c-25.1-0.5-51-1.1-72.2-6.3
		c-45.5-11.2-64.9,59-19.4,70.2c57.3,14.2,123,12.3,180.4-0.8c26.2-6,43.6-20,44.3-48C373.3,318.4,371.7,303.2,370.6,288.2z"/>
	<path d="M148.8,222.8c1.6,11.4,3.4,23.6,2.1,32.9c-1,7.4,5.9,14.7,13.4,10.3c20.3-12.1,40.6-24.1,60.8-36.2
		c9.7-5.8,24.6-11.7,19-25.7c-5.2-13-24.5-24.8-35.5-32.8c-15.1-11-31.3-19.6-48.4-26.9c-0.8-0.5-1.7-0.9-2.7-1.2
		c-0.3-0.1-0.6-0.3-0.9-0.4c-5.3-2.2-9.1,0.9-10.4,5.2c-0.6,1-1,2.2-1.1,3.6c-1.3,11.5-0.9,23.2,0,34.9
		c-41.1-1.9-87.4,2.7-114.1,33.2c-15.4,17.6,10.3,43.4,25.8,25.8C77.2,222,115.8,220.5,148.8,222.8z"/>
</g>
</svg>
