<?xml version="1.0" encoding="utf-8"?>
<!-- Generator: Adobe Illustrator 18.1.1, SVG Export Plug-In . SVG Version: 6.00 Build 0)  -->
<svg version="1.1" baseProfile="tiny" id="Calque_1"
	 xmlns="http://www.w3.org/2000/svg" xmlns:xlink="http://www.w3.org/1999/xlink" x="0px" y="0px" viewBox="0 0 32 32"
	 xml:space="preserve">
<path fill="#010202" d="M30.7,2.8c0-0.3-0.1-0.5-0.2-0.7C30.3,1.4,29.8,1,29,1c-3,0.1-6.1,0.2-9.1,0.3c-2.2,0.1-2.2,3.5,0,3.4
	c1.5-0.1,3-0.1,4.5-0.2c-0.8,0.7-1.6,1.5-2.4,2.2c-0.8,0.8-1.5,1.5-2.2,2.4c-0.1-0.1-0.3-0.1-0.4-0.2c-0.1,0-0.1,0-0.2-0.1
	c-1.8-1.1-3.9-1.7-6.1-1.7c-3.2,0-6,1.8-8.3,3.8c-2.4,2.1-3.8,5-3.4,8.3c0.2,1.7,0.9,3.3,1.6,4.9c0.7,1.6,1.5,3.2,2.8,4.3
	c2.4,1.9,6.8,2.7,9.8,2.3c3.1-0.5,5.7-2.5,7.4-5.1c2.5-3.8,2.7-10.7-0.4-14.5c0.8-1.1,2-2,2.9-2.9c0.6-0.6,1.2-1.2,1.9-1.8
	c0,1.4-0.1,2.8-0.1,4.2c-0.1,2.2,3.3,2.2,3.5,0C30.7,8.1,30.7,5.4,30.7,2.8z M20,24.1c-1,1.8-2.8,3-4.8,3.4c-2,0.4-5.7-0.3-7.3-1.6
	c-0.8-0.6-1.2-1.9-1.6-2.8c-0.6-1.1-1-2.3-1.3-3.5c-0.6-2.5,0.5-4.4,2.3-6c3.3-3,8-3.9,11.5-0.6c0.3,0.4,0.8,0.6,1.3,0.7
	c0.7,1,1,2.3,1.2,3.4C21.6,19.4,21.2,22,20,24.1z"/>
</svg>
