<?xml version="1.0" encoding="utf-8"?>
<!-- Generator: Adobe Illustrator 18.1.1, SVG Export Plug-In . SVG Version: 6.00 Build 0)  -->
<svg version="1.1" baseProfile="tiny" xmlns="http://www.w3.org/2000/svg" xmlns:xlink="http://www.w3.org/1999/xlink" x="0px"
	 y="0px" viewBox="0 0 144.6 44.6" xml:space="preserve">
<g id="_x31_" display="none">
	<path display="inline" fill-rule="evenodd" fill="#D12247" d="M0.9,20.5l6-5l2-11l135-3l-4,42l-132-3v-13L0.9,20.5z"/>
</g>
<g id="_x32_" display="none">
	<path display="inline" fill-rule="evenodd" fill="#D12247" d="M9.9,6.5l129,1l-1,32H9.9v-10l-4-8l5-4L9.9,6.5z"/>
</g>
<g id="_x33_" display="none">
	<path display="inline" fill-rule="evenodd" fill="#D12247" d="M11.9,6.5l125,1l1,32l-126-2v-11l-5-6l6-3L11.9,6.5z"/>
</g>
<g id="_x34_" display="none">
	<path display="inline" fill-rule="evenodd" fill="#D12247" d="M11.9,6.5c0,0,0.4,0,1.1,0c12.3,0.2,123.9,2,123.9,2l-1,30l-121-3
		l-1-10l-5-5l5-2"/>
</g>
<g id="_x35_">
	<path fill-rule="evenodd" fill="#D12247" d="M9.9,6.5l129,1l-1,32H9.9v-10l-4-8l5-4L9.9,6.5z"/>
</g>
</svg>
