<?xml version="1.0" encoding="utf-8"?>
<!-- Generator: Adobe Illustrator 18.1.1, SVG Export Plug-In . SVG Version: 6.00 Build 0)  -->
<svg version="1.1" baseProfile="tiny" id="Calque_1"
	 xmlns="http://www.w3.org/2000/svg" xmlns:xlink="http://www.w3.org/1999/xlink" x="0px" y="0px" viewBox="0 0 32 32"
	 xml:space="preserve">
<g>
	<path fill="#010202" d="M29.6,12.5H2.4c-0.7,0-1.4-0.6-1.4-1.4v0c0-0.7,0.6-1.4,1.4-1.4h27.3c0.7,0,1.4,0.6,1.4,1.4v0
		C31,11.9,30.4,12.5,29.6,12.5z"/>
	<path fill="#010202" d="M29.6,17.4H2.4C1.6,17.4,1,16.8,1,16v0c0-0.8,0.6-1.4,1.4-1.4h27.3c0.7,0,1.4,0.6,1.4,1.4v0
		C31,16.8,30.4,17.4,29.6,17.4z"/>
	<path fill="#010202" d="M29.6,22.3H2.4c-0.7,0-1.4-0.6-1.4-1.4v0c0-0.8,0.6-1.4,1.4-1.4h27.3c0.7,0,1.4,0.6,1.4,1.4v0
		C31,21.6,30.4,22.3,29.6,22.3z"/>
</g>
</svg>
