<?xml version="1.0" encoding="utf-8"?>
<!-- Generator: Adobe Illustrator 18.1.1, SVG Export Plug-In . SVG Version: 6.00 Build 0)  -->
<svg version="1.1" baseProfile="tiny" xmlns="http://www.w3.org/2000/svg" xmlns:xlink="http://www.w3.org/1999/xlink" x="0px"
	 y="0px" viewBox="0 0 190 135" xml:space="preserve">
<g id="Calque_1" display="none">
	<path display="inline" fill="#DFF1FC" d="M116,5.4c0.6,5.7,3.2,32,2.7,46.4c-0.5,13.8-0.1,39.1,0,46.8c-0.3-0.1-0.7-0.1-1-0.2
		c-0.3-0.1-0.6-0.2-1-0.3c-0.1,0-0.3,0-0.4,0c-4.3-0.7-9.4-1.1-15.4-1.1c-4,0-7.8,0.1-11.1,0.3c-3.3,0.1-6.1,0.2-7.8,0.1
		c-1.1-4.3-4.6-20.3-4.5-39.2c0.2-20.6,1.1-38.8,1.5-47.2c0.1-0.1,0.2-0.3,0.3-0.4c0.3-0.7,0.2-1.4-0.1-2c0-0.6,0.1-1.2,0.1-1.6
		c2.1-0.9,7.5-3,13.9-3.8c4.2-0.2,9.9,0.8,15.7,0.6C112.1,4.4,114.6,5,116,5.4z"/>
	<g display="inline">
		<path fill="#0B62AB" d="M154.3-91.2c7.7-13.1,12.1-32.2,8.6-37.3c-0.6-0.9-1.5-1.4-2.6-1.4c-2.5,0-6.1,2.8-9.4,6.2
			c1.7-4.8,2.4-9.7-0.2-12.2c-1-0.9-2.3-1.4-3.8-1.4c-3.1,0-7,2-10.4,4.1c1.8-3.7,2.6-7.5,0.2-9.7c-3.2-2.9-10.9-3.2-14.1-3.2
			c-6.3,0-12.6,1-17.3,2.9c-7.3,2.8-17.1,9.3-22.1,12.9c0.6-5,0.5-13-5.4-14.4c-1.8-0.4-3.4,0.1-4.6,1.4c-2.9,3.1-2.9,10.9-2.7,15
			c-3.8-1.3-11.2-3.5-16.7-3.5c-4.1,0-6.6,1.2-7.6,3.6c-0.6,1.5-0.5,3,0.3,4.3c1.8,3,7.1,4.7,11.3,5.6c-4.1,2.3-9.1,6.6-9.8,13.8
			c-0.4,3.6,0.2,6.3,1.7,7.9c0.9,0.9,2,1.5,3.3,1.7c-3.4,4-8,10.6-5.8,15.7c1.1,2.5,3.1,3.8,6,3.8c1.5,0,3.1-0.4,4.5-0.8
			c-2,3.8-3.7,9.2-1.8,13.9c-0.9,1.2-1.4,2.8-1.5,4.7c-0.6,8.9,1.6,20.1,15.9,22.9c0.2,0,0.3,0.1,0.4,0.1c1.2,10.1,3.7,20.3,9,22.7
			c3.4,1.6,12,2.5,20.1,2.7c0,0.1,0,0.1,0,0.2V1.3c0,0,0,0,0,0l-3-0.5c-0.6-0.1-1.3,0.2-1.6,0.7c-8.8,0.8-16,4.4-16.4,4.6
			c-0.5,0.3-0.9,0.8-0.9,1.4c0,0,0,0.4-0.1,1.1c-5.8-1.5-22-3.4-33.1,16.9c-13.2,24.2-6.3,40.2-6,40.8c0.3,0.7,1,1.2,1.8,1.3
			c0.8,0.1,1.6-0.3,2-1c0.3-0.5,1-1.2,1.4-1.4c0.2,0.2,0.7,0.9,1.2,2.9c1.2,5,0.5,7,0.2,7.5c-0.1,0-0.2-0.1-0.4-0.2
			c-1-0.7-2.4-0.5-3.1,0.4c-0.7,1-0.5,2.3,0.4,3.1c1,0.8,2.1,1.1,3.1,1.1c0.8,0,1.6-0.2,2.3-0.7c1.5-1,3.8-4,1.7-12.3
			c-0.3-1.4-1.4-5.6-4.7-6.2c-1.1-0.2-2.1,0.1-2.9,0.5c-0.4-1.7-0.7-4-0.8-7c-0.1-5.9,1.2-15.3,7.5-26.9
			c10.6-19.3,25.6-15.7,29-14.6c-0.4,8.5-1.2,25.6-1.4,45.1c-0.2,21.7,4.4,39.6,4.5,39.8c0.2,0.6,0.7,1.1,1.3,1.2
			c0.3,0.1,0.6,0.1,0.9,0.1c-0.1,1.7,0.4,5.9,1.9,19c1.3,11.2,2.9,25.1,2.8,28.2c-0.1,1.6-0.4,5.1-0.8,9.6
			c-3.3,36.6-2.6,39.9,0.7,40.4c1.2,0.2,2.7,0.3,4.3,0.3c2.8,0,5.5-0.2,5.9-0.3c1.2-0.1,2.1-1.2,2-2.4c-0.1-1.2-1.2-2.1-2.4-2
			c-1.5,0.1-5.6,0.4-8.1,0.2c-0.9-4.9,1.1-26.4,1.9-35.9c0.4-4.5,0.7-8.1,0.8-9.8c0.2-3.5-1.4-16.4-2.8-28.9
			c-0.9-7.8-1.9-16.5-1.9-18.1c0-0.1,0-0.2,0-0.3c1.1,0,2.3-0.1,3.6-0.1c3-0.1,6.5-0.3,10.1-0.3c4.6,0,8.6,0.2,12.1,0.7
			c-0.4,5.5-2.3,32.1-3.5,40.9c-0.7,5.3-3.8,20.1-6.2,31.9c-1.6,7.8-2.9,13.9-3.2,15.8c-0.2,1,0.2,2,0.9,2.8
			c1.6,1.6,5.6,2.1,9.8,2.1c2.8,0,5.6-0.2,7.7-0.4c1.2-0.1,2.1-1.2,2-2.4c-0.1-1.2-1.2-2.1-2.4-2c-5.7,0.6-11.6,0.5-13.5-0.2
			c0.4-2.5,1.6-8.2,3-14.8c2.5-11.9,5.5-26.8,6.3-32.2c1.2-8.7,3-34.1,3.5-40.6c0.4,0.1,0.7,0.2,1.1,0.3c0.1,0,0.3,0.1,0.4,0.1
			c0,0,0,0,0,0c0.9,0,1.7-0.7,1.7-1.6c0-0.1,0-0.2,0-0.3c-0.1-3.1-0.6-31.9-0.1-46.9c0.4-11.1-1-29.1-1.9-39.1l-0.1-1.7
			c5.1-0.8,18.3-0.8,26.3,17.3c5.3,12.1,5.7,21.6,5.1,27.5c-0.3,2.9-0.9,5.2-1.4,6.9c-0.8-0.5-1.8-0.9-2.9-0.8
			c-3.4,0.3-4.8,4.4-5.3,5.7c-2.8,8.1-0.8,11.2,0.6,12.4c0.7,0.5,1.4,0.8,2.2,0.9c1,0.1,2.2-0.2,3.2-0.9c1-0.6,1.4-2,0.7-3
			c-0.6-1-2-1.4-3-0.7c-0.2,0.1-0.3,0.2-0.4,0.2c-0.3-0.5-0.8-2.6,0.9-7.4c0.7-2,1.3-2.6,1.5-2.8c0.4,0.2,1,0.9,1.3,1.5
			c0.4,0.7,1.1,1.1,1.9,1.1c0.8,0,1.5-0.4,1.9-1.1c0.4-0.6,8.8-15.9-2.3-41.2c-8.9-20.4-24.4-20.8-30.8-19.9
			c-0.1-0.8-0.1-1.2-0.1-1.3c-0.1-0.6-0.5-1.2-1.1-1.4c-0.3-0.1-5.2-1.8-12.6-2.5V-9c0,0,0-0.1,0-0.1c0.3,0,0.7,0,1,0
			c6.3,0,17.4-0.4,20.4-2.9c5.3-4.4,8.2-27.4,8.7-48.3c4.1-1.3,13.5-4.9,12.6-11.4c-0.3-2.2-2.2-3.7-5.3-4.3
			C144.8-78.6,149.8-83.5,154.3-91.2z M57.5-57.4c0.1-1.7,0.5-2.8,1.2-3.4c0.4-0.4,1-0.6,1.8-0.6c2.4,0,5.7,1.7,7.3,2.8l0.5,6.7
			c0,0,0,0,0,0l1.1,13.7C65.1-39.2,56.4-42.4,57.5-57.4z M114.5,6.9c0.5,5.5,2.9,30.9,2.5,44.8c-0.5,13.4-0.1,37.8,0,45.2
			c-0.3-0.1-0.6-0.1-0.9-0.2c-0.3-0.1-0.6-0.2-0.9-0.3c-0.1,0-0.3,0-0.4,0c-4-0.7-8.6-1-14.1-1c-3.7,0-7.2,0.1-10.2,0.3
			c-3.1,0.1-5.6,0.2-7.1,0.1c-1-4.1-4.3-19.6-4.1-37.8c0.2-19.9,1-37.5,1.4-45.6c0.1-0.1,0.2-0.3,0.2-0.4c0.3-0.6,0.2-1.3-0.1-1.9
			c0-0.6,0.1-1.1,0.1-1.5c1.9-0.9,6.9-2.9,12.7-3.7c-0.4,2.2-0.3,5.1,2,8.2c0.1,1.1-0.1,4.7-0.2,8.4C94.8,34.8,93.9,57,96.5,67
			c0.1,0.5,0.5,0.9,1,1.1c0.2,0.1,0.4,0.1,0.6,0.1c0.3,0,0.6-0.1,0.9-0.3l12.9-8.2c0.6-0.4,0.9-1.1,0.7-1.8
			c-0.1-0.3-7.7-33.7-8.4-42.2c0.8-1.3,2.8-4.9,3.7-10.4C110.9,6,113.2,6.6,114.5,6.9z M104.6,5.6c-1,5.6-3.3,8.8-3.3,8.8
			c-0.2,0.3-0.3,0.7-0.3,1.1c0.3,7.1,6.8,36,8.2,42.2L99.2,64c-1.8-10.5-1.1-30.9-0.6-42.3c0.4-9.5,0.3-9.6-0.2-10.3
			c-2.1-2.7-1.8-5.3-1.4-6.8c0.7,0,1.3,0,2,0c0.1,0,0.1,0,0.2,0l0.4,0.1c0.2,1,1.1,1.7,2.2,1.7c0.8,0,1.5-0.4,1.9-1L104.6,5.6z
			 M130.7-60.4c-0.6,25.4-4.3,43.3-7.5,46c-1.2,1-7.5,2.1-18.3,2.1c-10.6,0-21-1.1-24.1-2.5c-4.4-2.1-8.6-17.2-8-42l0.1-4
			c0.1-2.5,0.1-5.2,0.2-8.1c1-20.6,2-27.7,2.6-30.1c4.1,0.8,15.1,2.8,26.8,2.8c0,0,0,0,0,0c0.1,0,0.1,0,0.2,0
			c10.1,0,18.1-1.5,23.7-4.4c0,0,0,0,0,0c0,0.1,0,0.1,0,0.2c2.1,7.9,4.4,22.8,4.1,39.1c0,0.3,0.1,0.6,0.2,0.8L130.7-60.4z
			 M135.6-75.9c-0.7,0.4-1,1.2-0.8,1.9c0.2,0.8,1,1.2,1.7,1.2c0,0,0.6,0,1.3,0c3.2,0,5.4,0.7,5.5,1.8c0.4,3.1-4.7,5.9-9.3,7.4
			c0-15.7-2.2-29.9-4.2-37.6c-0.1-0.5-0.3-1-0.4-1.4c-0.1-0.7-0.1-1-0.1-1c-0.1-0.6-0.4-1.1-1-1.3c-0.5-0.2-1.2-0.2-1.6,0.2
			c-0.1,0.1-0.2,0.1-0.3,0.2c-5,3.3-12.8,5-23.3,5.1c-0.2,0-0.5,0-0.7,0c-13.9,0-27.4-3-27.5-3c-0.2,0-0.4,0-0.6,0
			c-0.6,0-1.2,0.3-1.5,0.8c-0.5,0.9-2.1,3.7-3.4,32.8c-0.1,2.7-0.2,5.2-0.3,7.5c0,0-0.1,0-0.1,0c-0.2-0.1-0.4-0.2-0.6-0.4
			c0,0-0.1,0-0.1-0.1c-0.3-0.1-0.5-0.3-0.8-0.4c-0.1,0-0.1-0.1-0.2-0.1c-0.2-0.1-0.5-0.2-0.8-0.4c-0.1,0-0.1-0.1-0.2-0.1
			c-0.3-0.1-0.6-0.3-1-0.4c-0.1,0-0.1,0-0.2-0.1c-0.3-0.1-0.6-0.2-0.9-0.3c-0.1,0-0.2-0.1-0.3-0.1c-0.4-0.1-0.7-0.2-1.1-0.3
			c0,0-0.1,0-0.1,0c-0.3-0.1-0.6-0.1-1-0.2c-0.1,0-0.2,0-0.3,0c-0.4,0-0.7-0.1-1.1-0.1c-0.4,0-0.8,0-1.1,0.1c-0.1,0-0.2,0.1-0.3,0.1
			c-0.2,0-0.4,0.1-0.6,0.1c-1.9-6.3,4.4-14.5,4.7-14.8c0.5-0.6,0.5-1.5-0.1-2.1c-0.5-0.6-1.4-0.7-2.1-0.3c-1.7,1.1-5.3,2.9-8,2.9
			c-2,0-2.6-0.9-3-1.8c-1.9-4.4,5.5-12.8,8.3-15.4c0.6-0.6,0.7-1.4,0.2-2.1c-0.4-0.7-1.3-0.9-2-0.6c0,0-1.2,0.5-2.5,0.5
			c-0.9,0-1.6-0.2-2.1-0.8c-0.6-0.6-1.2-2.1-0.9-5.4c1-9.9,12.6-13.2,12.8-13.2c0.8-0.2,1.3-0.9,1.2-1.7c-0.1-0.8-0.7-1.4-1.5-1.5
			c-4.7-0.5-12.8-2.3-14.4-5c-0.3-0.4-0.3-0.8-0.1-1.4c0.6-1.3,3.1-1.5,4.6-1.5c7,0,17.9,4.1,18,4.1c0.5,0.2,1.1,0.1,1.6-0.2
			c0.5-0.3,0.7-0.9,0.6-1.5c-0.4-4.6-0.4-12.7,1.7-15c0.6-0.6,0.9-0.5,1.4-0.4c4.4,1,3.1,11.1,2.3,14.5c-0.2,0.7,0.1,1.4,0.7,1.8
			c0.6,0.4,1.3,0.4,1.9-0.1c0.1-0.1,15-11.1,24.6-14.8c4.3-1.7,10.2-2.6,16.1-2.6c6.4,0,10.6,1.2,11.8,2.3c1.4,1.3-0.9,6.9-5.3,12.8
			c-0.5,0.7-0.4,1.6,0.2,2.2c0.6,0.6,1.6,0.6,2.2,0.1c3.5-3,11.3-8.6,15.4-8.6c0.7,0,1.2,0.2,1.5,0.5c2.3,2.2-0.9,11-5.2,18.6
			c-0.4,0.7-0.2,1.7,0.5,2.2c0.7,0.5,1.7,0.3,2.2-0.3c5.3-6.6,12.1-13.4,14.5-13.5c2.2,3.4-1.2,20.8-8.8,33.7
			C144.3-80.7,135.7-76,135.6-75.9z M111.1-61.2c-0.6,0.2-0.8,0.9-0.6,1.4c5.9,14.1,8,23.2,6,26.4c-0.6,0.5-4.2,0.8-7.7,0.6
			c-0.6,0-1.1,0.4-1.2,1c0,0.6,0.4,1.1,1.1,1.1c0.8,0,1.6,0.1,2.4,0.1c3.2,0,6.4-0.4,7.2-1.7c0.9-1.5,3.7-5.9-5.8-28.5
			C112.4-61.2,111.7-61.5,111.1-61.2z M94.1-89.2c1-0.4,1.8-0.4,2.7,0c1.9,0.8,2.9,3.3,2.9,3.4c0.2,0.6,0.9,0.9,1.4,0.6
			c0.6-0.2,0.9-0.8,0.6-1.4c-0.1-0.1-1.3-3.4-4.1-4.6c-1.4-0.6-2.8-0.6-4.4,0c-5.2,2-6.7,6.6-6.7,6.7c-0.2,0.6,0.2,1.2,0.7,1.4
			c0.1,0,0.2,0,0.3,0c0.5,0,0.9-0.3,1.1-0.8C88.7-83.9,89.9-87.6,94.1-89.2z M123.1-87.5c-1.6-1.2-3.2-1.5-4.6-1
			c-2.3,0.8-3.1,3.7-3.2,4c-0.2,0.6,0.2,1.2,0.8,1.3c0.6,0.2,1.2-0.2,1.3-0.8c0.2-0.6,0.8-2.1,1.8-2.5c0.7-0.2,1.5,0,2.5,0.7
			c4.1,3,4.9,5.3,4.9,5.3c0.1,0.5,0.6,0.8,1.1,0.8c0.1,0,0.2,0,0.3,0c0.6-0.2,0.9-0.8,0.8-1.4C128.7-81.3,127.8-84,123.1-87.5z
			 M102.4-66.4c-0.3-0.2-0.9-0.6-11.5-0.2c-0.6,0-1.1,0.5-1.1,1.1c0,0.6,0.5,1.1,1.1,1.1c1.6-0.1,3.2-0.1,4.7-0.1
			c-0.1,0.3-0.2,0.7-0.2,1.2c0,2.4,1.2,4.3,2.6,4.3c1.4,0,2.6-1.9,2.6-4.3c0-0.5-0.1-0.9-0.2-1.2c0.4,0,0.7,0,0.9,0.1
			c0.1,0.1,0.3,0.1,0.4,0.1c0.4,0,0.7-0.2,0.9-0.5C103.1-65.4,102.9-66.1,102.4-66.4z M127.4-65.4c-10.7-0.4-11.2,0-11.5,0.2
			c-0.5,0.3-0.6,1-0.3,1.5c0.2,0.3,0.6,0.5,0.9,0.5c0.1,0,0.3,0,0.4-0.1c0.4-0.1,1.5-0.1,3.1-0.1c-0.1,0.3-0.2,0.7-0.2,1.2
			c0,2.4,1.2,4.3,2.6,4.3s2.6-1.9,2.6-4.3c0-0.5-0.1-0.8-0.1-1.1c0.8,0,1.7,0,2.5,0.1c0.6,0,1.1-0.5,1.1-1.1
			C128.5-64.9,128-65.4,127.4-65.4z"/>
	</g>
</g>
<g id="Calque_2">
	<path fill="#DFF1FC" d="M119.5,5.4c1.3,0.5,2.3,0.9,3,1.1c-0.6,6-2.8,30.5,0.2,38.7c3,8.2,21.1,45,24.8,52.4
		c-3.5,2.8-16.7,11.7-42.9,12.6c-1.5,0.1-3.1,0.1-4.6,0.1c-23.1,0-36-6.8-39.6-9.1c3.2-7.6,18.2-44.2,20.1-52.1
		c2.1-8.8,1.3-22.2,1.2-22.8c0-0.2-0.1-0.4-0.2-0.6c-2.6-5.6-5.6-14.7-4.2-17.5c0.8-1.6,2.8-3.2,6-4.5C98.8,1.2,107.8,3.5,119.5,5.4
		z"/>
	<g>
		<path fill="#0B62AB" d="M161.9-96.5c-2.9-8.5-14.7-16.6-30.1-20.7c-9.1-2.5-19-3.7-29.4-3.7c-17,0-32.3,3.2-43.3,6.4
			c1.2-1.5,3.6-6.2,2.4-12.2c-1.5-7-7.4-13.1-17.6-18.2c-4.1-2.1-8-3.1-11.4-3.1c-5.2,0-9.6,2.4-12.6,6.9c-4.8,7.2-4.9,18-3,22.5
			c3.1,7.3,10.6,15.2,19.7,15.2h0c0.5,0,1,0,1.5-0.1c-3,3.5-5.5,8-7.3,12.9c-4.3,11.8-3.7,23.8,1.5,33c0.9,1.6,1.9,2.9,3,4
			c-0.6,0-1.2,0.1-1.7,0.2c-2.4,0.6-4,2.9-4.5,6.1c-0.7,4.5,0.9,10.6,5.4,13.5c6.2,4,13.3,5.4,13.6,5.4c0.1,0,0.2,0,0.3,0
			c0,0,0.1,0,0.1,0c1.1,5.1,2.6,8.8,4.4,11.2c6.4,8.3,15.6,9.6,44.1,9.6c1,0,2,0,3,0v7.9c-0.7,0-1.5-0.1-2.2-0.1
			c-4.5,0-8.6,0.6-12.1,1.6c-0.1,0-0.3,0.1-0.4,0.1c-4.9,1.5-8.4,3.8-9.9,6.8c-0.6,1.1-0.7,2.6-0.6,4.3c-0.1,0-0.2,0.1-0.3,0.1
			C43.8,30.7,43.8,33.5,43.8,34.9c0,1.1,0,2.9,9.9,11.8c4.7,4.2,9.9,8.4,11.2,9.2c0.8,0.5,1.7,0.6,2.5,0.4c1.5-0.4,2.2-1.7,2.8-2.8
			c0,0,0-0.1,0-0.1c1.5,2,0.4,3.5-0.1,4.1c-0.9,0.9-0.9,2.3,0,3.2c0.4,0.4,1,0.7,1.6,0.7c0.6,0,1.2-0.2,1.6-0.7
			c0.4-0.4,0.8-0.9,1.2-1.5c-5.7,15.2-16,40-16.1,40.3c-0.3,0.7-0.1,1.5,0.5,2c0.4,0.3,6.9,5.2,20.3,8c0,1.7,0.5,5.7,1.9,16.6
			c1.3,10.4,3,23.2,2.9,26.6c-0.1,1.8-0.5,5.7-1,10.2C80,191.9,80.5,196,84,196.6c1.2,0.2,2.8,0.3,4.5,0.3c2.9,0,5.7-0.2,6.1-0.3
			c1.3-0.1,2.2-1.2,2.1-2.5c-0.1-1.3-1.2-2.2-2.5-2.1c-1.6,0.1-5.8,0.4-8.4,0.2c-0.8-4.2,1-20.7,1.9-28.9c0.5-4.8,0.9-8.5,1-10.5
			c0.2-3.7-1.5-16.3-2.9-27.3c-0.8-6-1.6-12.7-1.8-15.2c4.7,0.7,10.1,1.2,16.3,1.2c1.5,0,3,0,4.5-0.1c7-0.3,13.1-1.1,18.3-2.2
			c-0.4,6-2,27.4-3.2,36.1c-0.9,6.5-4.4,20.6-6.9,30.9c-1.6,6.6-2.6,10.4-2.8,11.8c-0.2,1.1,0.2,2.1,0.9,2.9
			c1.6,1.7,5.8,2.2,10.1,2.2c2.9,0,5.8-0.2,8-0.4c1.3-0.1,2.2-1.2,2-2.5c-0.1-1.3-1.2-2.2-2.5-2c-5.9,0.6-11.9,0.5-13.9-0.2
			c0.4-1.9,1.4-6,2.6-10.6c2.6-10.4,6.1-24.6,7-31.3c1.4-10,3.2-35.6,3.3-37.9c14.5-4,21-10.1,21.4-10.5c0.5-0.5,0.7-1.3,0.3-2
			c-0.1-0.3-9.6-19.3-16.7-34.4c0.7-0.2,1.2-0.6,1.5-1.3c0.1-0.3,0.2-0.5,0.2-0.8c0.2,0.1,0.4,0.1,0.7,0.2c0.9,0.1,1.8-0.4,2.2-1.2
			c0.9-1.7,8.8-17.2,8.8-22.7c0-5.7-14.8-17.3-21.2-22.1c-0.1-0.1-0.1-0.1-0.2-0.1c0.3-3.3,0.5-5.4,0.5-5.5c0.1-0.7-0.3-1.4-1-1.7
			c-0.4-0.2-9-4.1-19.4-5.3c-0.1,0-0.2,0-0.2,0v-8.2c1.4,0,2.9,0,4.4,0c38.3-0.3,44.9-7.9,48.2-15c2.2-4.9,1.6-14.5,0.9-26.7
			c-0.2-4-0.5-8.1-0.7-12.2c0.7,0.3,1.1,0.4,1.1,0.4c0.7,0.3,1.5,0.1,2-0.5C164.5-66.5,164.8-88.1,161.9-96.5z M36.6-106.8
			L36.6-106.8c-7.2,0-13.7-6.6-16.5-13.1c-1.6-3.8-1.4-13.2,2.7-19.3c2.4-3.6,5.6-5.4,9.7-5.4c2.9,0,6.2,0.9,9.9,2.7
			c9.1,4.5,14.6,10,15.8,15.9c1,4.7-1,8.4-1.7,9.3c-0.7,0.5-3.9,3.2-8,5.6c-0.1,0-0.2,0.1-0.3,0.1c-1.5,0.5-2.9,1.3-4.4,2.3
			c-1.8,0.8-3.6,1.4-5.3,1.7C37.9-106.8,37.2-106.8,36.6-106.8z M36.4-36.6c-3.1-2-4.4-6.7-3.9-10.1c0.3-1.8,1-3,2.1-3.3
			c0.4-0.1,0.8-0.1,1.2-0.1c3.2,0,7.5,2.4,9.6,3.7l1.2,14.2C44.1-32.8,40-34.2,36.4-36.6z M97.9,3.7c0.7,0,1.5,0,2.2,0.1v0.6
			c0,0.2,0,0.4,0.1,0.6c-1.7,5.6-3.9,10.7-5,11.7c-6.7-1.8-7.4-8.9-7.5-11.8C90.5,4.2,93.9,3.7,97.9,3.7z M73.6,50.2
			c-0.5-0.5-1.8-2.1-3.9-1.9c-1.9,0.2-2.8,1.9-3.5,3c-4-3-15.3-12.9-17.6-16.2c2.8-2.7,15.2-10.5,26.9-17.3
			c1.1,4.4,2.9,8.7,3.7,10.4c0.1,2,0.6,13.3-1.1,20.5c-0.4,1.5-1.3,4.4-2.6,7.9C75.9,54.8,75.5,52.5,73.6,50.2z M131.7,55.5
			c0-0.2,0-0.3,0-0.4c0.3,0.4,0.7,1.1,1,1.8C132.1,56.5,131.7,56,131.7,55.5z M124.4,18.6c9.4,7.2,17.1,14.7,17.2,16.8
			c0,2.7-3.4,10.5-6.4,16.7c-1.2-1.4-2.7-2.3-4.5-1.8c-1,0.2-1.8,0.8-2.4,1.5c-1.5-3.2-2.6-5.8-3.2-7.3
			C123.4,39.7,123.8,27.6,124.4,18.6z M116.2,16.3c2.2-2.7,2.7-6.3,2.7-8.8c1.2,0.4,2.2,0.8,2.9,1.1c-0.6,5.8-2.7,29.2,0.2,37.1
			c2.9,7.8,20.3,43.1,23.8,50.2c-3.4,2.7-16,11.2-41.1,12.1c-1.5,0.1-3,0.1-4.4,0.1c-22.1,0-34.5-6.5-38-8.7
			c3-7.3,17.4-42.4,19.3-49.9c2-8.4,1.2-21.3,1.2-21.9c0-0.2-0.1-0.4-0.2-0.6c-2.5-5.4-5.4-14.1-4-16.7c0.8-1.5,2.7-3.1,5.8-4.3
			C84.6,11,87,18.2,94.7,20.1c0.2,0,0.4,0.1,0.7,0.1c1.3,0,3.6-1.1,6.6-9.5c1.2,4.6,3.2,9.2,6.6,9.1
			C111.8,19.7,114.4,18.5,116.2,16.3z M115.4,6.4c0.1,1.8,0.1,5.4-1.9,7.8c-1.2,1.4-2.9,2.2-5.2,2.3c0,0,0,0,0,0
			c-0.7,0-2.8-3.7-4-10.9c0.2-0.3,0.3-0.7,0.3-1.1V4.1C108.7,4.6,112.4,5.5,115.4,6.4z M154.1-23.9c-2.8,6.1-8.8,12.7-45.1,13
			c-1.8,0-3.4,0-5.1,0c-0.4-0.4-0.9-0.6-1.5-0.6c-0.6,0-1.1,0.2-1.6,0.6c-1.3,0-2.5,0-3.7,0c-28.8,0-36.2-1.5-41.4-8.2
			c-2.6-3.4-5.8-12.4-6.2-35.9L62-60.5c3.4-1.5,7-3.9,10.7-6.7c0,0.7,0.1,1.2,0.1,1.3c0.1,0.5,0.6,0.9,1.1,0.9c0.1,0,0.2,0,0.3,0
			c0.6-0.1,1-0.8,0.9-1.4c0,0-0.2-1,0.4-1.7c0.5-0.6,1.6-1,3.1-1c4.5,0,5.3,2.3,5.3,2.4c0.2,0.6,0.8,1,1.4,0.8
			c0.6-0.1,1-0.8,0.8-1.4c0-0.2-1.1-4.1-7.5-4.1c-0.3,0-0.5,0-0.7,0.1C85.1-77.8,91.9-85,95.5-89c0.2,2.8,0.1,5.7,0,8.4
			c-0.3,5.9-1,10.9-1,10.9c-0.1,0.5,0.1,1,0.4,1.3c0.1,0.1,0.2,0.2,0.3,0.3c0.5,0.4,1.2,0.4,1.8,0.1c4.8-2.5,12.7-14.8,15.9-20.1
			c0.3,0.3,0.6,0.7,0.9,1c0.1,0.1,0.2,0.2,0.3,0.3c0.2,0.2,0.4,0.4,0.6,0.6c0.1,0.1,0.3,0.3,0.4,0.4c0.2,0.2,0.4,0.4,0.6,0.6
			c0.2,0.1,0.3,0.3,0.5,0.4c0.2,0.2,0.4,0.4,0.6,0.5c0.2,0.2,0.4,0.3,0.5,0.5c0.2,0.2,0.4,0.3,0.6,0.5c0.2,0.2,0.4,0.3,0.6,0.5
			c0.2,0.2,0.4,0.3,0.6,0.5c0.2,0.2,0.4,0.3,0.6,0.5c0.2,0.2,0.4,0.3,0.6,0.5c0.2,0.2,0.4,0.3,0.6,0.5c0.2,0.2,0.4,0.3,0.7,0.5
			c0.2,0.2,0.4,0.3,0.7,0.5c0.2,0.2,0.5,0.3,0.7,0.5c0.2,0.2,0.5,0.3,0.7,0.5c0.2,0.2,0.5,0.3,0.7,0.5c0.2,0.2,0.5,0.3,0.7,0.5
			c0.2,0.2,0.5,0.3,0.7,0.5c0.2,0.2,0.5,0.3,0.7,0.5c0.2,0.2,0.5,0.3,0.7,0.5c0.2,0.1,0.5,0.3,0.7,0.4c0.2,0.1,0.5,0.3,0.7,0.4
			c0.2,0.1,0.5,0.3,0.7,0.4c0.2,0.1,0.5,0.3,0.7,0.4c0.2,0.1,0.5,0.3,0.7,0.4c0.1,0.1,0.2,0.1,0.4,0.2c-3.5,0.5-4.8,3.5-5.2,4.8
			c-0.5,1.5-0.3,2,0.1,2.4c0.2,0.2,0.5,0.3,0.8,0.3c0.2,0,0.3,0,0.5-0.1c0.4-0.2,0.7-0.7,0.6-1.1c0.1-0.5,0.8-3.7,3.8-4
			c4.2-0.4,4.6,2.1,4.7,2.9c0.1,0.6,0.7,1.1,1.3,1c0.6-0.1,1.1-0.7,1-1.3c0-0.3-0.1-0.6-0.2-0.8c0.2,0.1,0.4,0.2,0.6,0.3
			c0.2,0.1,0.5,0.2,0.7,0.4c0.2,0.1,0.5,0.3,0.7,0.4c0.2,0.1,0.5,0.2,0.7,0.4c0.2,0.1,0.5,0.2,0.7,0.4c0.2,0.1,0.5,0.2,0.7,0.3
			c0.3,0.1,0.5,0.2,0.8,0.4c0.2,0.1,0.4,0.2,0.7,0.3c0.2,0.1,0.5,0.2,0.7,0.4c0.2,0.1,0.4,0.2,0.6,0.3c0.2,0.1,0.5,0.2,0.7,0.3
			c0.2,0.1,0.4,0.2,0.6,0.3c0.2,0.1,0.5,0.2,0.7,0.3c0.2,0.1,0.4,0.2,0.6,0.3c0.2,0.1,0.5,0.2,0.7,0.3c0.2,0.1,0.4,0.2,0.5,0.2
			c0.3,0.1,0.5,0.2,0.7,0.3c0.2,0.1,0.3,0.1,0.5,0.2c0.3,0.1,0.5,0.2,0.8,0.4c0.1,0,0.2,0.1,0.3,0.1c0.3,0.2,0.7,0.3,1,0.4
			c0.2,0.1,0.4,0.2,0.6,0.3c0.2,0.1,0.3,0.1,0.5,0.2c0.2,4.8,0.5,9.4,0.7,13.9C155.3-38.2,156-28,154.1-23.9z M158.4-64.7
			c-0.6-0.2-1.3-0.5-2.1-0.9c-8-3.4-34.8-15.3-42.1-26.4c-0.3-0.5-0.9-0.8-1.5-0.8c-0.6,0-1.1,0.3-1.4,0.8c-0.3,0.5-0.7,1.1-1.1,1.8
			c-2.8,4.5-7.7,12.1-11.6,16.4c-0.1,0.1-0.2,0.2-0.3,0.3c0.3-2.8,0.6-6.6,0.6-10.6c0,0,0,0,0-0.1c0-1.8,0-3.6-0.1-5.3
			c-0.1-1.3-0.2-2.6-0.4-3.8c-0.1-0.7-0.6-1.2-1.2-1.4c-0.6-0.2-1.3,0-1.8,0.5c0,0,0,0-0.1,0.1C94-92.5,75.2-70.9,61.9-64.2
			c-0.4,0.2-0.9,0.4-1.3,0.6l-13.5,5.9c0,0,0,0,0,0l-0.8,0.3c-0.6,0.3-1,0.9-1,1.6v3.5c-2.5-0.2-6.8-1.5-10-6.9
			c-4.7-8.2-5.2-19.5-1.3-30.2c2.6-7.1,6.8-12.9,11.4-16.2c1.6-0.7,3.1-1.5,4.5-2.3c10-3.7,29.7-9.6,52.5-9.6
			c10.1,0,19.7,1.2,28.5,3.6c14,3.8,25.2,11.2,27.7,18.6C161.3-87.6,160.7-70.1,158.4-64.7z M114.4-24.2c-6,3.6-16.1-0.1-16.2-0.1
			c-0.6-0.2-1.3,0.1-1.5,0.7c-0.2,0.6,0.1,1.2,0.7,1.5c0.3,0.1,5,1.9,10.2,1.9c2.7,0,5.6-0.5,8-1.9c0.5-0.3,0.7-1,0.4-1.6
			C115.6-24.3,114.9-24.5,114.4-24.2z M113.7-40.8c-1.5,0-1.8-0.1-1.9-0.4c-0.2-0.6-0.8-0.9-1.4-0.8c-0.6,0.2-0.9,0.8-0.8,1.4
			c0.7,2.1,2.8,2.1,4.2,2.1c1.9-0.1,2,0.1,2.1,0.9c0.1,1.4-0.2,2.5-0.9,3.4c-1.5,1.6-4.2,1.6-4.2,1.6c-0.6,0-1.1,0.5-1.1,1.1
			c0,0.6,0.5,1.1,1.1,1.1c0.2,0,3.7,0,5.9-2.4c1.2-1.3,1.7-3,1.5-5.1C117.8-40.9,115.2-40.8,113.7-40.8z M78.5-56.1
			c-1.2,0-2.4,0.4-3.3,1.1c-0.5-0.1-0.9-0.2-1.1-0.5c-0.5-0.6-0.4-1.6-0.4-2c0.1-0.6-0.3-1.2-0.9-1.3c-0.6-0.1-1.2,0.3-1.3,0.9
			c0,0.2-0.4,2.3,0.9,3.8c0.3,0.3,0.7,0.7,1.3,0.9c-0.4,0.8-0.7,1.7-0.7,2.7c0,3.1,2.5,5.7,5.6,5.7c3.1,0,5.6-2.5,5.6-5.7
			C84.1-53.6,81.6-56.1,78.5-56.1z M140.9-57.6c0-0.6-0.5-1.2-1.1-1.2c-0.6,0-1.2,0.5-1.2,1.1c0,0.6-0.2,2-0.8,2.6
			c-0.1,0.1-0.3,0.2-0.5,0.2c0,0,0,0,0,0c-0.9-0.7-2.1-1.1-3.3-1.1c-3.1,0-5.6,2.5-5.6,5.7c0,3.1,2.5,5.7,5.6,5.7
			c3.1,0,5.6-2.5,5.6-5.7c0-1-0.3-1.9-0.7-2.7c0.2-0.1,0.3-0.2,0.5-0.4C140.8-54.8,140.9-57.4,140.9-57.6z"/>
	</g>
</g>
</svg>
