<?xml version="1.0" encoding="utf-8"?>
<!-- Generator: Adobe Illustrator 18.1.1, SVG Export Plug-In . SVG Version: 6.00 Build 0)  -->
<svg version="1.1" baseProfile="tiny" id="Calque_1"
	 xmlns="http://www.w3.org/2000/svg" xmlns:xlink="http://www.w3.org/1999/xlink" x="0px" y="0px" viewBox="0 0 32 32"
	 xml:space="preserve">
<path fill="#010202" d="M4.3,24.6c-0.9,0.9-1.9,1.7-2.8,2.6c-1.6,1.5,0.9,3.9,2.5,2.4C5,28.8,5.9,27.9,6.8,27l2.5-2.4
	c1.2-1.1,2.4-2.1,3.5-3.2c0.2,0.1,0.3,0.3,0.5,0.4c2.5,1.9,5,3.7,8.2,2.5c3.1-1.2,5.7-3.2,7.6-5.9c3.2-4.6,2.1-11-2.5-14.2
	c-0.1-0.2-0.3-0.5-0.6-0.7c-4.8-3.4-11.9-1-15.5,2.8c-1.9,2-3,4.7-2.9,7.4c0.1,2,1.2,3.8,2.6,5.4c-1.2,1-2.4,2.1-3.5,3.2L4.3,24.6z
	 M21.8,20.5c-0.9,0.5-2.1,1.2-3.1,0.7c-1.2-0.6-2.3-1.4-3.3-2.2c-1.7-1.3-3.8-3.2-4.1-5.3c-0.2-2,0.9-3.9,2.2-5.4
	c2.4-2.6,6.8-4.1,10.1-2.4c0.1,0.3,0.4,0.5,0.7,0.7c3.5,2,3.9,6.4,2.1,9.6C25.4,18.1,23.6,19.5,21.8,20.5z"/>
</svg>
