<?xml version="1.0" encoding="utf-8"?>
<!-- Generator: Adobe Illustrator 18.1.1, SVG Export Plug-In . SVG Version: 6.00 Build 0)  -->
<svg version="1.1" baseProfile="tiny" id="Calque_1"
	 xmlns="http://www.w3.org/2000/svg" xmlns:xlink="http://www.w3.org/1999/xlink" x="0px" y="0px" viewBox="0 0 32 32"
	 xml:space="preserve">
<path fill="#010202" d="M30.9,14.4c0-0.8-0.4-1.3-1.1-1.6c-0.3-0.1-0.8-0.1-1.1-0.1c-0.3,0-0.6,0-1,0c-0.5,0-0.5-0.2-0.6-0.6
	c-0.1-0.8-0.4-1.6-0.9-2.2c0.7-0.9,1.8-1.3,2.1-2.4c0-0.2,0-0.4-0.1-0.5C27.1,6,26,4.9,24.9,3.8c-0.1-0.1-0.3-0.2-0.4-0.1
	c0,0,0,0,0,0c-0.1,0-0.2,0-0.3,0.1C23.8,4,23.4,4.4,23,4.7c-0.3,0.2-0.5,0.5-0.8,0.7c-0.3,0.3-0.8-0.1-1.1-0.2
	c-0.7-0.3-1.9-0.6-2-1.4C19,3,18.9,2.3,18.8,1.6c0-0.3-0.2-0.5-0.5-0.5c-0.8,0-1.7,0-2.5,0c-0.7,0-1.6-0.2-2.2,0.1
	c-0.4,0.2-0.5,0.6-0.5,1C13,3,12.9,3.9,12.8,4.7c-0.6,0.2-1.2,0.4-1.8,0.6c-0.3,0.1-0.6,0.2-0.9,0.3C9.5,5.7,9.1,5.1,8.9,4.8
	C8.5,4.4,8.1,4.1,7.7,3.9c-0.4-0.1-0.8,0.3-1,0.5C6.1,4.9,5.5,5.5,4.9,6.1C4.4,6.4,4,6.8,3.9,7.3C3.7,7.7,4,8.1,4.3,8.4
	c0.4,0.5,0.9,1,1.4,1.5c-0.4,0.8-0.9,1.6-1.2,2.5c-0.1,0.2-0.2,0.4-0.2,0.6c-0.7,0-1.3,0.1-2,0.1c-0.4,0-0.9,0-1.1,0.5
	C0.9,14.1,1,14.9,1,15.4c0,1,0,1.9,0.1,2.9c0,0.3,0.2,0.5,0.5,0.5c0.4,0,2.8-0.3,3,0.2c0.3,1,0.6,1.9,1,2.9c-0.3,0.4-0.6,0.8-1,1.2
	c-0.3,0.4-0.8,0.8-0.9,1.3c-0.2,0.9,1.3,2,1.8,2.5c0.5,0.5,1.4,1.7,2.3,1.5c0.5-0.1,0.8-0.6,1.2-0.9c0.5-0.4,0.9-0.8,1.4-1.2
	c0.9,0.5,1.8,0.9,2.7,1.3c0,0.8,0.1,1.5,0.1,2.3c0,0.3,0,1,0.4,1.1c0.7,0.2,1.4,0.1,2.1,0c1,0,1.9,0,2.9,0c0.3,0,0.5-0.2,0.5-0.5
	c0-1.1,0-2.2,0.1-3.2c1.1,0,2.2-0.4,3.1-1.1c0.7,0.8,1.4,1.5,2.1,2.2c0.2,0.2,0.5,0.2,0.7,0c0.9-0.9,1.7-1.8,2.6-2.6
	c0.5-0.5,0.8-1,0.6-1.7c-0.3-0.8-1-1.5-1.6-2c-0.4-0.4,0.6-2.3,1-3.1c1,0,2,0,3.1-0.1c0.3,0,0.5-0.2,0.5-0.5
	C31,17,31,15.7,30.9,14.4z M24.5,18.1c-0.4,1.8-1.9,3.2-3.2,4.5c-1.6,1.5-4.2,1.3-6.2,1.3c-4.8,0-8.2-5.2-7.2-9.7
	c0,0,0.1-0.1,0.1-0.1c0.9-1.9,1.9-3.9,3.7-5.1c1.8-1.2,4.7-1.5,6.7-0.9c1,0.3,1.9,0.9,2.8,1.4c1,0.6,1.9,1.4,2.4,2.4
	c0.5,1,0.6,2.1,0.7,3.2C24.4,16,24.7,17.1,24.5,18.1z"/>
</svg>
