<?xml version="1.0" encoding="utf-8"?>
<!-- Generator: Adobe Illustrator 18.1.1, SVG Export Plug-In . SVG Version: 6.00 Build 0)  -->
<svg version="1.1" id="Calque_1" xmlns="http://www.w3.org/2000/svg" xmlns:xlink="http://www.w3.org/1999/xlink" x="0px" y="0px"
	 viewBox="0 0 400 400" enable-background="new 0 0 400 400" xml:space="preserve">
<g>
	<path d="M376.4,106.3c-11.1-46.9-47.2-83.1-94.2-94.4c-46.4-11.2-97.3,7.4-129.4,41.8c-39.6,42.5-36.8,100.5-11.5,148.9
		c-38.1,48.9-76.3,97.8-114.4,146.8c-6.8,8.7-7,20.8,3.5,27.1c20.5,12.3,44,18.9,67.9,13.9c9-1.9,22-4.9,27-13.4
		c1.8-3,3.9-10.2,3.2-13.8c0.2-0.4,0.3-0.8,0.5-1.2c2,0.4,3.9,0.7,5.9,0.9c12,1.8,20.4-4.5,21.9-16.6c0.6-5.1,1.2-10.3,1.8-15.4
		c14.9-3.5,23.8-19.1,27.3-35.5c3.7,0.1,7.4,0.1,11.1-0.2c9.4-0.9,17.2-7.2,17.3-17.3c0.1-7.4,0.1-14.8,0.2-22.2
		c0-0.6,0.2-2.3,0.3-4.2c1-0.4,1.9-0.6,2.2-0.5c20.6,6.3,39.7,12.8,61.6,9.8c22.3-3,44.9-12.3,61.2-28.3
		C370.5,202.2,386.1,147.6,376.4,106.3z M209.7,254.1c-0.1-0.1,0.3-0.3,0.9-0.7C210.3,254,210.1,254.3,209.7,254.1z M328.6,189.1
		c-8.8,16.9-21.5,28-39.7,34c-22.9,7.5-40.8,1.3-62.7-5.5c-1-0.3-2-0.5-3-0.6c-18-3.3-40.8,6.3-43.2,26.1c-0.7,5.5-0.7,11.3-0.6,17
		c-1.5-0.3-3-0.5-4.6-0.9c-10.4-2.6-22.4,5.1-21.9,16.6c0.1,2.8,2.5,22.6-4.9,19.9c-11.6-4.3-20.7,6.6-21.9,16.6
		c-0.5,4.6-1.1,9.3-1.6,13.9c-6.8-0.5-13.3,0.4-19,5.5c-6.6,5.9-9.3,15-10.8,23.9c-9.8,2.6-19.4,2-28.8-0.8
		c36-46.2,72.1-92.4,108.1-138.7c4.7-6.1,7-13.8,2.7-20.9C150,151,147.2,97.6,192.4,64.4c37.8-27.8,87.2-28.1,123.3,2.8
		C352.8,99,349.4,149.3,328.6,189.1z"/>
	<path d="M260,88.2c-0.7,0.2-1.3,0.5-1.9,0.8c-0.1,0-0.1,0-0.2,0.1c-8.7,4.4-17.1,11.4-20.9,20.7c-3.6,8.7-1,18.5,2.4,26.9
		c7.9,19.3,23.2,27.2,43.1,18.2c14.9-6.8,26.1-31.1,17.1-46.4C292.8,97,273.6,84.1,260,88.2z M275.8,138.9
		c-11.9,5.7-17.4,0.2-21.3-11.1c-3.9-11.4,0.8-17.8,10.7-23.1c5.5-0.9,14.6,6.7,17.7,10.4C288.2,121.7,283,135.5,275.8,138.9z"/>
</g>
</svg>
