<?xml version="1.0" encoding="utf-8"?>
<!-- Generator: Adobe Illustrator 18.1.1, SVG Export Plug-In . SVG Version: 6.00 Build 0)  -->
<svg version="1.1" baseProfile="tiny" id="Calque_1"
	 xmlns="http://www.w3.org/2000/svg" xmlns:xlink="http://www.w3.org/1999/xlink" x="0px" y="0px" viewBox="0 0 64 32"
	 xml:space="preserve">
<path fill="#010202" d="M59.6,14.7c-1.8-1.5-4.2-1.8-6.4-2.2c0,0,0,0,0,0c0,0,0,0,0,0c-0.2-1.7-0.4-3.4-1.2-4.9
	c-1.7-3.3-5.3-3.4-8.6-3.3c-3.1,0.1-6.3,0.8-8,3.6c-0.8,1.3-1.1,2.9-1.4,4.4c0,0,0,0,0,0c-2.5,0.9-5.3,1.4-7.5,3.2
	c-1.7,1.4-2.8,3.9-1.8,6c1.2,2.3,3.7,3.3,6,4.1c2.8,1,5.7,1.2,8.6,1.4c5.9,0.4,11.8,0.6,17.3-1.7c2.1-0.9,4-2.5,4.9-4.6
	C62.4,18.5,61.3,16.1,59.6,14.7z M35.7,9.4c1.2-3.1,4.2-3.9,7.3-4.1c1.5-0.1,3.1-0.2,4.6,0.1c1.7,0.3,2.8,1.5,3.6,2.9
	c0.8,1.5,0.9,3.3,1,5c0,0.3,0.1,0.7,0.1,1c-2.5,1.8-5.5,2.3-8.5,2.4c-1.6,0-3.3-0.1-4.9-0.2c-1.5-0.1-3.1-0.2-4.5-1
	C34.6,13.5,35,11.4,35.7,9.4z M58.9,22.6c-1.8,1.8-4.5,2.5-6.9,3c-2.8,0.6-5.6,0.7-8.4,0.6c-5.4-0.2-11.2-0.2-16-3
	c-1.1-0.7-2-1.6-2.3-2.9c-0.3-1.3,0.5-2.7,1.4-3.6c1.8-1.9,4.6-2.4,7-3.2c0,0,0,0,0,0c-0.3,1.8-0.5,3.6-0.6,5.4c0,0,0,0.1,0,0.1
	c-0.1,0.2-0.1,0.5,0.2,0.7c1.4,0.7,2.7,1.4,4.3,1.8c1.8,0.4,3.8,0.2,5.7,0.2c1.9,0,3.8,0.1,5.6-0.3c1.7-0.3,3.2-1.3,4.6-2.2
	c0.1-0.1,0.2-0.2,0.3-0.3c0,0,0,0,0,0c0-0.1,0-0.2,0-0.3c-0.1-1.7-0.3-3.3-0.4-5c0,0,0,0,0,0c2.3,0.5,4.6,0.9,6.3,2.5
	C61.6,18.1,60.8,20.8,58.9,22.6z"/>
<path fill="#020304" d="M10.8,21.7L5,15.8l5.9-5.9c0.3-0.3,0.3-0.7,0-0.9l-0.8-0.7c-0.3-0.3-0.7-0.3-0.9,0l-7,7
	c-0.1,0.1-0.1,0.1-0.1,0.1c0,0,0,0.1-0.1,0.1v0.1c-0.1,0.3-0.1,0.6,0.2,0.8l7.1,7c0.3,0.3,0.7,0.3,0.9,0l0.8-0.8
	C11.1,22.4,11.1,22,10.8,21.7z"/>
</svg>
