<?xml version="1.0" encoding="utf-8"?>
<!-- Generator: Adobe Illustrator 18.1.1, SVG Export Plug-In . SVG Version: 6.00 Build 0)  -->
<svg version="1.1" baseProfile="tiny" id="Calque_1"
	 xmlns="http://www.w3.org/2000/svg" xmlns:xlink="http://www.w3.org/1999/xlink" x="0px" y="0px" viewBox="0 0 32 32"
	 xml:space="preserve">
<g>
	<path fill="#010202" d="M1.1,14.9c0.1,0.1,0.1,0.2,0.2,0.2c0,0,0,0,0.1,0c0,0,0.1,0,0.1,0c0,0,0.1,0,0.1,0c0,0,0,0,0.1,0
		c0.1,0,0.1,0,0.2,0H9c0.5,0,0.9-0.4,0.9-0.9c0-0.5-0.4-0.9-0.9-0.9H4l7.7-7.6v4.8c0,0.5,0.4,0.9,0.9,0.9c0.5,0,0.9-0.4,0.9-0.9v-7
		c0-0.1,0-0.1,0-0.2c0,0,0,0,0-0.1c0,0,0-0.1,0-0.1c0,0,0-0.1,0-0.1c0,0,0,0,0-0.1C13.2,3.2,13.1,3.1,13,3c0,0,0,0-0.1,0
		c0,0-0.1,0-0.1,0c0,0-0.1,0-0.1,0c0,0,0,0-0.1,0c-0.1,0-0.1,0-0.2,0h-7C5,2.9,4.6,3.3,4.6,3.8c0,0.5,0.4,0.9,0.9,0.9h4.9L7.8,7.2
		l-5,5V7.3c0-0.5-0.4-0.9-0.9-0.9C1.4,6.5,1,6.8,1,7.3v7.1c0,0.1,0,0.1,0,0.2c0,0,0,0,0,0.1c0,0,0,0.1,0,0.1
		C1.1,14.8,1.1,14.8,1.1,14.9C1.1,14.9,1.1,14.9,1.1,14.9z M30.1,6.4h-7c-0.5,0-0.9,0.4-0.9,0.9v5.9v0.2h-0.3h-5.9
		c-0.5,0-0.9,0.4-0.9,0.9v4.2v2h-2.6H9c-0.5,0-0.9,0.4-0.9,0.9v2.4v3.7h-5H2c-0.5,0-0.9,0.4-0.9,0.9c0,0.5,0.4,0.9,0.9,0.9h7
		c0.5,0,0.9-0.4,0.9-0.9v-5.9v-0.2h0.3h5.9c0.5,0,0.9-0.4,0.9-0.9v-4.2v-2h2.6h3.5c0.5,0,0.9-0.4,0.9-0.9v-2.4V8.1h5h1.2
		c0.5,0,0.9-0.4,0.9-0.9S30.6,6.4,30.1,6.4z"/>
</g>
</svg>
