<?xml version="1.0" encoding="utf-8"?>
<!-- Generator: Adobe Illustrator 18.1.1, SVG Export Plug-In . SVG Version: 6.00 Build 0)  -->
<svg version="1.1" id="Calque_1" xmlns="http://www.w3.org/2000/svg" xmlns:xlink="http://www.w3.org/1999/xlink" x="0px" y="0px"
	 viewBox="0 0 17 17" enable-background="new 0 0 17 17" xml:space="preserve">
<g>
	<path fill-rule="evenodd" clip-rule="evenodd" fill="#010202" d="M14.7,2.3c0.4,0.4,0.4,1.1,0,1.5L3.9,14.7c-0.4,0.4-1.1,0.4-1.5,0
		c-0.4-0.4-0.4-1.1,0-1.5L13.1,2.3C13.6,1.9,14.3,1.9,14.7,2.3z"/>
	<path fill-rule="evenodd" clip-rule="evenodd" fill="#010202" d="M3.9,2.3l10.8,10.8c0.4,0.4,0.4,1.1,0,1.5c-0.4,0.4-1.1,0.4-1.5,0
		L2.3,3.9c-0.4-0.4-0.4-1.1,0-1.5S3.4,1.9,3.9,2.3z"/>
</g>
</svg>
