<?xml version="1.0" encoding="utf-8"?>
<!-- Generator: Adobe Illustrator 18.1.1, SVG Export Plug-In . SVG Version: 6.00 Build 0)  -->
<svg version="1.1" id="Calque_1" xmlns="http://www.w3.org/2000/svg" xmlns:xlink="http://www.w3.org/1999/xlink" x="0px" y="0px"
	 viewBox="0 0 17 17" enable-background="new 0 0 17 17" xml:space="preserve">
<g>
	<path d="M15.8,4.6c-0.5-2-2-3.5-3.9-3.9C10,0.2,7.8,0.9,6.5,2.4C4.8,4.2,5,6.6,6,8.6c-1.6,2-3.2,4.1-4.8,6.1
		C1,15.1,1,15.6,1.4,15.8c0.9,0.5,1.8,0.8,2.8,0.6c0.4-0.1,0.9-0.2,1.1-0.6c0.1-0.1,0.2-0.4,0.1-0.6c0,0,0,0,0-0.1
		c0.1,0,0.2,0,0.2,0c0.5,0.1,0.9-0.2,0.9-0.7c0-0.2,0.1-0.4,0.1-0.6c0.6-0.1,1-0.8,1.1-1.5c0.2,0,0.3,0,0.5,0c0.4,0,0.7-0.3,0.7-0.7
		c0-0.3,0-0.6,0-0.9c0,0,0-0.1,0-0.2c0,0,0.1,0,0.1,0c0.9,0.3,1.7,0.5,2.6,0.4c0.9-0.1,1.9-0.5,2.6-1.2C15.6,8.6,16.2,6.3,15.8,4.6z
		 M8.9,10.7C8.9,10.7,8.9,10.7,8.9,10.7C8.9,10.7,8.9,10.8,8.9,10.7z M13.8,8c-0.4,0.7-0.9,1.2-1.7,1.4c-1,0.3-1.7,0.1-2.6-0.2
		c0,0-0.1,0-0.1,0c-0.8-0.1-1.7,0.3-1.8,1.1c0,0.2,0,0.5,0,0.7c-0.1,0-0.1,0-0.2,0c-0.4-0.1-0.9,0.2-0.9,0.7c0,0.1,0.1,0.9-0.2,0.8
		c-0.5-0.2-0.9,0.3-0.9,0.7c0,0.2,0,0.4-0.1,0.6c-0.3,0-0.6,0-0.8,0.2c-0.3,0.2-0.4,0.6-0.5,1c-0.4,0.1-0.8,0.1-1.2,0
		c1.5-1.9,3-3.9,4.5-5.8c0.2-0.3,0.3-0.6,0.1-0.9C6.4,6.4,6.3,4.2,8.2,2.8c1.6-1.2,3.6-1.2,5.1,0.1C14.8,4.3,14.7,6.4,13.8,8z"/>
	<path d="M11,3.8C10.9,3.8,10.9,3.8,11,3.8C10.9,3.9,10.9,3.9,11,3.8c-0.5,0.2-0.8,0.5-1,0.9c-0.2,0.4,0,0.8,0.1,1.1
		c0.3,0.8,1,1.1,1.8,0.8c0.6-0.3,1.1-1.3,0.7-1.9C12.3,4.2,11.5,3.6,11,3.8z M11.6,5.9c-0.5,0.2-0.7,0-0.9-0.5c-0.2-0.5,0-0.7,0.4-1
		c0.2,0,0.6,0.3,0.7,0.4C12.2,5.2,11.9,5.8,11.6,5.9z"/>
</g>
</svg>
