<?xml version="1.0" encoding="utf-8"?>
<!-- Generator: Adobe Illustrator 18.1.1, SVG Export Plug-In . SVG Version: 6.00 Build 0)  -->
<svg version="1.1" baseProfile="tiny" xmlns="http://www.w3.org/2000/svg" xmlns:xlink="http://www.w3.org/1999/xlink" x="0px"
	 y="0px" viewBox="0 0 190 65" xml:space="preserve">
<g id="Calque_3" display="none">
</g>
<g id="tete_F_04" display="none">
</g>
<g id="tete_F_03" display="none">
</g>
<g id="tete_F_02" display="none">
</g>
<g id="tete_F_01_1_" display="none">
</g>
<g id="tete_H_04" display="none">
</g>
<g id="tete_H_03" display="none">
</g>
<g id="tete_H_02" display="none">
</g>
<g id="tete_H_01" display="none">
</g>
<g id="body_F_04" display="none">
	<g display="inline">
		<path fill="#1B63AA" d="M82.5,55.6c-6.1-0.5-12-0.3-18,0.5c0.5,0.5,1,1,1.5,1.5c1.5-11.7,5.3-23.2,9-34.4
			c2.8-8.5,6.5-16.9,8.7-25.5c1.1-4.2,0-9.2-0.2-13.5c-0.5-10-1.1-20-1.7-29.9c-0.5-8.2-1.1-16.5-1.2-24.8c0-1.9-3-1.9-3,0
			c0.1,17,1.7,34.2,2.7,51.2c0.3,4.7,1.4,11.7,0.7,15.7C80.4-1,79,1.8,78.1,4.5c-1.8,5.2-3.6,10.3-5.3,15.5
			c-4,12.2-8.2,24.8-9.9,37.6c-0.1,0.7,0.8,1.6,1.5,1.5c6-0.8,12-1,18-0.5C84.4,58.8,84.4,55.8,82.5,55.6L82.5,55.6z"/>
	</g>
	<g display="inline">
		<path fill="#1B63AA" d="M122.5,51.4c-6.5-0.6-13,0-19.5-0.6c0.5,0.6,1,1.3,1.4,1.9c4.2-18.8,8.3-37.6,12.1-56.4
			c0.8-3.9,1.6-7.3,1.2-11.3c-0.8-8.2-2-16.3-3.1-24.5c-1.6-11.2-3.2-22.4-5.4-33.5c-0.4-1.9-3.3-1.1-2.9,0.8
			c2.5,12.3,4.2,24.8,5.9,37.2c1,7.5,3.2,16,2.7,23.6c-0.5,8.7-3.6,17.9-5.4,26.4c-2.6,12.3-5.3,24.6-8,36.9c-0.2,1,0.4,1.8,1.4,1.9
			c6.5,0.6,13,0,19.5,0.6C124.4,54.6,124.4,51.6,122.5,51.4L122.5,51.4z"/>
	</g>
</g>
<g id="body_F_03" display="none">
	<g display="inline">
		<path fill="#1B63AA" d="M82.5,54.6c-6.1-0.5-12-0.3-18,0.5c0.5,0.5,1,1,1.5,1.5c1.5-11.7,5.3-23.2,9-34.4
			c2.8-8.5,6.5-16.9,8.7-25.5c1.1-4.2,0-9.2-0.2-13.5c-0.5-10-1.1-20-1.7-29.9c-0.5-8.2-1.1-16.5-1.2-24.8c0-1.9-3-1.9-3,0
			c0.1,17,1.7,34.2,2.7,51.2c0.3,4.7,1.4,11.7,0.7,15.7C80.4-2,79,0.8,78.1,3.5c-1.8,5.2-3.6,10.3-5.3,15.5
			c-4,12.2-8.2,24.8-9.9,37.6c-0.1,0.7,0.8,1.6,1.5,1.5c6-0.8,12-1,18-0.5C84.4,57.8,84.4,54.8,82.5,54.6L82.5,54.6z"/>
	</g>
	<g display="inline">
		<path fill="#1B63AA" d="M122.5,50.4c-6.5-0.6-13,0-19.5-0.6c0.5,0.6,1,1.3,1.4,1.9c4.2-18.8,8.3-37.6,12.1-56.4
			c0.8-3.9,1.6-7.3,1.2-11.3c-0.8-8.2-2-16.3-3.1-24.5c-1.6-11.2-3.2-22.4-5.4-33.5c-0.4-1.9-3.3-1.1-2.9,0.8
			c2.5,12.3,4.2,24.8,5.9,37.2c1,7.5,3.2,16,2.7,23.6c-0.5,8.7-3.6,17.9-5.4,26.4c-2.6,12.3-5.3,24.6-8,36.9c-0.2,1,0.4,1.8,1.4,1.9
			c6.5,0.6,13,0,19.5,0.6C124.4,53.6,124.4,50.6,122.5,50.4L122.5,50.4z"/>
	</g>
</g>
<g id="body_F_02" display="none">
	<g display="inline">
		<path fill="#1B63AA" d="M82.5,55.6c-6.1-0.5-12-0.3-18,0.5c0.5,0.5,1,1,1.5,1.5c1.5-11.7,5.3-23.2,9-34.4
			c2.8-8.5,6.5-16.9,8.7-25.5c1.1-4.2,0-9.2-0.2-13.5c-0.5-10-1.1-20-1.7-29.9c-0.5-8.2-1.1-16.5-1.2-24.8c0-1.9-3-1.9-3,0
			c0.1,17,1.7,34.2,2.7,51.2c0.3,4.7,1.4,11.7,0.7,15.7C80.4-1,79,1.8,78.1,4.5c-1.8,5.2-3.6,10.3-5.3,15.5
			c-4,12.2-8.2,24.8-9.9,37.6c-0.1,0.7,0.8,1.6,1.5,1.5c6-0.8,12-1,18-0.5C84.4,58.8,84.4,55.8,82.5,55.6L82.5,55.6z"/>
	</g>
	<g display="inline">
		<path fill="#1B63AA" d="M122.5,51.4c-6.5-0.6-13,0-19.5-0.6c0.5,0.6,1,1.3,1.4,1.9c4.2-18.8,8.3-37.6,12.1-56.4
			c0.8-3.9,1.6-7.3,1.2-11.3c-0.8-8.2-2-16.3-3.1-24.5c-1.6-11.2-3.2-22.4-5.4-33.5c-0.4-1.9-3.3-1.1-2.9,0.8
			c2.5,12.3,4.2,24.8,5.9,37.2c1,7.5,3.2,16,2.7,23.6c-0.5,8.7-3.6,17.9-5.4,26.4c-2.6,12.3-5.3,24.6-8,36.9c-0.2,1,0.4,1.8,1.4,1.9
			c6.5,0.6,13,0,19.5,0.6C124.4,54.6,124.4,51.6,122.5,51.4L122.5,51.4z"/>
	</g>
</g>
<g id="body_F_01" display="none">
	<g display="inline">
		<path fill="#1B63AA" d="M82.5,55.6c-6.1-0.5-12-0.3-18,0.5c0.5,0.5,1,1,1.5,1.5c1.5-11.7,5.3-23.2,9-34.4
			c2.8-8.5,6.5-16.9,8.7-25.5c1.1-4.2,0-9.2-0.2-13.5c-0.5-10-1.1-20-1.7-29.9c-0.5-8.2-1.1-16.5-1.2-24.8c0-1.9-3-1.9-3,0
			c0.1,17,1.7,34.2,2.7,51.2c0.3,4.7,1.4,11.7,0.7,15.7C80.4-1,79,1.8,78.1,4.5c-1.8,5.2-3.6,10.3-5.3,15.5
			c-4,12.2-8.2,24.8-9.9,37.6c-0.1,0.7,0.8,1.6,1.5,1.5c6-0.8,12-1,18-0.5C84.4,58.8,84.4,55.8,82.5,55.6L82.5,55.6z"/>
	</g>
	<g display="inline">
		<path fill="#1B63AA" d="M122.5,51.4c-6.5-0.6-13,0-19.5-0.6c0.5,0.6,1,1.3,1.4,1.9c4.2-18.8,8.3-37.6,12.1-56.4
			c0.8-3.9,1.6-7.3,1.2-11.3c-0.8-8.2-2-16.3-3.1-24.5c-1.6-11.2-3.2-22.4-5.4-33.5c-0.4-1.9-3.3-1.1-2.9,0.8
			c2.5,12.3,4.2,24.8,5.9,37.2c1,7.5,3.2,16,2.7,23.6c-0.5,8.7-3.6,17.9-5.4,26.4c-2.6,12.3-5.3,24.6-8,36.9c-0.2,1,0.4,1.8,1.4,1.9
			c6.5,0.6,13,0,19.5,0.6C124.4,54.6,124.4,51.6,122.5,51.4L122.5,51.4z"/>
	</g>
</g>
<g id="body_F_00_-_neutre" display="none">
	<g display="inline">
		<path fill="#1B63AA" d="M82.5,55.6c-6.1-0.5-12-0.3-18,0.5c0.5,0.5,1,1,1.5,1.5c1.5-11.7,5.3-23.2,9-34.4
			c2.8-8.5,6.5-16.9,8.7-25.5c1.1-4.2,0-9.2-0.2-13.5c-0.5-10-1.1-20-1.7-29.9c-0.5-8.2-1.1-16.5-1.2-24.8c0-1.9-3-1.9-3,0
			c0.1,17,1.7,34.2,2.7,51.2c0.3,4.7,1.4,11.7,0.7,15.7C80.4-1,79,1.8,78.1,4.5c-1.8,5.2-3.6,10.3-5.3,15.5
			c-4,12.2-8.2,24.8-9.9,37.6c-0.1,0.7,0.8,1.6,1.5,1.5c6-0.8,12-1,18-0.5C84.4,58.8,84.4,55.8,82.5,55.6L82.5,55.6z"/>
	</g>
	<g display="inline">
		<path fill="#1B63AA" d="M122.5,51.4c-6.5-0.6-13,0-19.5-0.6c0.5,0.6,1,1.3,1.4,1.9c4.2-18.8,8.3-37.6,12.1-56.4
			c0.8-3.9,1.6-7.3,1.2-11.3c-0.8-8.2-2-16.3-3.1-24.5c-1.6-11.2-3.2-22.4-5.4-33.5c-0.4-1.9-3.3-1.1-2.9,0.8
			c2.5,12.3,4.2,24.8,5.9,37.2c1,7.5,3.2,16,2.7,23.6c-0.5,8.7-3.6,17.9-5.4,26.4c-2.6,12.3-5.3,24.6-8,36.9c-0.2,1,0.4,1.8,1.4,1.9
			c6.5,0.6,13,0,19.5,0.6C124.4,54.6,124.4,51.6,122.5,51.4L122.5,51.4z"/>
	</g>
</g>
<g id="body_M_03" display="none">
	<g display="inline">
		<path fill="#1B63AA" d="M82.5,55.6c-6.1-0.5-12-0.3-18,0.5c0.5,0.5,1,1,1.5,1.5c1.5-11.7,5.3-23.2,9-34.4
			c2.8-8.5,6.5-16.9,8.7-25.5c1.1-4.2,0-9.2-0.2-13.5c-0.5-10-1.1-20-1.7-29.9c-0.5-8.2-1.1-16.5-1.2-24.8c0-1.9-3-1.9-3,0
			c0.1,17,1.7,34.2,2.7,51.2c0.3,4.7,1.4,11.7,0.7,15.7C80.4-1,79,1.8,78.1,4.5c-1.8,5.2-3.6,10.3-5.3,15.5
			c-4,12.2-8.2,24.8-9.9,37.6c-0.1,0.7,0.8,1.6,1.5,1.5c6-0.8,12-1,18-0.5C84.4,58.8,84.4,55.8,82.5,55.6L82.5,55.6z"/>
	</g>
	<g display="inline">
		<path fill="#1B63AA" d="M122.5,51.4c-6.5-0.6-13,0-19.5-0.6c0.5,0.6,1,1.3,1.4,1.9c4.2-18.8,8.3-37.6,12.1-56.4
			c0.8-3.9,1.6-7.3,1.2-11.3c-0.8-8.2-2-16.3-3.1-24.5c-1.6-11.2-3.2-22.4-5.4-33.5c-0.4-1.9-3.3-1.1-2.9,0.8
			c2.5,12.3,4.2,24.8,5.9,37.2c1,7.5,3.2,16,2.7,23.6c-0.5,8.7-3.6,17.9-5.4,26.4c-2.6,12.3-5.3,24.6-8,36.9c-0.2,1,0.4,1.8,1.4,1.9
			c6.5,0.6,13,0,19.5,0.6C124.4,54.6,124.4,51.6,122.5,51.4L122.5,51.4z"/>
	</g>
</g>
<g id="body_M_02" display="none">
	<g display="inline">
		<path fill="#1B63AA" d="M82.5,55.6c-6.1-0.5-12-0.3-18,0.5c0.5,0.5,1,1,1.5,1.5c1.5-11.7,5.3-23.2,9-34.4
			c2.8-8.5,6.5-16.9,8.7-25.5c1.1-4.2,0-9.2-0.2-13.5c-0.5-10-1.1-20-1.7-29.9c-0.5-8.2-1.1-16.5-1.2-24.8c0-1.9-3-1.9-3,0
			c0.1,17,1.7,34.2,2.7,51.2c0.3,4.7,1.4,11.7,0.7,15.7C80.4-1,79,1.8,78.1,4.5c-1.8,5.2-3.6,10.3-5.3,15.5
			c-4,12.2-8.2,24.8-9.9,37.6c-0.1,0.7,0.8,1.6,1.5,1.5c6-0.8,12-1,18-0.5C84.4,58.8,84.4,55.8,82.5,55.6L82.5,55.6z"/>
	</g>
	<g display="inline">
		<path fill="#1B63AA" d="M122.5,51.4c-6.5-0.6-13,0-19.5-0.6c0.5,0.6,1,1.3,1.4,1.9c4.2-18.8,8.3-37.6,12.1-56.4
			c0.8-3.9,1.6-7.3,1.2-11.3c-0.8-8.2-2-16.3-3.1-24.5c-1.6-11.2-3.2-22.4-5.4-33.5c-0.4-1.9-3.3-1.1-2.9,0.8
			c2.5,12.3,4.2,24.8,5.9,37.2c1,7.5,3.2,16,2.7,23.6c-0.5,8.7-3.6,17.9-5.4,26.4c-2.6,12.3-5.3,24.6-8,36.9c-0.2,1,0.4,1.8,1.4,1.9
			c6.5,0.6,13,0,19.5,0.6C124.4,54.6,124.4,51.6,122.5,51.4L122.5,51.4z"/>
	</g>
</g>
<g id="body_M_01" display="none">
	<g display="inline">
		<path fill="#1B63AA" d="M82.5,55.6c-6.1-0.5-12-0.3-18,0.5c0.5,0.5,1,1,1.5,1.5c1.5-11.7,5.3-23.2,9-34.4
			c2.8-8.5,6.5-16.9,8.7-25.5c1.1-4.2,0-9.2-0.2-13.5c-0.5-10-1.1-20-1.7-29.9c-0.5-8.2-1.1-16.5-1.2-24.8c0-1.9-3-1.9-3,0
			c0.1,17,1.7,34.2,2.7,51.2c0.3,4.7,1.4,11.7,0.7,15.7C80.4-1,79,1.8,78.1,4.5c-1.8,5.2-3.6,10.3-5.3,15.5
			c-4,12.2-8.2,24.8-9.9,37.6c-0.1,0.7,0.8,1.6,1.5,1.5c6-0.8,12-1,18-0.5C84.4,58.8,84.4,55.8,82.5,55.6L82.5,55.6z"/>
	</g>
	<g display="inline">
		<path fill="#1B63AA" d="M122.5,51.4c-6.5-0.6-13,0-19.5-0.6c0.5,0.6,1,1.3,1.4,1.9c4.2-18.8,8.3-37.6,12.1-56.4
			c0.8-3.9,1.6-7.3,1.2-11.3c-0.8-8.2-2-16.3-3.1-24.5c-1.6-11.2-3.2-22.4-5.4-33.5c-0.4-1.9-3.3-1.1-2.9,0.8
			c2.5,12.3,4.2,24.8,5.9,37.2c1,7.5,3.2,16,2.7,23.6c-0.5,8.7-3.6,17.9-5.4,26.4c-2.6,12.3-5.3,24.6-8,36.9c-0.2,1,0.4,1.8,1.4,1.9
			c6.5,0.6,13,0,19.5,0.6C124.4,54.6,124.4,51.6,122.5,51.4L122.5,51.4z"/>
	</g>
</g>
<g id="body_M_00_-_neutre">
	<g>
		<path fill="#1B63AA" d="M82.5,55.6c-6.1-0.5-12-0.3-18,0.5c0.5,0.5,1,1,1.5,1.5c1.5-11.7,5.3-23.2,9-34.4
			c2.8-8.5,6.5-16.9,8.7-25.5c1.1-4.2,0-9.2-0.2-13.5c-0.5-10-1.1-20-1.7-29.9c-0.5-8.2-1.1-16.5-1.2-24.8c0-1.9-3-1.9-3,0
			c0.1,17,1.7,34.2,2.7,51.2c0.3,4.7,1.4,11.7,0.7,15.7C80.4-1,79,1.8,78.1,4.5c-1.8,5.2-3.6,10.3-5.3,15.5
			c-4,12.2-8.2,24.8-9.9,37.6c-0.1,0.7,0.8,1.6,1.5,1.5c6-0.8,12-1,18-0.5C84.4,58.8,84.4,55.8,82.5,55.6L82.5,55.6z"/>
	</g>
	<g>
		<path fill="#1B63AA" d="M122.5,51.4c-6.5-0.6-13,0-19.5-0.6c0.5,0.6,1,1.3,1.4,1.9c4.2-18.8,8.3-37.6,12.1-56.4
			c0.8-3.9,1.6-7.3,1.2-11.3c-0.8-8.2-2-16.3-3.1-24.5c-1.6-11.2-3.2-22.4-5.4-33.5c-0.4-1.9-3.3-1.1-2.9,0.8
			c2.5,12.3,4.2,24.8,5.9,37.2c1,7.5,3.2,16,2.7,23.6c-0.5,8.7-3.6,17.9-5.4,26.4c-2.6,12.3-5.3,24.6-8,36.9c-0.2,1,0.4,1.8,1.4,1.9
			c6.5,0.6,13,0,19.5,0.6C124.4,54.6,124.4,51.6,122.5,51.4L122.5,51.4z"/>
	</g>
</g>
<g id="tenue_F_03" display="none">
	<g display="inline">
		<path fill="#DEF1FC" d="M74.8,49.4c1.2-6.3,2.7-12.5,3.9-18.8c3.2-0.1,5-2.1,3.7-5.2c1.2-1.7,1.3-4.1-0.1-5.8
			c-0.9-1.1-1.7-0.6-2.8-0.5c-3.5,0.4-7.8-0.6-11.1-1.9c-1.7-0.7-3.7-2.7-5.6-2.6c-0.1,0-0.2,0-0.2,0c0,0,0,0-0.1,0c0,0,0,0-0.1,0
			c0,0,0,0-0.1,0c-2.4,1.3-3,4.6-2,7c-0.7,0.3-1.4,1-1.6,1.8c-0.3,1.4,0.4,2.2,1.5,2.8c-0.7,7.1-0.3,14.4-1.6,21.4
			c-0.8,4.1-1.6,8.2-2,12.4c0,0.5,0.4,0.8,0.8,0.8c10.9,1.2,21.9,1.7,32.8,1.5c0.6,0,1.1-0.7,0.7-1.3C87.3,55.6,81.1,51.7,74.8,49.4
			z"/>
		<path fill="#DEF1FC" d="M130,55.7c-2-3.1-4.5-5.9-7.9-7.5c-2.7-1.3-5.6-1.8-8.4-2.6c1.1-5.6,2.4-11.3,3.9-16.8
			c0.3-0.1,0.6-0.2,0.9-0.3c0.7-0.3,1.5-0.7,2-1.3c1.5-1.5,1.5-3.3,0.8-5.1c1.2-1.7,1.3-4.1-0.1-5.8c-1-1.1-1.7-0.6-3-0.4
			c-3.7,0.5-8,0-11.6-0.8c-1.5-0.4-3.3-1.6-4.9-1.5c0,0,0,0-0.1,0c-0.1,0-0.2,0-0.4,0.1c-2.4,1.3-3,4.6-2,7c-0.7,0.3-1.4,1-1.6,1.8
			c-0.3,1.4,0.4,2.2,1.5,2.8c-0.6,5-0.6,10-1,15c-0.4,5.6-2.1,11-2.6,16.6c0,0.5,0.4,0.8,0.8,0.8c11,0.4,21.9-0.4,32.8-0.8
			C129.8,56.9,130.3,56.2,130,55.7z"/>
	</g>
	<path display="inline" fill="#0F63AA" d="M62.4,14.8c-2.8,1.5-3.1,5.7-1.5,8c0.2-0.4,0.5-0.8,0.7-1.3c-1.3-0.1-2.5,0.8-2.8,2
		c-0.4,1.6,0.8,2.5,2.2,3.1c-0.2-0.3-0.4-0.5-0.6-0.8c-0.8,7.3-0.3,14.8-1.7,21.9c-0.8,4.1-1.6,8.2-2,12.4c0,0.5,0.4,0.8,0.8,0.8
		c10.9,1.2,21.9,1.7,32.8,1.5c0.6,0,1.1-0.7,0.7-1.3c-3.9-5.8-10.5-9.8-17-12c0.2,0.3,0.4,0.7,0.6,1c1.3-6.8,2.9-13.5,4.2-20.2
		c-0.3,0.2-0.5,0.4-0.8,0.6c3.8,0.2,6-2.1,4.2-5.7c0,0.3-0.1,0.7-0.1,1c1.5-1.7,1.8-4.4,0.2-6.2c-0.9-1.1-1.7-0.6-2.8-0.5
		c-3.5,0.4-7.8-0.6-11.1-1.9c-1.7-0.7-3.7-2.7-5.6-2.6c-1.1,0-1.1,1.7,0,1.7c1.3,0,3.1,1.7,4.3,2.2c2.6,1.1,5.4,1.7,8.1,2.1
		c1.6,0.2,3.3,0.4,4.9,0.1c0.2,0,0.7-0.3,0.9-0.2c0.1,0,0.3,0.4,0.4,1c0.2,1.2,0.4,2.1-0.6,3.1c-0.3,0.3-0.3,0.7-0.1,1
		c1.3,2.6-0.5,3.4-2.7,3.2c-0.3,0-0.7,0.3-0.8,0.6C75.9,36.3,74.3,43,73,49.8c-0.1,0.5,0.1,0.9,0.6,1c6.1,2,12.4,5.8,16,11.3
		c0.2-0.4,0.5-0.8,0.7-1.3c-11,0.3-21.9-0.2-32.8-1.5c0.3,0.3,0.6,0.6,0.8,0.8c0.4-4.7,1.5-9.3,2.3-13.9c1.1-6.7,0.6-13.7,1.4-20.4
		c0-0.4-0.3-0.7-0.6-0.8c-1.1-1.2-1-1.8,0.2-1.8c0.6,0.1,1.1-0.8,0.7-1.3c-1.1-1.6-1.1-4.7,0.9-5.7C64.2,15.7,63.3,14.3,62.4,14.8z"
		/>
	<path display="inline" fill="#0F63AA" d="M78,28.9c-6,0.3-11.4-0.4-16.5-3.8c-0.9-0.6-1.7,0.8-0.8,1.4c5.3,3.6,11,4.3,17.3,4
		C79.1,30.5,79.1,28.9,78,28.9L78,28.9z"/>
	<path display="inline" fill="#0F63AA" d="M81.6,24.2c-3.9,0.2-7.8,0.2-11.6-0.3c-2.6-0.3-5.9-0.7-7.8-2.6c-0.8-0.7-2,0.4-1.2,1.2
		c2,1.9,4.9,2.5,7.4,2.9c4.4,0.7,8.8,0.7,13.2,0.5C82.6,25.8,82.6,24.1,81.6,24.2L81.6,24.2z"/>
	<path display="inline" fill="#0F63AA" d="M101.3,13.7c-2.8,1.5-3.1,5.7-1.5,8c0.2-0.4,0.5-0.8,0.7-1.3c-1.3-0.1-2.5,0.8-2.8,2
		c-0.4,1.6,0.8,2.5,2.2,3.1c-0.2-0.3-0.4-0.5-0.6-0.8c-0.7,5.1-0.6,10.3-1,15.5c-0.4,5.6-2.1,11-2.6,16.6c0,0.5,0.4,0.8,0.8,0.8
		c11,0.4,21.9-0.4,32.8-0.8c0.6,0,1.1-0.7,0.7-1.3c-2-3.1-4.5-5.9-7.9-7.5c-2.9-1.4-6.1-1.9-9.2-2.9c0.2,0.3,0.4,0.7,0.6,1
		c1.1-5.9,2.5-11.8,4.1-17.6c0.2-0.5-0.9,0.4-0.2,0.1c0.3-0.2,0.7-0.2,1.1-0.4c0.7-0.3,1.5-0.7,2-1.3c1.7-1.6,1.5-3.7,0.5-5.7
		c0,0.3-0.1,0.7-0.1,1c1.5-1.7,1.8-4.4,0.2-6.2c-1-1.1-1.7-0.6-3-0.4c-3.7,0.5-8,0-11.6-0.8c-1.5-0.4-3.3-1.6-4.9-1.5
		c-1.1,0.1-1.1,1.7,0,1.7c1-0.1,2.1,0.7,3,1c2.6,0.8,5.4,1.1,8.1,1.3c1.9,0.1,3.9,0.2,5.8-0.1c0.2,0,1.1-0.3,1.3-0.3
		c1.3,0.6,0.5,3.4-0.1,4.1c-0.3,0.3-0.3,0.7-0.1,1c1.3,2.7-0.4,4.4-3,4.9c-0.3,0.1-0.5,0.3-0.6,0.6c-1.2,6-3,11.9-4.2,18
		c-0.1,0.5,0.1,0.9,0.6,1c2.6,0.8,5.3,1.3,7.9,2.3c3.6,1.4,6.1,4.1,8.2,7.3c0.2-0.4,0.5-0.8,0.7-1.3c-10.9,0.3-21.9,1.1-32.8,0.8
		c0.3,0.3,0.6,0.6,0.8,0.8c0.5-5.6,2.2-11,2.6-16.6c0.4-5.2,0.3-10.3,1-15.5c0.1-0.4-0.3-0.7-0.6-0.8c-1.1-1.2-1-1.8,0.2-1.8
		c0.6,0.1,1.1-0.8,0.7-1.3c-1.1-1.6-1.1-4.7,0.9-5.7C103,14.6,102.2,13.2,101.3,13.7z"/>
	<path display="inline" fill="#0F63AA" d="M116.7,27.3c-2.6,0.6-5.6-0.1-8.2-0.6c-2.7-0.5-5.7-1.2-8.1-2.7c-0.9-0.6-1.7,0.9-0.8,1.4
		c2.7,1.7,6.1,2.4,9.2,3c2.7,0.5,5.7,1,8.3,0.4C118.2,28.7,117.7,27.1,116.7,27.3L116.7,27.3z"/>
	<path display="inline" fill="#0F63AA" d="M120,20.9c-5.6,3.1-13.6,2.1-19.2-0.4c-1-0.4-1.8,1-0.8,1.4c6.1,2.8,14.7,3.8,20.8,0.4
		C121.8,21.9,121,20.4,120,20.9L120,20.9z"/>
</g>
<g id="tenue_F_02" display="none">
	<g display="inline">
		<path fill="#DEF1FB" d="M84.5,53.6c-3.2-1.3-6.6-2.2-10.1-2.6c0.8-7.2,2.7-14.2,4.1-21.3c0.3-1.4,0.4-2.1-1.1-2.5
			c-3.4-0.9-7.5-0.7-11-0.7c-0.5,0-0.7,0.3-0.8,0.6c0,0.1,0,0.1-0.1,0.2c-1.3,10.6-3.2,21.2-4.2,31.9c0,0.5,0.4,0.8,0.8,0.8
			c8.6,0.8,17.1,1.1,25.7,0.8c0.6,0,0.9-0.5,0.8-1.1C88.2,56.6,87.6,54.9,84.5,53.6z M77.2,28.8C77.5,28.9,77.3,29.1,77.2,28.8
			L77.2,28.8z"/>
		<path fill="#DEF1FB" d="M123.6,52.5c-3.2-1.3-6.6-2.2-10.1-2.6c0.8-7.2,2.7-14.2,4.1-21.3c0.3-1.4,0.4-2.1-1.1-2.5
			c-3.4-0.9-7.5-0.7-11-0.7c-0.5,0-0.7,0.3-0.8,0.6c0,0.1,0,0.1-0.1,0.2c-1.3,10.6-3.2,21.2-4.2,31.9c0,0.5,0.4,0.8,0.8,0.8
			c8.6,0.8,17.1,1.1,25.7,0.8c0.6,0,0.9-0.5,0.8-1.1C127.3,55.4,126.7,53.8,123.6,52.5z M116.2,27.7C116.6,27.7,116.4,28,116.2,27.7
			L116.2,27.7z"/>
	</g>
	<g display="inline">
		<path fill="#1163AA" d="M84.5,53.6c-3.2-1.3-6.6-2.2-10.1-2.6c0.8-7.2,2.7-14.2,4.1-21.3c0.3-1.4,0.4-2.1-1.1-2.5
			c-3.4-0.9-7.5-0.7-11-0.7c-0.5,0-0.7,0.3-0.8,0.6c0,0.1,0,0.1-0.1,0.2c-1.3,10.6-3.2,21.2-4.2,31.9c0,0.5,0.4,0.8,0.8,0.8
			c8.6,0.8,17.1,1.1,25.7,0.8c0.6,0,0.9-0.5,0.8-1.1C88.2,56.6,87.6,54.9,84.5,53.6z M77.2,28.8C77.5,28.9,77.3,29.1,77.2,28.8
			L77.2,28.8z M63.2,58.5c1-10.1,2.7-20.2,4-30.2c1.6,0,3.1,0.1,4.7,0.2c1.4,0.1,3.5,0.7,4.9,0.4c0.1,0,0.2,0,0.2,0
			c0,0.1-0.1,0.2-0.1,0.3c-0.4,0.9-0.5,2.1-0.7,3.1c-1.5,6.5-3,13-3.6,19.6c0,0.5,0.4,0.8,0.8,0.8c2.9,0.3,5.7,1,8.5,1.9
			c1,0.3,2.3,0.7,3.2,1.3c1.2,0.8,1.6,2.1,1.8,3.4C79,59.4,71.2,59.2,63.2,58.5z"/>
		<path fill="#1163AA" d="M123.6,52.5c-3.2-1.3-6.6-2.2-10.1-2.6c0.8-7.2,2.7-14.2,4.1-21.3c0.3-1.4,0.4-2.1-1.1-2.5
			c-3.4-0.9-7.5-0.7-11-0.7c-0.5,0-0.7,0.3-0.8,0.6c0,0.1,0,0.1-0.1,0.2c-1.3,10.6-3.2,21.2-4.2,31.9c0,0.5,0.4,0.8,0.8,0.8
			c8.6,0.8,17.1,1.1,25.7,0.8c0.6,0,0.9-0.5,0.8-1.1C127.3,55.4,126.7,53.8,123.6,52.5z M116.2,27.7C116.6,27.7,116.4,28,116.2,27.7
			L116.2,27.7z M102.3,57.3c1-10.1,2.7-20.2,4-30.2c1.6,0,3.1,0.1,4.7,0.2c1.4,0.1,3.5,0.7,4.9,0.4c0.1,0,0.2,0,0.2,0
			c0,0.1-0.1,0.2-0.1,0.3c-0.4,0.9-0.5,2.1-0.7,3.1c-1.5,6.5-3,13-3.6,19.6c0,0.5,0.4,0.8,0.8,0.8c2.9,0.3,5.7,1,8.5,1.9
			c1,0.3,2.3,0.7,3.2,1.3c1.2,0.8,1.6,2.1,1.8,3.4C118.1,58.3,110.3,58.1,102.3,57.3z"/>
	</g>
	<g display="inline">
		<path fill="#1163AA" d="M81.8,54.3c-1.1,0.7-2.3,1-3.6,0.9c0.8-0.5,1.7-0.8,2.6-0.9c0.4,0,0.4-0.6,0-0.6c-1.2,0.2-2.4,0.6-3.4,1.3
			c0,0-0.1,0.1-0.1,0.1c-0.7-0.1-1.5-0.2-2.2-0.4c0.7-0.8,1.7-1.4,2.8-1.5c0.4-0.1,0.2-0.6-0.2-0.5c-1.3,0.2-2.4,0.9-3.2,1.9
			c-0.7-0.2-1.4-0.4-2.1-0.5c0,0-0.1,0-0.1,0c0.6-0.7,1.4-1.3,2.4-1.6c0.3-0.1,0.2-0.7-0.2-0.5c-1.1,0.4-2.1,1.1-2.8,2
			c-0.9-0.2-1.8-0.6-1.8-1.7c0-0.1,0-0.2,0-0.3c0.8-0.5,2.1-0.5,2.9,0c0.3,0.2,0.6-0.3,0.3-0.5c-0.9-0.5-2.2-0.6-3.2-0.1
			c0-0.8,0.1-1.6,0.3-2.4c0,0,0.1,0,0.1,0c0.9-0.3,1.7-0.2,2.5,0.3c0.3,0.2,0.6-0.3,0.3-0.5c-0.8-0.5-1.8-0.7-2.8-0.4
			c0.1-0.7,0.2-1.4,0.4-2.2c1-0.3,2.1,0,3,0.4c0.3,0.2,0.6-0.3,0.3-0.5c-0.9-0.5-2.1-0.7-3.2-0.5c0.2-0.9,0.3-1.8,0.5-2.6
			c0.9-0.3,1.9-0.3,2.7,0.4c0.3,0.2,0.7-0.2,0.4-0.4c-0.9-0.7-1.9-0.8-2.9-0.6c0.2-0.9,0.3-1.7,0.5-2.6c0.9-0.5,2.1,0,2.8,0.6
			c0.3,0.2,0.6-0.3,0.3-0.5c-0.8-0.6-2-1.1-3-0.8c0.1-0.7,0.3-1.4,0.4-2c0.9-0.6,1.8-0.2,2.7,0.1c0.3,0.1,0.5-0.4,0.2-0.5
			c-0.9-0.3-1.8-0.6-2.7-0.3c0-0.1,0-0.1,0-0.2c0.4-0.4,0.8-1,1.1-1.5c0.5-0.8,1-1.6,1.6-2.5c0.8,1.6,1.6,3.7,3,4.9
			c0.7,0.6,2.1,0.7,2.6-0.3c0.6-1.1-0.6-2.9-1.4-3.6c-1.1-1.1-2.5-1.8-4-1.8c0,0,0,0,0,0c0,0-0.1-0.1-0.1-0.1
			c-0.6-0.2-1.2-0.1-1.7,0.1c0.2-0.9,0.4-1.7,0.6-2.6c0.1-0.4-0.5-0.5-0.5-0.2c-0.2,1-0.4,2-0.7,3c-0.4,0.2-0.7,0.5-1,0.8
			c-0.7,0.7-2,2.3-1.6,3.4c0.3,0.8,0.9,1,1.5,0.8c-0.2,0.9-0.4,1.8-0.6,2.7c0,0,0,0.1,0,0.1c-0.1,0.7-0.3,1.3-0.4,2
			c-0.7,3.2-1.6,6.5-1.7,9.8c0,0.7-0.1,1.8,0.4,2.4c0.7,0.7,2.2,0.9,3.1,1.1c3,0.7,6.4,2,9.2,0C82.4,54.6,82.1,54.1,81.8,54.3z
			 M78.8,33.2c0.3,0.3,0.7,0.6,0.9,1c0.3,0.5,1.1,1.7,0.7,2.3c-0.4,0.6-1.4,0.4-1.8,0c-0.4-0.4-0.7-0.9-1-1.4
			c-0.6-1-1.1-2.1-1.7-3.2C77,32,77.9,32.5,78.8,33.2z M74.9,31.8c-0.5,0.8-1,1.6-1.5,2.4c-0.1,0.1-0.2,0.4-0.4,0.7
			c0.2-0.9,0.4-1.9,0.6-2.8C74,31.8,74.4,31.7,74.9,31.8z M71.1,35.6c-0.2-0.9,0.7-2.1,1.3-2.7c0.1-0.1,0.3-0.3,0.5-0.4
			c-0.2,1.1-0.5,2.2-0.7,3.3C71.8,36.2,71.3,36.3,71.1,35.6z"/>
		<path fill="#1163AA" d="M120.9,52.6c-1.1,0.7-2.3,1-3.6,0.9c0.8-0.5,1.7-0.8,2.6-0.9c0.4,0,0.4-0.6,0-0.6
			c-1.2,0.2-2.4,0.6-3.4,1.3c0,0-0.1,0.1-0.1,0.1c-0.7-0.1-1.5-0.2-2.2-0.4c0.7-0.8,1.7-1.4,2.8-1.5c0.4-0.1,0.2-0.6-0.2-0.5
			c-1.3,0.2-2.4,0.9-3.2,1.9c-0.7-0.2-1.4-0.4-2.1-0.5c0,0-0.1,0-0.1,0c0.6-0.7,1.4-1.3,2.4-1.6c0.3-0.1,0.2-0.7-0.2-0.5
			c-1.1,0.4-2.1,1.1-2.8,2c-0.9-0.2-1.8-0.6-1.8-1.7c0-0.1,0-0.2,0-0.3c0.8-0.5,2.1-0.5,2.9,0c0.3,0.2,0.6-0.3,0.3-0.5
			c-0.9-0.5-2.2-0.6-3.2-0.1c0-0.8,0.1-1.6,0.3-2.4c0,0,0.1,0,0.1,0c0.9-0.3,1.7-0.2,2.5,0.3c0.3,0.2,0.6-0.3,0.3-0.5
			c-0.8-0.5-1.8-0.7-2.8-0.4c0.1-0.7,0.2-1.4,0.4-2.2c1-0.3,2.1,0,3,0.4c0.3,0.2,0.6-0.3,0.3-0.5c-0.9-0.5-2.1-0.7-3.2-0.5
			c0.2-0.9,0.3-1.8,0.5-2.6c0.9-0.3,1.9-0.3,2.7,0.4c0.3,0.2,0.7-0.2,0.4-0.4c-0.9-0.7-1.9-0.8-2.9-0.6c0.2-0.9,0.3-1.7,0.5-2.6
			c0.9-0.5,2.1,0,2.8,0.6c0.3,0.2,0.6-0.3,0.3-0.5c-0.8-0.6-2-1.1-3-0.8c0.1-0.7,0.3-1.4,0.4-2c0.9-0.6,1.8-0.2,2.7,0.1
			c0.3,0.1,0.5-0.4,0.2-0.5c-0.9-0.3-1.8-0.6-2.7-0.3c0-0.1,0-0.1,0-0.2c0.4-0.4,0.8-1,1.1-1.5c0.5-0.8,1-1.6,1.6-2.5
			c0.8,1.6,1.6,3.7,3,4.9c0.7,0.6,2.1,0.7,2.6-0.3c0.6-1.1-0.6-2.9-1.4-3.6c-1.1-1.1-2.5-1.8-4-1.8c0,0,0,0,0,0c0,0-0.1-0.1-0.1-0.1
			c-0.6-0.2-1.2-0.1-1.7,0.1c0.2-0.9,0.4-1.7,0.6-2.6c0.1-0.4-0.5-0.5-0.5-0.2c-0.2,1-0.4,2-0.7,3c-0.4,0.2-0.7,0.5-1,0.8
			c-0.7,0.7-2,2.3-1.6,3.4c0.3,0.8,0.9,1,1.5,0.8c-0.2,0.9-0.4,1.8-0.6,2.7c0,0,0,0.1,0,0.1c-0.1,0.7-0.3,1.3-0.4,2
			c-0.7,3.2-1.6,6.5-1.7,9.8c0,0.7-0.1,1.8,0.4,2.4c0.7,0.7,2.2,0.9,3.1,1.1c3,0.7,6.4,2,9.2,0C121.4,52.9,121.2,52.4,120.9,52.6z
			 M117.9,31.5c0.3,0.3,0.7,0.6,0.9,1c0.3,0.5,1.1,1.7,0.7,2.3c-0.4,0.6-1.4,0.4-1.8,0c-0.4-0.4-0.7-0.9-1-1.4
			c-0.6-1-1.1-2.1-1.7-3.2C116,30.3,117,30.8,117.9,31.5z M114,30.1c-0.5,0.8-1,1.6-1.5,2.4c-0.1,0.1-0.2,0.4-0.4,0.7
			c0.2-0.9,0.4-1.9,0.6-2.8C113.1,30.1,113.5,30,114,30.1z M110.2,33.9c-0.2-0.9,0.7-2.1,1.3-2.7c0.1-0.1,0.3-0.3,0.5-0.4
			c-0.2,1.1-0.5,2.2-0.7,3.3C110.8,34.5,110.4,34.6,110.2,33.9z"/>
	</g>
</g>
<g id="tenue_F_01" display="none">
	<g display="inline">
		<path fill="#DEF1FC" d="M73.2,48c-0.2-0.1-0.3-0.3-0.5-0.4c-0.3-0.3-0.9-0.3-1.2,0c-2.2,2.2-9.4,3.8-11.6,0.8
			c-0.1-0.1-0.2-0.2-0.3-0.3c-0.2-0.1-0.5-0.2-0.8,0c-1.4,0.7-1.9,2.9-2.3,4.3c-0.6,2.2-1,4.6-1.1,6.9c0,0.5,0.4,0.8,0.8,0.8
			c8.1,0.3,16.3,0.6,24.4,0.5c3.5,0,7-0.1,10.5-0.3c1.2-0.1,4,0.3,5-0.4c1.1-0.7,0.5-2.7,0.3-3.7c-0.3-1.8-0.8-4.1-2.8-4.7
			c-2.8-0.9-6.4,0.4-9.3,0.1c-2.2-0.2-5.1-0.7-7.6-1.6L73.2,48z"/>
		<path fill="#DEF1FC" d="M112.5,43.6c-0.2-0.1-0.3-0.3-0.5-0.5c-0.3-0.3-0.9-0.3-1.2,0c-2,2.2-8.3,3.8-10.3,0.8
			c-0.1-0.1-0.2-0.2-0.3-0.3c-0.2-0.1-0.5-0.2-0.8,0c-1.4,0.7-1.7,2.9-2.1,4.3c-0.5,2.2-0.9,4.6-0.9,6.9c0,0.5,0.4,0.8,0.8,0.8
			c7.5,0.3,15,0.6,22.5,0.5c3.2-0.1,6.4-0.2,9.6-0.3c0.9-0.1,3.2,0.2,3.9-0.5c0.9-0.8,0.2-3.1,0-4.1c-0.3-1.6-0.7-3.6-2.5-4.2
			c-2.5-0.8-5.7,0.4-8.3,0.1c-1.8-0.2-4.3-0.7-6.5-1.6L112.5,43.6z M114,42.1"/>
	</g>
	<g display="inline">
		<path fill="#0F63AA" d="M93.7,51.4c-2.8-0.9-6.4,0.4-9.3,0.1c-2.2-0.2-5.1-0.7-7.6-1.6c1.7-0.6,3.3-1.4,4.8-2.3
			c1.1-0.7,3.6-2.3,2.8-4c-1.2-2.4-4.9,0.1-7.6,2.5c0.9-2.6,1.4-5.5-0.5-6.3c-1.7-0.7-3.1,0.9-3.4,2.4c-0.4,1.9,0,3.9,0.3,5.8
			c-0.2-0.1-0.3-0.3-0.5-0.4c-0.3-0.3-0.9-0.3-1.2,0c-2.2,2.2-9.4,3.8-11.6,0.8c-0.1-0.1-0.2-0.2-0.3-0.3c-0.2-0.1-0.5-0.2-0.8,0
			c-1.4,0.7-1.9,2.9-2.3,4.3c-0.6,2.2-1,4.6-1.1,6.9c0,0.5,0.4,0.8,0.8,0.8c8.1,0.3,16.3,0.6,24.4,0.5c3.5,0,7-0.1,10.5-0.3
			c1.2-0.1,4,0.3,5-0.4c1.1-0.7,0.5-2.7,0.3-3.7C96.2,54.2,95.7,52,93.7,51.4z M81.2,44.9c0.4-0.2,1.6-0.5,1.6-0.7
			c0.1,1.1-3.2,2.6-3.9,2.9c-0.5,0.3-1.1,0.5-1.7,0.7c0.6-0.5,1.2-1,1.8-1.5C79.6,45.8,80.4,45.3,81.2,44.9z M75.6,41.4
			c0.6,0.5-0.4,3.4-0.6,4c-0.1,0.4-0.2,0.7-0.4,1.1c-0.1-0.6-0.2-1.2-0.2-1.8C74.4,44.3,74.4,40.3,75.6,41.4z M57.1,58.4
			c0.1-1.5,0.3-2.9,0.6-4.4c0.2-1,0.5-3,1.3-4.1c3.1,3,9.9,1.8,13.1-0.6c0.5,0.4,1.1,0.7,1.7,0.9c0.1,0.1,0.2,0.1,0.3,0.1
			c1.8,0.8,3.8,1.3,5.6,1.8c2.8,0.7,5.4,1.1,8.3,1c1.3-0.1,2.7-0.4,4-0.3c1.8,0.1,2.2,0.9,2.6,2.5c0.2,0.9,0.2,1.9,0.4,2.9
			c-0.2,0-0.5,0-0.7,0C82,59.3,69.5,58.8,57.1,58.4z"/>
		<path fill="#0F63AA" d="M130.8,46.9c-2.5-0.8-5.7,0.4-8.3,0.1c-1.8-0.2-4.3-0.7-6.5-1.6c1.7-0.6,3.4-1.4,5-2.3
			c1.1-0.7,3.6-2.3,2.8-4c-1.2-2.4-4.9,0.1-7.6,2.5c0.9-2.6,1.4-5.5-0.5-6.3c-1.7-0.7-3.1,0.9-3.4,2.4c-0.4,1.9,0,3.9,0.3,5.9
			c-0.2-0.1-0.3-0.3-0.5-0.5c-0.3-0.3-0.9-0.3-1.2,0c-2,2.2-8.3,3.8-10.3,0.8c-0.1-0.1-0.2-0.2-0.3-0.3c-0.2-0.1-0.5-0.2-0.8,0
			c-1.4,0.7-1.7,2.9-2.1,4.3c-0.5,2.2-0.9,4.6-0.9,6.9c0,0.5,0.4,0.8,0.8,0.8c7.5,0.3,15,0.6,22.5,0.5c3.2-0.1,6.4-0.2,9.6-0.3
			c0.9-0.1,3.2,0.2,3.9-0.5c0.9-0.8,0.2-3.1,0-4.1C132.9,49.5,132.5,47.5,130.8,46.9z M120.5,40.5c0.4-0.2,1.6-0.5,1.6-0.7
			c0.1,1.1-3.2,2.6-3.9,2.9c-0.5,0.3-1.1,0.5-1.7,0.7c0.6-0.5,1.2-1,1.8-1.5C119,41.4,119.7,40.9,120.5,40.5z M115,37
			c0.6,0.5-0.4,3.4-0.6,4c-0.1,0.4-0.2,0.7-0.4,1.1c-0.1-0.6-0.2-1.2-0.2-1.8C113.7,39.8,113.7,35.9,115,37z M125.6,54.2
			c-2.8,0.1-5.6,0.2-8.4,0.2c-6.4,0-12.8-0.2-19.1-0.5c0.1-1.5,0.3-2.9,0.6-4.4c0.2-0.9,0.4-2.9,1-4c2.8,2.8,8.8,1.7,11.7-0.6
			c1.8,1.3,4.3,2,6.4,2.7c2.4,0.7,4.8,1.2,7.3,1.1c2.4-0.1,5.4-1.4,6.2,1.7c0.3,1,0.2,2,0.5,3c0,0.1,0,0.2,0,0.4c0,0-0.1,0-0.1,0
			C130.1,53.4,127.3,54.1,125.6,54.2z"/>
	</g>
</g>
<g id="tenue_H_03">
	<g>
		<g>
			<path fill="#DEF0FA" d="M86.9,58.1c-0.8-0.3-2-0.4-3.1-0.3c-0.2-0.5-0.5-0.9-0.8-1.3c0,0,0,0,0-0.1c-1-2.2-5.3-7.5-7.6-4
				c-0.6,0.9,0.8,1.7,1.4,0.8c0.6-0.9,1.8,0,2.9,1.2c-0.9-0.3-1.9-0.4-2.8-0.5c-3-0.2-5.5,1.6-7,4.1c-4,0.1-8,0.1-12.1,0
				c-0.2,0-0.4,0.1-0.5,0.2c-1.3,0.7-3.2,2.7-1.1,3.6c1.1,0.5,3,0.2,4.2,0.2c5.5,0.1,11.1,0.1,16.6,0c2.4,0,4.8,0,7.2-0.1
				c0.8,0,2.2,0.2,2.9-0.3C88.1,60.9,88.2,58.6,86.9,58.1z M76.7,55.7c1.9,0.1,4,0.7,5.2,2.2c-0.3,0-0.6,0-0.9,0
				c-3.1,0-6.2,0.1-9.3,0.2C72.9,56.5,74.6,55.5,76.7,55.7z"/>
			<path fill="#DEF0FA" d="M126.5,53.7c-0.8-0.3-2-0.4-3.1-0.3c-0.2-0.5-0.5-0.9-0.8-1.3c0,0,0,0,0-0.1c-1-2.2-5.3-7.5-7.6-4
				c-0.6,0.9,0.8,1.7,1.4,0.8c0.6-0.9,1.8,0,2.9,1.2c-0.9-0.3-1.9-0.4-2.8-0.5c-3-0.2-5.5,1.6-7,4.1c-4,0.1-8,0.1-12.1,0
				c-0.2,0-0.4,0.1-0.5,0.2c-1.3,0.7-3.2,2.7-1.1,3.6c1.1,0.5,3,0.2,4.2,0.2c5.5,0.1,11.1,0.1,16.6,0c2.4,0,4.8,0,7.2-0.1
				c0.8,0,2.2,0.2,2.9-0.3C127.8,56.5,127.9,54.2,126.5,53.7z M116.4,51.3c1.9,0.1,4,0.7,5.2,2.2c-0.3,0-0.6,0-0.9,0
				c-3.1,0-6.2,0.1-9.3,0.2C112.6,52.1,114.3,51.2,116.4,51.3z"/>
		</g>
		<g>
			<path fill="#1563AB" d="M86.9,58.1c-0.8-0.3-2-0.4-3.1-0.3c-0.2-0.5-0.5-0.9-0.8-1.3c0,0,0,0,0-0.1c-1-2.2-5.3-7.5-7.6-4
				c-0.6,0.9,0.8,1.7,1.4,0.8c0.6-0.9,1.8,0,2.9,1.2c-0.9-0.3-1.9-0.4-2.8-0.5c-3-0.2-5.5,1.6-7,4.1c-4,0.1-8,0.1-12.1,0
				c-0.2,0-0.4,0.1-0.5,0.2c-1.3,0.7-3.2,2.7-1.1,3.6c1.1,0.5,3,0.2,4.2,0.2c5.5,0.1,11.1,0.1,16.6,0c2.4,0,4.8,0,7.2-0.1
				c0.8,0,2.2,0.2,2.9-0.3C88.1,60.9,88.2,58.6,86.9,58.1z M76.7,55.7c1.9,0.1,4,0.7,5.2,2.2c-0.3,0-0.6,0-0.9,0
				c-3.1,0-6.2,0.1-9.3,0.2C72.9,56.5,74.6,55.5,76.7,55.7z M84.3,60.3c-1.7,0.1-3.5,0.1-5.2,0.1c-4.4,0.1-8.9,0.1-13.4,0
				c-2.2,0-4.3,0-6.5-0.1c-0.7,0-1.4,0-2-0.1c-1.1-0.1-1.4,0.3,0.6-0.6c5.3,0.2,10.6,0,16-0.1c2.6,0,5.2-0.1,7.8-0.1
				c0.8,0,4.2-0.5,4.8,0.1C87,60.3,84.7,60.2,84.3,60.3z"/>
			<path fill="#1563AB" d="M126.5,53.7c-0.8-0.3-2-0.4-3.1-0.3c-0.2-0.5-0.5-0.9-0.8-1.3c0,0,0,0,0-0.1c-1-2.2-5.3-7.5-7.6-4
				c-0.6,0.9,0.8,1.7,1.4,0.8c0.6-0.9,1.8,0,2.9,1.2c-0.9-0.3-1.9-0.4-2.8-0.5c-3-0.2-5.5,1.6-7,4.1c-4,0.1-8,0.1-12.1,0
				c-0.2,0-0.4,0.1-0.5,0.2c-1.3,0.7-3.2,2.7-1.1,3.6c1.1,0.5,3,0.2,4.2,0.2c5.5,0.1,11.1,0.1,16.6,0c2.4,0,4.8,0,7.2-0.1
				c0.8,0,2.2,0.2,2.9-0.3C127.8,56.5,127.9,54.2,126.5,53.7z M116.4,51.3c1.9,0.1,4,0.7,5.2,2.2c-0.3,0-0.6,0-0.9,0
				c-3.1,0-6.2,0.1-9.3,0.2C112.6,52.1,114.3,51.2,116.4,51.3z M124,55.9c-1.7,0.1-3.5,0.1-5.2,0.1c-4.4,0.1-8.9,0.1-13.4,0
				c-2.2,0-4.3,0-6.5-0.1c-0.7,0-1.4,0-2-0.1c-1.1-0.1-1.4,0.3,0.6-0.6c5.3,0.2,10.6,0,16-0.1c2.6,0,5.2-0.1,7.8-0.1
				c0.8,0,4.2-0.5,4.8,0.1C126.7,55.9,124.4,55.9,124,55.9z"/>
		</g>
	</g>
</g>
<g id="tenue_H_02" display="none">
	<g display="inline">
		<g>
			<path fill="#DEF0FA" d="M90.2,50.7c-4.6-1.6-9.5-2.4-14.3-2.9c0.6-4.2,1.8-8.4,2.9-12.4c0.8-2.9,2.3-5.9,2.6-8.9
				c0.2-1.7-1-1.7-2.5-1.8c-4.4-0.4-8.8-0.5-13.2-0.6c0,0-0.1,0-0.1,0c-0.3,0-0.6,0.2-0.7,0.6C63,36,60.8,47.2,59.4,58.5
				c-0.1,0.5,0.4,0.8,0.8,0.8c11.2,0.8,22.3,1,33.6,0.8c0.4,0,0.8-0.4,0.8-0.8C94.6,55.6,93.9,51.9,90.2,50.7z"/>
			<path fill="#DEF0FA" d="M128.8,54.5c0-0.2,0-0.4-0.1-0.6c-0.2-1-0.6-1.9-1.2-2.6c-0.9-1.1-2.4-1.3-3.7-1.6
				c-4.2-0.9-8.5-1.5-12.8-1.8c0.6-3.2,1.5-6.4,2.5-9.5c0.6-1.9,2.1-4.4,2-6.4c0-1.3-0.9-1.3-2.1-1.4c-3.6-0.4-7.2-0.4-10.8-0.4
				c0,0-0.1,0-0.1,0c-0.3,0-0.6,0.2-0.7,0.6c-1.4,7.5-2.9,15-4,22.5c-0.1,0.2-0.2,0.5-0.1,0.7c-0.1,0.7-0.2,1.4-0.3,2.1
				c-0.1,0.5,0.4,0.8,0.8,0.8c10,0.7,19.9,0.8,29.9,0.6c0.4,0,0.8-0.4,0.8-0.8C128.9,55.9,128.9,55.2,128.8,54.5z M113.9,31.8
				C113.7,31.7,113.9,31.6,113.9,31.8L113.9,31.8z"/>
		</g>
		<g>
			<path fill="#1563AB" d="M90.2,50.7c-4.6-1.6-9.5-2.4-14.3-2.9c0.6-4.2,1.8-8.4,2.9-12.4c0.8-2.9,2.3-5.9,2.6-8.9
				c0.2-1.7-1-1.7-2.5-1.8c-4.4-0.4-8.8-0.5-13.2-0.6c0,0-0.1,0-0.1,0c-0.3,0-0.6,0.2-0.7,0.6C63,36,60.8,47.2,59.4,58.5
				c-0.1,0.5,0.4,0.8,0.8,0.8c11.2,0.8,22.3,1,33.6,0.8c0.4,0,0.8-0.4,0.8-0.8C94.6,55.6,93.9,51.9,90.2,50.7z M79.6,26.4
				C79.6,26.4,79.6,26.4,79.6,26.4c-0.1,0.7-0.3,1.4-0.5,2c-2,6.6-4.1,13.3-5.1,20.1c-0.1,0.5,0.4,0.8,0.8,0.8
				c4.2,0.3,8.4,1.1,12.4,2.2c1.4,0.4,3.4,0.7,4.3,1.9c0.6,0.7,0.9,1.8,1.1,2.9c-10.4,0.4-20.9-0.2-31.3-0.9
				c1.3-9.9,3.3-19.8,4.9-29.7c3.7,0.1,7.5,0.2,11.2,0.5C78.1,26.2,79.1,26.5,79.6,26.4z M61.2,57.8c0-0.2,0.1-0.5,0.1-0.7
				c10.5,0.6,21.2,1.3,31.7,0.9c0,0.2,0,0.4,0,0.6C82.3,58.7,71.8,58.5,61.2,57.8z"/>
			<path fill="#1563AB" d="M128.8,54.5c0-0.2,0-0.4-0.1-0.6c-0.2-1-0.6-1.9-1.2-2.6c-0.9-1.1-2.4-1.3-3.7-1.6
				c-4.2-0.9-8.5-1.5-12.8-1.8c0.6-3.2,1.5-6.4,2.5-9.5c0.6-1.9,2.1-4.4,2-6.4c0-1.3-0.9-1.3-2.1-1.4c-3.6-0.4-7.2-0.4-10.8-0.4
				c0,0-0.1,0-0.1,0c-0.3,0-0.6,0.2-0.7,0.6c-1.4,7.5-2.9,15-4,22.5c-0.1,0.2-0.2,0.5-0.1,0.7c-0.1,0.7-0.2,1.4-0.3,2.1
				c-0.1,0.5,0.4,0.8,0.8,0.8c10,0.7,19.9,0.8,29.9,0.6c0.4,0,0.8-0.4,0.8-0.8C128.9,55.9,128.9,55.2,128.8,54.5z M113.9,31.8
				C113.7,31.7,113.9,31.6,113.9,31.8L113.9,31.8z M113.4,32.2c0,0,0.1,0,0.3,0c-0.1,0.3-0.2,0.7-0.3,0.9c-1.6,5-3.4,10-4.2,15.2
				c-0.1,0.6,0.2,1,0.8,1c3.6,0.2,7.2,0.7,10.8,1.4c1.3,0.2,2.7,0.4,3.9,0.8c1.1,0.4,1.7,1.1,2.1,2c-9.1,0.3-18.3-0.1-27.4-0.6
				c1.1-7.1,2.5-14.1,3.8-21.2c2.8,0,5.6,0.1,8.5,0.3C112.3,32.1,112.9,32.3,113.4,32.2z M99.1,55.2c0-0.2,0.1-0.4,0.1-0.7
				c9.3,0.5,18.7,1,28,0.6c0,0.2,0,0.4,0.1,0.5C117.8,56,108.5,55.8,99.1,55.2z"/>
		</g>
	</g>
</g>
<g id="tenue_H_01" display="none">
	<g display="inline">
		<g>
			<path fill="#DEF0FA" d="M134.1,50.4c-0.4-1.7-0.9-3.2-2.7-3.6c-2.6-0.6-5.5,0.4-8.2,0.1c-2.9-0.4-7.6-1.3-9.8-3.5
				c-0.3-0.3-0.9-0.3-1.2,0c-0.5,0.5-1.2,0.9-2.1,1.3c0.7-5.6,1.9-11,3.5-16.4c0.2-0.5-0.3-1-0.8-1c-2.7-0.1-5.3-0.5-8-1
				c-0.6-0.1-1,0.2-1,0.8c-0.7,5.5-1.5,11.1-2.2,16.6c-0.2,0-0.3,0-0.5,0.1c0,0,0,0,0,0c-0.1,0-0.2,0.1-0.2,0.2
				c-2.4,1.7-2.7,7.5-2.7,10.1c0,0.5,0.4,0.8,0.8,0.8c7.4,0.3,14.8,0.6,22.1,0.4c3-0.1,6-0.1,9-0.3c0.8,0,3.3,0.2,4-0.5
				C135,53.7,134.4,51.3,134.1,50.4z"/>
		</g>
		<g>
			<path fill="#1563AB" d="M134.1,50.4c-0.4-1.7-0.9-3.2-2.7-3.6c-2-0.4-4.3,0.1-6.4,0.2c0.2-1.8-3.9-2.6-7.1-3
				c1.5-1,2.7-2.3,1.2-3.7c-2.9-2.7-4.4,1.3-5.1,3.6c-0.2-0.1-0.4-0.3-0.5-0.5c-0.3-0.3-0.9-0.3-1.2,0c-0.5,0.5-1.2,0.9-2.1,1.3
				c0.7-5.6,1.9-11,3.5-16.4c0.2-0.5-0.3-1-0.8-1c-2.7-0.1-5.3-0.5-8-1c-0.6-0.1-1,0.2-1,0.8c-0.7,5.5-1.5,11.1-2.2,16.6
				c-0.2,0-0.3,0-0.5,0.1c0,0,0,0,0,0c-0.1,0-0.2,0.1-0.2,0.2c-2.4,1.7-2.7,7.5-2.7,10.1c0,0.5,0.4,0.8,0.8,0.8
				c7.4,0.3,14.8,0.6,22.1,0.4c3-0.1,6-0.1,9-0.3c0.8,0,3.3,0.2,4-0.5C135,53.7,134.4,51.3,134.1,50.4z M118.1,41.5
				c0.2,0.5-1.1,1.2-2.2,1.7c0-0.1,0.1-0.3,0.1-0.4C116.2,42.3,117.6,39.9,118.1,41.5z M103.2,44.9c0.4-3,0.8-6,1.2-8.9
				c1.6,0.9,3.6,1,5.5,1c-0.6,2.7-1,5.5-1.3,8.3C106.6,45.7,104.6,45.7,103.2,44.9z M110.2,35.3c-1.8-0.1-4.2,0-5.6-1.3
				c0.1-0.4,0.1-0.9,0.2-1.3c1,0.5,2,0.7,3,0.8c0.9,0.1,1.8,0.2,2.7,0.1C110.5,34.2,110.3,34.7,110.2,35.3z M111.1,31.8
				c-0.1,0-0.1,0-0.2,0.1c-0.7,0.4-2.3,0.1-3.1,0c-1-0.1-1.9-0.4-2.7-0.9c0.1-1,0.3-2,0.4-2.9c2.1,0.4,4.3,0.6,6.4,0.8
				C111.6,29.8,111.3,30.8,111.1,31.8z M132.7,53.1c-1.6-0.4-4.3,0.2-6,0.3c-2.7,0.1-5.4,0.2-8,0.2c-6.2,0-12.5-0.2-18.7-0.4
				c0.1-2.1,0.4-6.1,1.6-7.6c0.1,0.2,0.3,0.3,0.4,0.3c2.9,2.1,8.2,1,10.9-1.1c1.6,1.3,3.6,1.8,5.5,2.4c2.3,0.7,4.6,1.3,7,1.3
				c2,0,5.6-1.2,6.7,0.9c0.6,1,0.2,2.4,0.6,3.4c0,0.1,0,0.2,0,0.3C132.8,53.2,132.7,53.2,132.7,53.1z"/>
		</g>
	</g>
	<path display="inline" fill="#DEF0FA" d="M96.5,51.6c-2.8-0.9-6.4,0.4-9.3,0.1c-3.5-0.4-9-1.4-11.6-3.9c-0.3-0.3-0.8-0.3-1.2,0
		c-0.6,0.6-1.5,1.1-2.6,1.5c0.8-6.1,2.2-12.2,4.1-18.1c0.2-0.5-0.3-1-0.8-1c-3.1-0.2-6.1-0.5-9.2-1.1c-0.4-0.1-1,0.1-1,0.6
		c-0.9,6.2-1.7,12.3-2.6,18.5c-0.2-0.1-0.4,0-0.6,0.1c-1.4,0.7-1.9,2.9-2.3,4.3c-0.6,2.2-1,4.6-1.1,6.8c0,0.5,0.4,0.8,0.8,0.8
		c8.1,0.3,16.2,0.6,24.3,0.5c3.5,0,7-0.1,10.5-0.3c1.1-0.1,4,0.3,5-0.4c1.1-0.7,0.5-2.7,0.3-3.7C99,54.5,98.5,52.2,96.5,51.6z"/>
	<path display="inline" fill="#1563AB" d="M96.5,51.6c-2.3-0.7-5.2,0.1-7.8,0.1c0.4-2.1-4.5-3-8.1-3.3c1.7-1,3.1-2.4,1.6-3.9
		c-1-1-2.7-1.3-3.8-0.4c-1.3,1-1.6,2.8-2.1,4.3c-0.3-0.2-0.5-0.4-0.7-0.6c-0.3-0.3-0.8-0.3-1.2,0c-0.6,0.6-1.5,1.1-2.6,1.5
		c0.8-6.1,2.2-12.2,4.1-18.1c0.2-0.5-0.3-1-0.8-1c-3.1-0.2-6.1-0.5-9.2-1.1c-0.4-0.1-1,0.1-1,0.6c-0.9,6.2-1.7,12.3-2.6,18.5
		c-0.2-0.1-0.4,0-0.6,0.1c-1.4,0.7-1.9,2.9-2.3,4.3c-0.6,2.2-1,4.6-1.1,6.8c0,0.5,0.4,0.8,0.8,0.8c8.1,0.3,16.2,0.6,24.3,0.5
		c3.5,0,7-0.1,10.5-0.3c1.1-0.1,4,0.3,5-0.4c1.1-0.7,0.5-2.7,0.3-3.7C99,54.5,98.5,52.2,96.5,51.6z M85.3,51
		C85.3,51,85.3,51,85.3,51c-0.7-0.1-1.3-0.3-2-0.5c0.6,0.1,1.3,0.3,1.9,0.5C85.2,50.9,85.3,51,85.3,51z M78.6,46.9
		c0.1-0.4,0.3-0.9,0.6-1.2c0.4-0.4,1.7-0.9,1.8,0.1c0.1,0.7-1.4,1.5-2.6,1.9C78.4,47.4,78.5,47.2,78.6,46.9z M63.8,49.5
		c0.5-3.3,0.9-6.6,1.4-10c1.8,1.1,4.3,1.2,6.4,1.2c-0.7,3-1.2,6.1-1.6,9.2C67.9,50.4,65.4,50.4,63.8,49.5z M72,39.1
		c-2.1-0.1-4.9,0.1-6.6-1.4c0.1-0.5,0.2-1.1,0.2-1.6c1.1,0.5,2.3,0.8,3.6,1c1,0.1,2.2,0.2,3.3,0.1C72.3,37.7,72.2,38.4,72,39.1z
		 M73,35.2c-0.1,0-0.1,0-0.2,0.1c-0.9,0.4-2.7,0.2-3.6,0.1c-1.2-0.1-2.2-0.5-3.2-1c0.2-1.1,0.3-2.2,0.5-3.3c2.5,0.4,5,0.7,7.6,0.9
		C73.6,32.9,73.3,34.1,73,35.2z M60.1,58.6c0.1-1.5,0.3-2.9,0.6-4.3c0.2-1,0.5-3,1.2-4c3.1,3,9.9,1.8,13.1-0.6
		c2.1,1.4,5,2.2,7.6,2.9c2.8,0.7,5.4,1.1,8.3,1c1.3-0.1,2.7-0.4,4-0.3c1.8,0.1,2.2,0.9,2.6,2.5c0.2,0.9,0.2,1.9,0.4,2.8
		c-0.2,0-0.5,0-0.7,0C84.9,59.5,72.4,59,60.1,58.6z"/>
</g>
<g id="test" display="none">
</g>
<g id="test_2" display="none">
</g>
</svg>
