<?xml version="1.0" standalone="no"?>
<!DOCTYPE svg PUBLIC "-//W3C//DTD SVG 1.1//EN" "http://www.w3.org/Graphics/SVG/1.1/DTD/svg11.dtd" >
<svg xmlns="http://www.w3.org/2000/svg">
<metadata>Generated by IcoMoon</metadata>
<defs>
<font id="icomoon" horiz-adv-x="1024">
<font-face units-per-em="1024" ascent="960" descent="-64" />
<missing-glyph horiz-adv-x="1024" />
<glyph unicode="&#x20;" horiz-adv-x="512" d="" />
<glyph unicode="&#xe600;" glyph-name="arrow_back" d="M928 515.2h-678.4l182.4 188.8c25.6 25.6 25.6 67.2 0 92.8s-64 25.6-89.6 0l-291.2-300.8c-3.2-3.2-6.4-6.4-6.4-9.6 0 0 0-3.2-3.2-3.2 0-3.2-3.2-3.2-3.2-6.4s0-3.2-3.2-6.4c0-3.2 0-3.2-3.2-6.4 0-3.2 0-6.4 0-9.6 0 0 0-3.2 0-3.2s0-3.2 0-3.2 0-6.4 0-9.6c0-3.2 0-3.2 3.2-6.4 0-3.2 0-3.2 3.2-6.4 0-3.2 3.2-6.4 3.2-6.4s0-3.2 3.2-3.2 6.4-6.4 9.6-9.6l291.2-300.8c12.8-12.8 28.8-19.2 44.8-19.2s32 6.4 44.8 19.2c25.6 25.6 25.6 67.2 0 92.8l-182.4 188.8h675.2c35.2 0 64 28.8 64 67.2s-28.8 60.8-64 60.8z" />
<glyph unicode="&#xe601;" glyph-name="arrow_next" d="M32 448c0-35.2 28.8-67.2 64-67.2h678.4l-182.4-188.8c-25.6-25.6-25.6-67.2 0-92.8 12.8-12.8 28.8-19.2 44.8-19.2s32 6.4 44.8 19.2l291.2 300.8c3.2 3.2 6.4 6.4 9.6 9.6 0 0 0 3.2 3.2 3.2 0 3.2 3.2 3.2 3.2 6.4s0 3.2 3.2 6.4c0 3.2 0 3.2 3.2 6.4 0 3.2 0 6.4 0 9.6 0 0 0 3.2 0 3.2s0 3.2 0 3.2 0 6.4 0 9.6c0 3.2 0 3.2-3.2 6.4 0 3.2 0 3.2-3.2 6.4 0 3.2-3.2 3.2-3.2 6.4 0 0 0 3.2-3.2 3.2-3.2 3.2-6.4 6.4-6.4 9.6v0l-291.2 300.8c-25.6 25.6-64 25.6-89.6 0s-25.6-67.2 0-92.8l182.4-188.8h-681.6c-35.2 6.4-64-25.6-64-60.8z" />
<glyph unicode="&#xe602;" glyph-name="arrow_slider_next" d="M304 83.2l364.8 364.8-364.8 364.8c-16 16-16 41.6 0 57.6l48 44.8c16 16 41.6 16 57.6 0l441.6-441.6c3.2-3.2 3.2-6.4 6.4-6.4 0 0 0-3.2 3.2-3.2 0 0 0-3.2 0-3.2 6.4-16 3.2-32-9.6-44.8l-444.8-435.2c-16-16-41.6-16-57.6 0l-48 48c-12.8 12.8-12.8 38.4 3.2 54.4z" />
<glyph unicode="&#xe603;" glyph-name="arrow_slider_previous" d="M720 83.2l-364.8 364.8 364.8 364.8c16 16 16 41.6 0 57.6l-48 44.8c-16 16-41.6 16-57.6 0l-438.4-438.4c-3.2-3.2-3.2-6.4-6.4-6.4 0 0 0-3.2-3.2-3.2 0 0 0-3.2 0-3.2-6.4-16-3.2-35.2 9.6-48l444.8-438.4c16-16 41.6-16 57.6 0l48 48c9.6 16 9.6 41.6-6.4 57.6z" />
<glyph unicode="&#xe604;" glyph-name="btn_round" d="M57.6 454.4l9.6 121.6 28.8 118.4 73.6 99.2 92.8 80 118.4 35.2 118.4 19.2 115.2-28.8 118.4-28.8 92.8-80 67.2-102.4 48-112 32-121.6-44.8-118.4-41.6-112-76.8-92.8-73.6-99.2-112-54.4-124.8-9.6-115.2 32-112 44.8-102.4 70.4-76.8 99.2-35.2 118.4v121.6z" />
<glyph unicode="&#xe605;" glyph-name="close" d="M595.2 448l393.6 393.6c6.4 6.4 6.4 12.8 0 19.2l-64 64c-6.4 6.4-12.8 6.4-19.2 0l-393.6-393.6-393.6 393.6c-3.2 3.2-12.8 3.2-16 0l-64-64c-6.4-6.4-6.4-16-3.2-19.2l393.6-393.6-393.6-393.6c-6.4-6.4-6.4-12.8 0-19.2l64-64c6.4-6.4 12.8-6.4 19.2 0l393.6 393.6 393.6-393.6c6.4-6.4 12.8-6.4 19.2 0l64 64c6.4 6.4 6.4 12.8 0 19.2l-393.6 393.6z" />
<glyph unicode="&#xe606;" glyph-name="coupe" d="M963.2 800h-176v105.6h-550.4v-105.6h-176c-16 0-28.8-12.8-28.8-28.8v-25.6c0-121.6 89.6-220.8 204.8-236.8 3.2-124.8 108.8-227.2 233.6-227.2v-12.8c0-131.2-105.6-236.8-236.8-236.8v-35.2h556.8v35.2c-131.2 0-236.8 105.6-236.8 236.8v12.8c128 0 230.4 102.4 233.6 227.2 115.2 16 204.8 115.2 204.8 236.8v25.6c0 16-12.8 28.8-28.8 28.8zM236.8 566.4c-83.2 16-144 89.6-144 176h144v-176zM620.8 457.6l-108.8 73.6-108.8-73.6 35.2 128-102.4 83.2 131.2 3.2 44.8 124.8 44.8-124.8 131.2-6.4-102.4-83.2 35.2-124.8zM787.2 566.4v172.8h144c0-86.4-60.8-156.8-144-172.8z" />
<glyph unicode="&#xe607;" glyph-name="female" d="M796.8 694.4c-32 147.2-176 252.8-326.4 230.4-6.4 3.2-12.8 3.2-22.4 3.2-153.6-22.4-240-198.4-230.4-339.2 6.4-76.8 38.4-147.2 92.8-198.4 41.6-38.4 96-54.4 153.6-57.6 0-41.6-3.2-83.2-3.2-124.8-35.2 0-70.4 0-102.4 0-60.8 0-60.8-92.8 0-92.8 35.2 0 67.2 0 102.4 0 0-35.2 0-67.2 0-102.4 0-60.8 92.8-60.8 92.8 0 0 35.2 0 67.2 0 102.4 28.8 0 60.8 0 89.6 0 60.8 0 60.8 92.8 0 92.8-28.8 0-57.6 0-89.6 0 0 41.6 3.2 86.4 3.2 128 6.4 0 9.6 0 16 0 83.2 6.4 166.4 19.2 201.6 102.4 32 83.2 41.6 169.6 22.4 256zM700.8 518.4c-6.4-25.6-16-64-44.8-73.6-32-9.6-67.2-16-102.4-19.2-57.6-6.4-134.4-9.6-179.2 28.8-41.6 35.2-60.8 92.8-64 144-6.4 96 48 208 140.8 233.6 6.4-3.2 16-3.2 25.6 0 105.6 25.6 198.4-51.2 227.2-147.2 16-54.4 12.8-112-3.2-166.4z" />
<glyph unicode="&#xe608;" glyph-name="feuilles" d="M451.2 176c-9.6 156.8 76.8 246.4 201.6 291.2-19.2 128-118.4 284.8-380.8 464-483.2-624-57.6-812.8 89.6-854.4-41.6 169.6-67.2 460.8-54.4 624 22.4-140.8 76.8-364.8 144-524.8zM976 441.6c-560 19.2-483.2-307.2-448-409.6 76.8 86.4 169.6 156.8 268.8 214.4-83.2-76.8-147.2-166.4-198.4-265.6 124.8-32 393.6-51.2 377.6 460.8z" />
<glyph unicode="&#xe609;" glyph-name="fire" d="M892.8 332.8c0 121.6-57.6 240-153.6 320l-12.8 9.6c-16 12.8-38.4 6.4-44.8-9.6-3.2-9.6-6.4-92.8-6.4-105.6 0-3.2 0-6.4 0-9.6 0-12.8-9.6-22.4-22.4-19.2-9.6 0-16 9.6-16 19.2 0 144-44.8 243.2-124.8 320-48 44.8-108.8 86.4-124.8 54.4-3.2-9.6 3.2-25.6 9.6-48 16-51.2-35.2-134.4-108.8-217.6-67.2-76.8-153.6-172.8-153.6-316.8-3.2-185.6 179.2-361.6 377.6-361.6s380.8 176 380.8 364.8z" />
<glyph unicode="&#xe60a;" glyph-name="login" d="M948.736 222.208c-9.472 128-22.272 255.744-35.584 383.232-8.448 80.384-8.192 171.776-29.952 250.112-23.808 85.504-133.888 72.448-202.752 74.496-93.696 2.816-188.416 4.864-281.856-3.072-50.176-4.096-93.184-39.936-93.184-93.184 0-47.104 42.752-97.536 93.184-93.184 78.848 6.656 158.464 5.632 237.312 4.096 25.344-0.512 50.432-1.28 75.776-2.048 2.048-16.896 4.096-34.048 5.888-50.944 9.984-90.112 19.2-180.48 27.648-270.592 7.68-82.176 15.36-164.352 20.48-246.784 0.256-4.864 0.512-9.728 0.512-14.592-6.144-1.536-12.032-3.072-17.92-4.096-33.28-5.632-31.744-5.888-64.512-8.704-23.296-2.048-46.592-1.792-69.888-1.28-64.256 1.28-130.56 2.816-184.832 16.128-116.48 28.672-166.144-151.040-49.664-179.712 146.688-36.352 314.88-31.488 461.824 2.048 67.072 15.36 111.616 51.2 113.408 122.88 1.024 37.888-3.072 76.8-5.888 115.2zM380.928 389.632c4.096-29.184 8.704-60.416 5.376-84.224-2.56-18.944 15.104-37.632 34.304-26.368 51.968 30.976 103.936 61.696 155.648 92.672 24.832 14.848 62.976 29.952 48.64 65.792-13.312 33.28-62.72 63.488-90.88 83.968-38.656 28.16-80.128 50.176-123.904 68.864-2.048 1.28-4.352 2.304-6.912 3.072-0.768 0.256-1.536 0.768-2.304 1.024-13.568 5.632-23.296-2.304-26.624-13.312-1.536-2.56-2.56-5.632-2.816-9.216-3.328-29.44-2.304-59.392 0-89.344-105.216 4.864-223.744-6.912-292.096-84.992-39.424-45.056 26.368-111.104 66.048-66.048 52.224 60.16 151.040 64 235.52 58.112z" />
<glyph unicode="&#xe60b;" glyph-name="male" d="M982.4 870.4c0 9.6-3.2 16-6.4 22.4-6.4 22.4-22.4 35.2-48 35.2-96-3.2-195.2-6.4-291.2-9.6-70.4-3.2-70.4-112 0-108.8 48 3.2 96 3.2 144 6.4-25.6-22.4-51.2-48-76.8-70.4-25.6-25.6-48-48-70.4-76.8-3.2 3.2-9.6 3.2-12.8 6.4-3.2 0-3.2 0-6.4 3.2-57.6 35.2-124.8 54.4-195.2 54.4-102.4 0-192-57.6-265.6-121.6-76.8-67.2-121.6-160-108.8-265.6 6.4-54.4 28.8-105.6 51.2-156.8s48-102.4 89.6-137.6c76.8-60.8 217.6-86.4 313.6-73.6 99.2 16 182.4 80 236.8 163.2 80 121.6 86.4 342.4-12.8 464 25.6 35.2 64 64 92.8 92.8 19.2 19.2 38.4 38.4 60.8 57.6 0-44.8-3.2-89.6-3.2-134.4-3.2-70.4 105.6-70.4 112 0-3.2 80-3.2 166.4-3.2 249.6zM640 188.8c-32-57.6-89.6-96-153.6-108.8s-182.4 9.6-233.6 51.2c-25.6 19.2-38.4 60.8-51.2 89.6-19.2 35.2-32 73.6-41.6 112-19.2 80 16 140.8 73.6 192 105.6 96 256 124.8 368 19.2 9.6-12.8 25.6-19.2 41.6-22.4 22.4-32 32-73.6 38.4-108.8 9.6-73.6-3.2-156.8-41.6-224z" />
<glyph unicode="&#xe60c;" glyph-name="settings" d="M988.8 499.2c0 25.6-12.8 41.6-35.2 51.2-9.6 3.2-25.6 3.2-35.2 3.2s-19.2 0-32 0c-16 0-16 6.4-19.2 19.2-3.2 25.6-12.8 51.2-28.8 70.4 22.4 28.8 57.6 41.6 67.2 76.8 0 6.4 0 12.8-3.2 16-35.2 32-70.4 67.2-105.6 102.4-3.2 3.2-9.6 6.4-12.8 3.2 0 0 0 0 0 0-3.2 0-6.4 0-9.6-3.2-12.8-6.4-25.6-19.2-38.4-28.8-9.6-6.4-16-16-25.6-22.4-9.6-9.6-25.6 3.2-35.2 6.4-22.4 9.6-60.8 19.2-64 44.8s-6.4 48-9.6 70.4c0 9.6-6.4 16-16 16-25.6 0-54.4 0-80 0-22.4 0-51.2 6.4-70.4-3.2-12.8-6.4-16-19.2-16-32-3.2-25.6-6.4-54.4-9.6-80-19.2-6.4-38.4-12.8-57.6-19.2-9.6-3.2-19.2-6.4-28.8-9.6-19.2-3.2-32 16-38.4 25.6-12.8 12.8-25.6 22.4-38.4 28.8-12.8 3.2-25.6-9.6-32-16-19.2-16-38.4-35.2-57.6-54.4-16-9.6-28.8-22.4-32-38.4-6.4-12.8 3.2-25.6 12.8-35.2 12.8-16 28.8-32 44.8-48-12.8-25.6-28.8-51.2-38.4-80-3.2-6.4-6.4-12.8-6.4-19.2-22.4 0-41.6-3.2-64-3.2-12.8 0-28.8 0-35.2-16-9.6-16-6.4-41.6-6.4-57.6 0-32 0-60.8 3.2-92.8 0-9.6 6.4-16 16-16 12.8 0 89.6 9.6 96-6.4 9.6-32 19.2-60.8 32-92.8-9.6-12.8-19.2-25.6-32-38.4-9.6-12.8-25.6-25.6-28.8-41.6-6.4-28.8 41.6-64 57.6-80s44.8-54.4 73.6-48c16 3.2 25.6 19.2 38.4 28.8 16 12.8 28.8 25.6 44.8 38.4 28.8-16 57.6-28.8 86.4-41.6 0-25.6 3.2-48 3.2-73.6 0-9.6 0-32 12.8-35.2 22.4-6.4 44.8-3.2 67.2 0 32 0 60.8 0 92.8 0 9.6 0 16 6.4 16 16 0 35.2 0 70.4 3.2 102.4 35.2 0 70.4 12.8 99.2 35.2 22.4-25.6 44.8-48 67.2-70.4 6.4-6.4 16-6.4 22.4 0 28.8 28.8 54.4 57.6 83.2 83.2 16 16 25.6 32 19.2 54.4-9.6 25.6-32 48-51.2 64-12.8 12.8 19.2 73.6 32 99.2 32 0 64 0 99.2 3.2 9.6 0 16 6.4 16 16-9.6 44.8-9.6 86.4-12.8 128zM784 380.8c-12.8-57.6-60.8-102.4-102.4-144-51.2-48-134.4-41.6-198.4-41.6-153.6 0-262.4 166.4-230.4 310.4 0 0 3.2 3.2 3.2 3.2 28.8 60.8 60.8 124.8 118.4 163.2s150.4 48 214.4 28.8c32-9.6 60.8-28.8 89.6-44.8 32-19.2 60.8-44.8 76.8-76.8s19.2-67.2 22.4-102.4c3.2-28.8 12.8-64 6.4-96z" />
<glyph unicode="&#xe60d;" glyph-name="signin" d="M963.584 687.872c-28.416 120.064-120.832 212.736-241.152 241.664-118.784 28.672-249.088-18.944-331.264-107.008-101.376-108.8-94.208-257.28-29.44-381.184-97.536-125.184-195.328-250.368-292.864-375.808-17.408-22.272-17.92-53.248 8.96-69.376 52.48-31.488 112.64-48.384 173.824-35.584 23.040 4.864 56.32 12.544 69.12 34.304 4.608 7.68 9.984 26.112 8.192 35.328 0.512 1.024 0.768 2.048 1.28 3.072 5.12-1.024 9.984-1.792 15.104-2.304 30.72-4.608 52.224 11.52 56.064 42.496 1.536 13.056 3.072 26.368 4.608 39.424 38.144 8.96 60.928 48.896 69.888 90.88 9.472-0.256 18.944-0.256 28.416 0.512 24.064 2.304 44.032 18.432 44.288 44.288 0.256 18.944 0.256 37.888 0.512 56.832 0 1.536 0.512 5.888 0.768 10.752 2.56 1.024 4.864 1.536 5.632 1.28 52.736-16.128 101.632-32.768 157.696-25.088 57.088 7.68 114.944 31.488 156.672 72.448 78.592 77.568 118.528 217.344 93.696 323.072zM536.832 309.504c-0.256 0.256 0.768 0.768 2.304 1.792-0.768-1.536-1.28-2.304-2.304-1.792zM841.216 475.904c-22.528-43.264-55.040-71.68-101.632-87.040-58.624-19.2-104.448-3.328-160.512 14.080-2.56 0.768-5.12 1.28-7.68 1.536-46.080 8.448-104.448-16.128-110.592-66.816-1.792-14.080-1.792-28.928-1.536-43.52-3.84 0.768-7.68 1.28-11.776 2.304-26.624 6.656-57.344-13.056-56.064-42.496 0.256-7.168 6.4-57.856-12.544-50.944-29.696 11.008-52.992-16.896-56.064-42.496-1.28-11.776-2.816-23.808-4.096-35.584-17.408 1.28-34.048-1.024-48.64-14.080-16.896-15.104-23.808-38.4-27.648-61.184-25.088-6.656-49.664-5.12-73.728 2.048 92.16 118.272 184.576 236.544 276.736 355.072 12.032 15.616 17.92 35.328 6.912 53.504-68.352 113.152-75.52 249.856 40.192 334.848 96.768 71.168 223.232 71.936 315.648-7.168 94.976-81.408 86.272-210.176 33.024-312.064zM665.6 734.208c-1.792-0.512-3.328-1.28-4.864-2.048-0.256 0-0.256 0-0.512-0.256-22.272-11.264-43.776-29.184-53.504-52.992-9.216-22.272-2.56-47.36 6.144-68.864 20.224-49.408 59.392-69.632 110.336-46.592 38.144 17.408 66.816 79.616 43.776 118.784-17.408 29.44-66.56 62.464-101.376 51.968zM706.048 604.416c-30.464-14.592-44.544-0.512-54.528 28.416-9.984 29.184 2.048 45.568 27.392 59.136 14.080 2.304 37.376-17.152 45.312-26.624 13.568-16.896 0.256-52.224-18.176-60.928z" />
<glyph unicode="&#xe60e;" glyph-name="stairs" d="M35.2 483.2c3.2-3.2 3.2-6.4 6.4-6.4 0 0 0 0 3.2 0 0 0 3.2 0 3.2 0s3.2 0 3.2 0c0 0 0 0 3.2 0s3.2 0 6.4 0h227.2c16 0 28.8 12.8 28.8 28.8s-12.8 28.8-28.8 28.8h-160l246.4 243.2v-153.6c0-16 12.8-28.8 28.8-28.8s28.8 12.8 28.8 28.8v224c0 3.2 0 3.2 0 6.4 0 0 0 0 0 3.2 0 0 0 3.2 0 3.2s0 3.2 0 3.2c0 0 0 0 0 3.2-9.6-9.6-12.8-6.4-16-3.2 0 0 0 0-3.2 0 0 0-3.2 0-3.2 0s-3.2 0-3.2 0c0 0 0 0-3.2 0s-3.2 0-6.4 0h-224c-12.8 3.2-25.6-9.6-25.6-25.6s12.8-28.8 28.8-28.8h156.8l-83.2-80-160-160v156.8c0 16-12.8 28.8-28.8 28.8-16-3.2-28.8-12.8-28.8-28.8v-227.2c0-3.2 0-3.2 0-6.4 0 0 0 0 0-3.2 0 0 0-3.2 0-3.2 3.2 0 3.2 0 3.2-3.2 0 0 0 0 0 0zM963.2 755.2h-224c-16 0-28.8-12.8-28.8-28.8v-195.2h-198.4c-16 0-28.8-12.8-28.8-28.8v-198.4h-195.2c-16 0-28.8-12.8-28.8-28.8v-195.2h-195.2c-16 0-28.8-12.8-28.8-28.8s12.8-28.8 28.8-28.8h224c16 0 28.8 12.8 28.8 28.8v195.2h198.4c16 0 28.8 12.8 28.8 28.8v198.4h195.2c16 0 28.8 12.8 28.8 28.8v198.4h198.4c16 0 28.8 12.8 28.8 28.8s-16 25.6-32 25.6z" />
<glyph unicode="&#xe60f;" glyph-name="menu" d="M947.2 560h-870.4c-22.4 0-44.8 19.2-44.8 44.8v0c0 22.4 19.2 44.8 44.8 44.8h873.6c22.4 0 44.8-19.2 44.8-44.8v0c-3.2-25.6-22.4-44.8-48-44.8zM947.2 403.2h-870.4c-25.6 0-44.8 19.2-44.8 44.8v0c0 25.6 19.2 44.8 44.8 44.8h873.6c22.4 0 44.8-19.2 44.8-44.8v0c-3.2-25.6-22.4-44.8-48-44.8zM947.2 246.4h-870.4c-22.4 0-44.8 19.2-44.8 44.8v0c0 25.6 19.2 44.8 44.8 44.8h873.6c22.4 0 44.8-19.2 44.8-44.8v0c-3.2-22.4-22.4-44.8-48-44.8z" />
<glyph unicode="&#xe610;" glyph-name="search" d="M137.6 172.8c-28.8-28.8-60.8-54.4-89.6-83.2-51.2-48 28.8-124.8 80-76.8 32 25.6 60.8 54.4 89.6 83.2l80 76.8c38.4 35.2 76.8 67.2 112 102.4 6.4-3.2 9.6-9.6 16-12.8 80-60.8 160-118.4 262.4-80 99.2 38.4 182.4 102.4 243.2 188.8 102.4 147.2 67.2 352-80 454.4-3.2 6.4-9.6 16-19.2 22.4-153.6 108.8-380.8 32-496-89.6-60.8-64-96-150.4-92.8-236.8 3.2-64 38.4-121.6 83.2-172.8-38.4-32-76.8-67.2-112-102.4l-76.8-73.6zM697.6 304c-28.8-16-67.2-38.4-99.2-22.4-38.4 19.2-73.6 44.8-105.6 70.4-54.4 41.6-121.6 102.4-131.2 169.6-6.4 64 28.8 124.8 70.4 172.8 76.8 83.2 217.6 131.2 323.2 76.8 3.2-9.6 12.8-16 22.4-22.4 112-64 124.8-204.8 67.2-307.2-32-60.8-89.6-105.6-147.2-137.6z" />
<glyph unicode="&#xe611;" glyph-name="slider_accessoire_next" horiz-adv-x="2048" d="M1321.6 608c-9.6 3.2-16-3.2-19.2-12.8-6.4-38.4-38.4-60.8-73.6-70.4-41.6-12.8-76.8 0-108.8 28.8-28.8 25.6-48 57.6-76.8 86.4-19.2 25.6-51.2 41.6-83.2 54.4-92.8 35.2-240 3.2-288-89.6-16 28.8-44.8 54.4-76.8 73.6-60.8 35.2-134.4 38.4-201.6 19.2-76.8-22.4-118.4-83.2-169.6-137.6-28.8-32-64-44.8-105.6-38.4-38.4 6.4-73.6 32-80 73.6 0 9.6-9.6 16-19.2 12.8-9.6 0-16-6.4-16-16 3.2-76.8 35.2-147.2 86.4-201.6 28.8-28.8 60.8-51.2 96-67.2 41.6-22.4 80-41.6 124.8-48 76.8-12.8 169.6-9.6 240 32 57.6 35.2 99.2 96 121.6 163.2 22.4-60.8 64-121.6 115.2-156.8 67.2-48 163.2-48 243.2-38.4 76.8 9.6 163.2 57.6 217.6 112 57.6 54.4 89.6 131.2 92.8 211.2 0 3.2-9.6 9.6-19.2 9.6zM649.6 515.2c-9.6-41.6-28.8-83.2-51.2-118.4-51.2-80-137.6-96-224-96-131.2 0-272 83.2-320 211.2 12.8-9.6 28.8-16 44.8-22.4 57.6-19.2 108.8 3.2 147.2 44.8 51.2 51.2 83.2 105.6 150.4 128s140.8 9.6 198.4-32c44.8-25.6 64-67.2 54.4-115.2zM969.6 300.8c-83.2 0-153.6 12.8-211.2 80-28.8 32-48 80-60.8 121.6-19.2 54.4 3.2 96 44.8 131.2 54.4 41.6 128 48 188.8 32 73.6-19.2 112-76.8 160-131.2 38.4-41.6 86.4-57.6 140.8-48 19.2 3.2 38.4 12.8 54.4 22.4-48-124.8-185.6-204.8-316.8-208zM1686.4 640l188.8-188.8-188.8-188.8c-9.6-9.6-9.6-22.4 0-28.8l25.6-22.4c9.6-9.6 22.4-9.6 28.8 0l224 224c3.2 3.2 3.2 3.2 3.2 3.2s0 3.2 3.2 3.2v3.2c3.2 9.6 3.2 19.2-6.4 25.6l-227.2 224c-9.6 9.6-22.4 9.6-28.8 0l-25.6-25.6c-3.2-9.6-3.2-22.4 3.2-28.8z" />
<glyph unicode="&#xe612;" glyph-name="slider_accessoire_prev" horiz-adv-x="2048" d="M345.6 265.6l-185.6 188.8 188.8 188.8c9.6 9.6 9.6 22.4 0 28.8l-25.6 22.4c-9.6 9.6-22.4 9.6-28.8 0l-224-224c-3.2-3.2-3.2-3.2-3.2-3.2s0-3.2-3.2-3.2v-3.2c-3.2-9.6-3.2-19.2 6.4-25.6l227.2-224c9.6-9.6 22.4-9.6 28.8 0l25.6 25.6c3.2 6.4 3.2 19.2-6.4 28.8zM2025.6 608c-9.6 3.2-16-3.2-19.2-12.8-6.4-38.4-38.4-60.8-73.6-70.4-41.6-12.8-76.8 0-108.8 28.8-28.8 25.6-48 57.6-76.8 86.4-19.2 25.6-51.2 41.6-83.2 54.4-92.8 35.2-240 3.2-288-89.6-16 28.8-44.8 54.4-76.8 73.6-60.8 35.2-134.4 38.4-201.6 19.2-76.8-22.4-115.2-83.2-166.4-137.6-28.8-32-64-44.8-105.6-38.4-38.4 6.4-73.6 32-80 73.6 0 9.6-9.6 16-19.2 12.8-9.6 0-16-6.4-16-16 3.2-76.8 35.2-147.2 86.4-201.6 28.8-28.8 60.8-51.2 96-67.2 41.6-22.4 80-41.6 124.8-48 76.8-12.8 169.6-9.6 240 32 57.6 35.2 99.2 96 121.6 163.2 22.4-60.8 64-121.6 115.2-156.8 67.2-48 163.2-48 243.2-38.4 76.8 9.6 163.2 57.6 217.6 112 57.6 54.4 89.6 131.2 92.8 211.2-6.4 3.2-12.8 9.6-22.4 9.6zM1350.4 515.2c-9.6-41.6-28.8-83.2-51.2-118.4-51.2-80-137.6-96-224-96-131.2 0-272 83.2-320 211.2 12.8-9.6 28.8-16 44.8-22.4 57.6-19.2 108.8 3.2 147.2 44.8 51.2 51.2 83.2 105.6 150.4 128s140.8 9.6 198.4-32c48-25.6 67.2-67.2 54.4-115.2zM1670.4 300.8c-83.2 0-153.6 12.8-211.2 80-28.8 32-48 80-60.8 121.6-19.2 54.4 3.2 96 44.8 131.2 54.4 41.6 128 48 188.8 32 73.6-19.2 112-76.8 160-131.2 38.4-41.6 86.4-57.6 140.8-48 19.2 3.2 38.4 12.8 54.4 22.4-44.8-124.8-185.6-204.8-316.8-208z" />
<glyph unicode="&#xe613;" glyph-name="slider_body_next" horiz-adv-x="2048" d="M1683.2 640l188.8-188.8-188.8-188.8c-9.6-9.6-9.6-22.4 0-28.8l25.6-22.4c9.6-9.6 22.4-9.6 28.8 0l224 224c3.2 3.2 3.2 3.2 3.2 3.2s0 3.2 3.2 3.2v3.2c3.2 9.6 3.2 19.2-6.4 25.6l-227.2 224c-9.6 9.6-22.4 9.6-28.8 0l-25.6-25.6c-3.2-9.6-3.2-22.4 3.2-28.8zM1187.2 630.4c-48 51.2-99.2 105.6-150.4 156.8-41.6 44.8-89.6 80-147.2 102.4-41.6 16-96 16-124.8-22.4-22.4-32-44.8-51.2-86.4-51.2s-67.2 38.4-73.6 73.6c0 9.6-9.6 12.8-16 12.8 0 0 0 0 0 0-41.6 3.2-83.2 6.4-124.8-6.4-38.4-12.8-67.2-38.4-92.8-64-32-28.8-57.6-60.8-86.4-92.8-38.4-41.6-80-76.8-115.2-118.4-9.6-9.6-9.6-22.4 3.2-28.8 44.8-28.8 80-64 108.8-108.8 6.4-9.6 19.2-9.6 28.8-3.2 19.2 16 38.4 32 54.4 48-3.2-176 3.2-352 19.2-528 0-9.6 6.4-19.2 19.2-19.2 192 0 384 0 576 0 9.6 0 19.2 9.6 19.2 19.2 3.2 172.8 3.2 342.4-9.6 515.2 16-16 32-35.2 48-51.2 6.4-6.4 19.2-6.4 25.6 0 38.4 48 83.2 92.8 128 137.6 6.4 9.6 3.2 19.2-3.2 28.8zM208 614.4c6.4 6.4 12.8 16 19.2 22.4 28.8-35.2 57.6-67.2 89.6-96-6.4-6.4-12.8-9.6-19.2-16-22.4 32-54.4 64-89.6 89.6zM403.2 579.2c0 16-19.2 25.6-32 12.8-9.6-9.6-16-19.2-25.6-28.8-32 28.8-64 64-89.6 99.2 9.6 9.6 22.4 22.4 35.2 35.2 25.6 25.6 48 57.6 76.8 83.2 25.6 25.6 51.2 51.2 80 70.4 38.4 22.4 83.2 22.4 124.8 16 9.6-44.8 44.8-76.8 89.6-86.4 25.6-6.4 51.2 0 76.8 9.6 32 12.8 41.6 44.8 64 64 28.8 22.4 76.8 0 102.4-12.8 32-16 60.8-41.6 89.6-67.2 41.6-38.4 83.2-83.2 121.6-124.8-32-38.4-73.6-70.4-112-102.4-9.6 9.6-16 19.2-25.6 28.8s-32 3.2-32-12.8c12.8-182.4 16-364.8 12.8-544-179.2 0-361.6 0-540.8 0-19.2 185.6-22.4 371.2-16 560zM1046.4 505.6c-6.4 6.4-12.8 12.8-16 19.2 38.4 32 80 64 112 102.4 3.2-3.2 6.4-6.4 9.6-9.6-38.4-35.2-73.6-73.6-105.6-112z" />
<glyph unicode="&#xe614;" glyph-name="slider_body_prev" horiz-adv-x="2048" d="M345.6 265.6l-185.6 188.8 188.8 188.8c9.6 9.6 9.6 22.4 0 28.8l-25.6 22.4c-9.6 9.6-22.4 9.6-28.8 0l-224-224c-3.2-3.2-3.2-3.2-3.2-3.2s0-3.2-3.2-3.2v-3.2c-3.2-9.6-3.2-19.2 6.4-25.6l227.2-224c9.6-9.6 22.4-9.6 28.8 0l25.6 25.6c3.2 6.4 3.2 19.2-6.4 28.8zM1795.2 630.4c-48 51.2-99.2 105.6-150.4 156.8-41.6 44.8-89.6 80-147.2 102.4-41.6 16-96 16-124.8-22.4-22.4-32-44.8-51.2-86.4-51.2s-67.2 38.4-73.6 73.6c0 9.6-9.6 12.8-16 12.8 0 0 0 0 0 0-41.6 3.2-83.2 6.4-124.8-6.4-38.4-12.8-67.2-38.4-92.8-64-32-28.8-57.6-60.8-86.4-92.8-38.4-41.6-80-76.8-115.2-118.4-6.4-9.6-6.4-22.4 3.2-28.8 44.8-28.8 80-64 108.8-108.8 6.4-9.6 19.2-9.6 28.8-3.2 19.2 16 38.4 32 54.4 48-3.2-176 3.2-352 19.2-528 0-9.6 6.4-19.2 19.2-19.2 192 0 384 0 576 0 9.6 0 19.2 9.6 19.2 19.2 3.2 172.8 3.2 342.4-9.6 515.2 16-16 32-35.2 48-51.2 6.4-6.4 19.2-6.4 25.6 0 38.4 48 83.2 92.8 128 137.6 6.4 9.6 3.2 19.2-3.2 28.8zM816 614.4c6.4 6.4 12.8 16 19.2 22.4 28.8-35.2 57.6-67.2 89.6-96-6.4-6.4-12.8-9.6-19.2-16-22.4 32-54.4 64-89.6 89.6zM1011.2 579.2c0 16-19.2 25.6-32 12.8-9.6-9.6-16-19.2-25.6-28.8-32 28.8-64 64-89.6 99.2 12.8 12.8 25.6 25.6 38.4 38.4 25.6 25.6 48 57.6 76.8 83.2 22.4 22.4 48 48 76.8 67.2 38.4 22.4 83.2 22.4 124.8 16 9.6-44.8 44.8-76.8 89.6-86.4 25.6-6.4 51.2 0 76.8 9.6 32 12.8 41.6 44.8 64 64 28.8 22.4 76.8 0 102.4-12.8 32-16 60.8-41.6 89.6-67.2 41.6-38.4 83.2-83.2 121.6-124.8-32-38.4-73.6-70.4-112-102.4-9.6 9.6-16 19.2-25.6 28.8s-32 3.2-32-12.8c12.8-182.4 16-364.8 12.8-544-179.2 0-361.6 0-540.8 0-19.2 185.6-22.4 371.2-16 560zM1654.4 505.6c-6.4 6.4-12.8 12.8-16 19.2 38.4 32 80 64 112 102.4 3.2-3.2 6.4-6.4 9.6-9.6-38.4-35.2-73.6-73.6-105.6-112z" />
<glyph unicode="&#xe615;" glyph-name="slider_chapeau_next" horiz-adv-x="2048" d="M1187.2 489.6c-57.6 48-134.4 57.6-204.8 70.4 0 0 0 0 0 0s0 0 0 0c-6.4 54.4-12.8 108.8-38.4 156.8-54.4 105.6-169.6 108.8-275.2 105.6-99.2-3.2-201.6-25.6-256-115.2-25.6-41.6-35.2-92.8-44.8-140.8 0 0 0 0 0 0-80-28.8-169.6-44.8-240-102.4-54.4-44.8-89.6-124.8-57.6-192 38.4-73.6 118.4-105.6 192-131.2 89.6-32 182.4-38.4 275.2-44.8 188.8-12.8 377.6-19.2 553.6 54.4 67.2 28.8 128 80 156.8 147.2 32 70.4-3.2 147.2-60.8 192zM425.6 659.2c38.4 99.2 134.4 124.8 233.6 131.2 48 3.2 99.2 6.4 147.2-3.2 54.4-9.6 89.6-48 115.2-92.8 25.6-48 28.8-105.6 32-160 0-9.6 3.2-22.4 3.2-32-80-57.6-176-73.6-272-76.8-51.2 0-105.6 3.2-156.8 6.4-48 3.2-99.2 6.4-144 32 6.4 64 19.2 131.2 41.6 195.2zM1168 236.8c-57.6-57.6-144-80-220.8-96-89.6-19.2-179.2-22.4-268.8-19.2-172.8 6.4-358.4 6.4-512 96-35.2 22.4-64 51.2-73.6 92.8s16 86.4 44.8 115.2c57.6 60.8 147.2 76.8 224 102.4 0 0 0 0 0 0-9.6-57.6-16-115.2-19.2-172.8 0 0 0-3.2 0-3.2-3.2-6.4-3.2-16 6.4-22.4 44.8-22.4 86.4-44.8 137.6-57.6 57.6-12.8 121.6-6.4 182.4-6.4s121.6-3.2 179.2 9.6c54.4 9.6 102.4 41.6 147.2 70.4 3.2 3.2 6.4 6.4 9.6 9.6 0 0 0 0 0 0 0 3.2 0 6.4 0 9.6-3.2 54.4-9.6 105.6-12.8 160 0 0 0 0 0 0 73.6-16 147.2-28.8 201.6-80 60.8-64 35.2-150.4-25.6-208zM1686.4 640l188.8-188.8-188.8-188.8c-9.6-9.6-9.6-22.4 0-28.8l25.6-22.4c9.6-9.6 22.4-9.6 28.8 0l224 224c3.2 3.2 3.2 3.2 3.2 3.2s0 3.2 3.2 3.2v3.2c3.2 9.6 3.2 19.2-6.4 25.6l-227.2 224c-9.6 9.6-22.4 9.6-28.8 0l-25.6-25.6c-3.2-9.6-3.2-22.4 3.2-28.8z" />
<glyph unicode="&#xe616;" glyph-name="slider_chapeau_prev" horiz-adv-x="2048" d="M1907.2 489.6c-57.6 48-134.4 57.6-204.8 70.4 0 0 0 0 0 0s0 0 0 0c-6.4 54.4-12.8 108.8-38.4 156.8-54.4 105.6-169.6 108.8-275.2 105.6-99.2-3.2-201.6-25.6-256-115.2-25.6-41.6-35.2-92.8-44.8-140.8 0 0 0 0 0 0-80-28.8-169.6-44.8-240-102.4-54.4-44.8-89.6-124.8-57.6-192 38.4-73.6 118.4-105.6 192-131.2 89.6-32 182.4-38.4 275.2-44.8 188.8-12.8 377.6-19.2 553.6 54.4 67.2 28.8 128 80 156.8 147.2 28.8 70.4-6.4 147.2-60.8 192zM1142.4 659.2c38.4 99.2 134.4 124.8 233.6 131.2 48 3.2 99.2 6.4 147.2-3.2 54.4-9.6 89.6-48 115.2-92.8 25.6-48 28.8-105.6 32-160 0-9.6 3.2-22.4 3.2-32-80-57.6-176-73.6-272-76.8-51.2 0-105.6 3.2-156.8 6.4-48 3.2-99.2 6.4-144 32 6.4 64 19.2 131.2 41.6 195.2zM1884.8 236.8c-57.6-57.6-144-80-220.8-96-89.6-19.2-179.2-22.4-268.8-19.2-172.8 6.4-358.4 6.4-512 96-35.2 22.4-64 51.2-73.6 92.8s16 86.4 44.8 115.2c57.6 60.8 147.2 76.8 224 102.4 0 0 0 0 0 0-9.6-57.6-16-115.2-19.2-172.8 0 0 0-3.2 0-3.2-3.2-6.4-3.2-16 6.4-22.4 44.8-22.4 86.4-44.8 137.6-57.6 57.6-12.8 121.6-6.4 182.4-6.4s121.6-3.2 179.2 9.6c54.4 9.6 102.4 41.6 147.2 70.4 3.2 3.2 6.4 6.4 9.6 9.6 0 0 0 0 0 0 0 3.2 0 6.4 0 9.6-3.2 54.4-9.6 105.6-12.8 160 0 0 0 0 0 0 73.6-16 147.2-28.8 201.6-80 60.8-64 35.2-150.4-25.6-208zM345.6 265.6l-185.6 188.8 188.8 188.8c9.6 9.6 9.6 22.4 0 28.8l-25.6 22.4c-9.6 9.6-22.4 9.6-28.8 0l-224-224c-3.2-3.2-3.2-3.2-3.2-3.2s0-3.2-3.2-3.2v-3.2c-3.2-9.6-3.2-19.2 6.4-25.6l227.2-224c9.6-9.6 22.4-9.6 28.8 0l25.6 25.6c3.2 6.4 3.2 19.2-6.4 28.8z" />
<glyph unicode="&#xe617;" glyph-name="slider_feet_next" horiz-adv-x="2048" d="M115.2 764.8c0 16 12.8 22.4 25.6 16 92.8-51.2 201.6-172.8 313.6-115.2 48 25.6 70.4 86.4 105.6 128 28.8 35.2 70.4 54.4 115.2 44.8 9.6-3.2 12.8-6.4 12.8-16 102.4-144 243.2-243.2 400-288 70.4-19.2 153.6-12.8 208-70.4 51.2-54.4 25.6-131.2-28.8-169.6-28.8-19.2-67.2-25.6-102.4-28.8-48-6.4-96-12.8-140.8-19.2-102.4-12.8-201.6-19.2-304-22.4-201.6-6.4-406.4 3.2-608 28.8-9.6 0-19.2 6.4-19.2 19.2 9.6 163.2 16 326.4 22.4 492.8zM1216 470.4c-35.2 9.6-76.8 12.8-112 19.2-16 3.2-32 6.4-44.8 12.8-6.4-60.8-67.2-67.2-112-44.8-35.2 16-73.6 35.2-105.6 54.4-54.4 32-105.6 76.8-153.6 118.4-38.4 35.2-89.6 70.4-102.4 124.8-16-22.4-32-48-48-67.2-28.8-38.4-64-70.4-108.8-73.6-60.8-6.4-112 12.8-160 44.8-22.4-51.2-70.4-83.2-121.6-73.6-6.4-70.4-9.6-137.6-12.8-201.6 380.8-12.8 764.8 0 1145.6 44.8-16 19.2-44.8 35.2-64 41.6zM1180.8 307.2c38.4 6.4 76.8 16 99.2 51.2 6.4 12.8 9.6 22.4 9.6 32-384-44.8-774.4-60.8-1161.6-44.8 0-19.2 0-35.2-3.2-54.4 355.2-44.8 710.4-41.6 1056 16zM1686.4 640l188.8-188.8-188.8-188.8c-9.6-9.6-9.6-22.4 0-28.8l25.6-22.4c9.6-9.6 22.4-9.6 28.8 0l224 224c3.2 3.2 3.2 3.2 3.2 3.2s0 3.2 3.2 3.2v3.2c3.2 9.6 3.2 19.2-6.4 25.6l-227.2 224c-9.6 9.6-22.4 9.6-28.8 0l-25.6-25.6c-3.2-9.6-3.2-22.4 3.2-28.8z" />
<glyph unicode="&#xe618;" glyph-name="slider_feet_prev" horiz-adv-x="2048" d="M825.6 732.8c0 16 12.8 22.4 25.6 16 92.8-51.2 201.6-172.8 313.6-115.2 48 25.6 70.4 86.4 105.6 128 28.8 35.2 70.4 54.4 115.2 44.8 9.6-3.2 12.8-6.4 12.8-16 102.4-144 243.2-243.2 400-288 70.4-19.2 153.6-12.8 208-70.4 51.2-54.4 25.6-131.2-28.8-169.6-28.8-19.2-67.2-25.6-102.4-28.8-48-6.4-96-12.8-140.8-19.2-102.4-12.8-201.6-19.2-304-22.4-201.6-6.4-406.4 3.2-608 28.8-9.6 0-19.2 6.4-19.2 19.2 9.6 163.2 16 326.4 22.4 492.8zM1926.4 438.4c-35.2 9.6-76.8 12.8-112 19.2-16 3.2-32 6.4-44.8 12.8-6.4-60.8-67.2-67.2-112-44.8-35.2 16-73.6 35.2-105.6 54.4-54.4 32-105.6 76.8-153.6 118.4-38.4 35.2-89.6 70.4-102.4 124.8-16-22.4-32-48-48-67.2-28.8-38.4-64-70.4-108.8-73.6-60.8-6.4-112 12.8-160 44.8-22.4-51.2-70.4-83.2-121.6-73.6-3.2-67.2-6.4-131.2-9.6-198.4 380.8-12.8 764.8 0 1145.6 44.8-19.2 16-44.8 32-67.2 38.4zM1894.4 275.2c38.4 6.4 76.8 16 99.2 51.2 6.4 12.8 9.6 22.4 9.6 32-384-44.8-774.4-60.8-1161.6-44.8 0-19.2 0-35.2-3.2-54.4 352-44.8 707.2-41.6 1056 16zM345.6 265.6l-185.6 188.8 188.8 188.8c9.6 9.6 9.6 22.4 0 28.8l-25.6 22.4c-9.6 9.6-22.4 9.6-28.8 0l-224-224c-3.2-3.2-3.2-3.2-3.2-3.2s0-3.2-3.2-3.2v-3.2c-3.2-9.6-3.2-19.2 6.4-25.6l227.2-224c9.6-9.6 22.4-9.6 28.8 0l25.6 25.6c3.2 6.4 3.2 19.2-6.4 28.8z" />
<glyph unicode="&#xe619;" glyph-name="slider_head_head" horiz-adv-x="2048" d="M780.8 35.2c0 32 3.2 60.8 16 89.6 19.2 35.2 60.8 28.8 92.8 28.8 22.4-3.2 51.2 0 67.2 16 22.4 22.4 25.6 51.2 25.6 80 0 25.6 0 54.4 12.8 76.8 6.4 12.8 28.8 12.8 38.4 19.2s16 19.2 19.2 28.8c9.6 25.6-3.2 54.4-12.8 76.8-9.6 16-19.2 32-28.8 48-12.8 22.4-16 48-19.2 73.6 0 67.2 0 131.2-44.8 188.8-38.4 44.8-96 70.4-150.4 83.2-134.4 38.4-284.8 38.4-390.4-64-64-64-86.4-147.2-83.2-233.6 0-48 6.4-89.6 28.8-131.2 19.2-38.4 51.2-70.4 76.8-102.4 32-41.6 44.8-86.4 44.8-137.6 0-25.6 0-51.2-3.2-76.8 0-16-3.2-41.6 6.4-57.6 6.4-12.8 16-19.2 32-19.2 25.6 0 51.2 0 80 0 57.6 0 118.4 0 176-3.2 16 0 16 25.6 0 25.6-41.6 0-83.2 0-124.8 0-44.8 0-89.6-3.2-134.4 3.2-16 3.2-6.4 102.4-6.4 115.2 0 35.2-3.2 73.6-19.2 105.6-28.8 60.8-80 105.6-112 166.4-19.2 38.4-22.4 80-22.4 121.6s6.4 83.2 22.4 124.8c28.8 64 80 115.2 144 140.8 76.8 32 163.2 19.2 243.2 3.2 60.8-12.8 124.8-35.2 169.6-83.2 54.4-60.8 32-147.2 48-220.8 6.4-32 25.6-57.6 41.6-86.4 9.6-16 16-35.2 12.8-54.4-3.2-22.4-25.6-19.2-38.4-28.8-38.4-19.2-32-92.8-32-131.2-3.2-44.8-38.4-48-73.6-44.8-28.8 3.2-51.2 3.2-76.8-9.6-48-22.4-51.2-89.6-51.2-137.6 0-12.8 25.6-12.8 25.6 6.4v0zM1686.4 640l188.8-188.8-188.8-188.8c-9.6-9.6-9.6-22.4 0-28.8l25.6-22.4c9.6-9.6 22.4-9.6 28.8 0l224 224c3.2 3.2 3.2 3.2 3.2 3.2s0 3.2 3.2 3.2v3.2c3.2 9.6 3.2 19.2-6.4 25.6l-227.2 224c-9.6 9.6-22.4 9.6-28.8 0l-25.6-25.6c-3.2-9.6-3.2-22.4 3.2-28.8z" />
<glyph unicode="&#xe61a;" glyph-name="slider_head_prev" horiz-adv-x="2048" d="M345.6 265.6l-185.6 188.8 188.8 188.8c9.6 9.6 9.6 22.4 0 28.8l-25.6 22.4c-9.6 9.6-22.4 9.6-28.8 0l-224-224c-3.2-3.2-3.2-3.2-3.2-3.2s0-3.2-3.2-3.2v-3.2c-3.2-9.6-3.2-19.2 6.4-25.6l227.2-224c9.6-9.6 22.4-9.6 28.8 0l25.6 25.6c3.2 6.4 3.2 19.2-6.4 28.8zM1436.8 35.2c0 32 3.2 60.8 16 89.6 19.2 35.2 60.8 28.8 92.8 28.8 22.4-3.2 51.2 0 67.2 16 22.4 22.4 25.6 51.2 25.6 80 0 25.6 0 54.4 12.8 76.8 6.4 12.8 28.8 12.8 38.4 19.2s16 19.2 19.2 28.8c9.6 25.6-3.2 54.4-12.8 76.8-9.6 16-19.2 32-28.8 48-12.8 22.4-16 48-19.2 73.6 0 67.2 0 131.2-44.8 188.8-38.4 44.8-96 70.4-150.4 83.2-134.4 35.2-284.8 38.4-390.4-67.2-64-64-86.4-147.2-83.2-233.6 0-48 6.4-89.6 28.8-131.2 19.2-38.4 51.2-70.4 76.8-102.4 32-41.6 44.8-86.4 44.8-137.6 0-25.6 0-51.2-3.2-76.8 0-16-3.2-41.6 6.4-57.6 6.4-12.8 16-19.2 32-19.2 25.6 0 51.2 0 80 0 57.6 0 118.4 0 176-3.2 16 0 16 25.6 0 25.6-41.6 0-83.2 0-124.8 0-44.8 0-89.6-3.2-134.4 3.2-16 3.2-6.4 102.4-6.4 115.2 0 35.2-3.2 73.6-19.2 105.6-28.8 60.8-80 105.6-112 166.4-19.2 38.4-22.4 80-22.4 121.6s6.4 83.2 22.4 124.8c28.8 64 80 115.2 144 140.8 76.8 32 163.2 19.2 243.2 3.2 60.8-12.8 124.8-35.2 169.6-83.2 54.4-60.8 32-147.2 48-220.8 6.4-32 25.6-57.6 41.6-86.4 9.6-16 16-35.2 12.8-54.4-3.2-22.4-25.6-19.2-38.4-28.8-38.4-19.2-32-92.8-32-131.2-3.2-44.8-38.4-48-73.6-44.8-28.8 3.2-51.2 3.2-76.8-9.6-48-22.4-51.2-89.6-51.2-137.6 0-9.6 25.6-9.6 25.6 9.6v0z" />
<glyph unicode="&#xe61b;" glyph-name="arrow_bottom" d="M147.2 646.4l364.8-364.8 364.8 364.8c16 16 41.6 16 57.6 0l44.8-48c16-16 16-41.6 0-57.6l-441.6-441.6c-3.2-3.2-6.4-3.2-6.4-6.4 0 0-3.2 0-3.2-3.2h-3.2c-16-6.4-32-3.2-44.8 9.6l-435.2 444.8c-16 16-16 41.6 0 57.6l48 48c12.8 12.8 38.4 12.8 54.4-3.2z" />
<glyph unicode="&#xe61c;" glyph-name="diamant" d="M755.2 457.6c0 3.2 0 6.4-3.2 6.4-76.8 150.4-150.4 300.8-230.4 448 0 3.2-3.2 6.4-6.4 9.6 0 0 0 0 0 0-9.6 9.6-25.6 9.6-28.8-6.4-3.2-6.4-6.4-16-6.4-22.4-12.8-28.8-25.6-60.8-38.4-89.6-19.2-38.4-44.8-76.8-67.2-115.2-41.6-76.8-73.6-153.6-102.4-236.8 0-3.2 0-6.4 0-6.4-3.2-3.2-3.2-9.6 0-16 38.4-80 73.6-160 108.8-240 32-73.6 60.8-150.4 115.2-211.2 3.2-3.2 3.2-3.2 6.4-3.2 6.4-6.4 19.2-6.4 25.6 3.2 80 153.6 153.6 310.4 227.2 467.2 0 3.2 0 6.4 0 12.8zM630.4 457.6c-22.4 70.4-48 140.8-60.8 211.2-6.4 35.2-6.4 70.4-16 108.8 54.4-105.6 108.8-211.2 163.2-316.8-28.8 0-57.6-3.2-86.4-3.2zM499.2 835.2c3.2-12.8 6.4-25.6 9.6-41.6 12.8-41.6 12.8-80 22.4-124.8 12.8-73.6 38.4-144 60.8-214.4-57.6 0-115.2 0-172.8 0 16 131.2 48 256 80 380.8zM595.2 422.4c-19.2-124.8-48-246.4-86.4-364.8-38.4 118.4-67.2 240-86.4 364.8 57.6 0 115.2 0 172.8 0zM630.4 425.6c25.6 0 51.2 0 76.8 0-44.8-92.8-89.6-185.6-134.4-278.4 25.6 89.6 44.8 182.4 57.6 278.4zM416 691.2c6.4 12.8 12.8 22.4 19.2 35.2-19.2-86.4-38.4-176-51.2-268.8-25.6 0-48 0-73.6 0 28.8 80 64 160 105.6 233.6zM310.4 422.4c25.6 0 51.2 0 76.8 0 19.2-118.4 44.8-233.6 80-348.8-25.6 44.8-44.8 96-64 144-28.8 70.4-57.6 137.6-92.8 204.8z" />
<glyph unicode="&#xe61d;" glyph-name="gps" d="M745.6 867.2c-176 102.4-406.4 73.6-560-54.4-3.2-3.2-6.4-9.6-9.6-12.8-99.2-89.6-144-243.2-144-368 0-150.4 76.8-297.6 204.8-374.4 35.2-22.4 73.6-35.2 112-48 41.6-12.8 86.4-28.8 131.2-35.2 9.6-3.2 22.4-3.2 32-3.2 12.8-6.4 28.8-3.2 38.4 0 57.6 6.4 118.4 28.8 169.6 51.2 137.6 60.8 233.6 188.8 262.4 336 41.6 201.6-64 406.4-236.8 508.8zM780.8 160c-57.6-51.2-134.4-80-208-99.2 0 0 0 0 0 0 0 73.6-3.2 147.2-3.2 220.8 0 54.4-86.4 54.4-83.2 0 0-73.6 3.2-150.4 3.2-224-57.6 6.4-112 28.8-163.2 48-118.4 48-195.2 166.4-204.8 294.4 0 3.2 0 3.2 0 6.4 67.2 0 137.6 0 204.8 0 54.4 0 54.4 86.4 0 86.4-67.2 0-134.4 0-201.6 0 6.4 41.6 16 80 32 118.4 25.6 60.8 64 121.6 124.8 153.6 12.8 6.4 19.2 12.8 19.2 22.4 57.6 32 121.6 51.2 185.6 54.4 3.2-67.2 6.4-134.4 6.4-201.6 0-54.4 83.2-54.4 83.2 0 0 67.2-3.2 131.2-6.4 198.4 19.2-3.2 38.4-6.4 60.8-12.8 134.4-38.4 233.6-153.6 268.8-288 3.2-12.8 6.4-22.4 6.4-35.2-73.6 0-147.2 0-217.6 0-54.4 0-54.4-83.2 0-86.4 73.6-3.2 147.2-3.2 220.8 0-9.6-96-57.6-188.8-128-256z" />
<glyph unicode="&#xe61e;" glyph-name="arrow_top" d="M876.8 230.4l-364.8 364.8-364.8-364.8c-16-16-41.6-16-57.6 0l-44.8 48c-16 16-16 41.6 0 57.6l441.6 441.6c3.2 3.2 6.4 3.2 6.4 6.4 0 0 3.2 0 3.2 3.2h3.2c16 6.4 32 3.2 44.8-9.6l435.2-444.8c16-16 16-41.6 0-57.6l-48-48c-12.8-12.8-38.4-12.8-54.4 3.2z" />
</font>
</defs>
</svg>
